<svg width="17" height="14" viewBox="0 0 17 14" fill="none" xmlns="http://www.w3.org/2000/svg">
<path d="M16.8088 9.56509L12.4495 13.7979C12.3896 13.8603 12.3174 13.9103 12.2372 13.945C12.157 13.9797 12.0704 13.9984 11.9826 13.9999C11.8948 14.0014 11.8076 13.9857 11.7262 13.9538C11.6448 13.9219 11.5708 13.8743 11.5087 13.814C11.4466 13.7537 11.3977 13.6819 11.3648 13.6029C11.3319 13.5238 11.3158 13.4391 11.3173 13.3539C11.3189 13.2686 11.3381 13.1845 11.3738 13.1067C11.4096 13.0288 11.4611 12.9587 11.5253 12.9006L14.7678 9.75134H3.26888C3.09545 9.75134 2.92914 9.68444 2.80651 9.56537C2.68388 9.4463 2.61499 9.28481 2.61499 9.11641C2.61499 8.94802 2.68388 8.78653 2.80651 8.66745C2.92914 8.54838 3.09545 8.48149 3.26888 8.48149H16.3467C16.4759 8.4816 16.6022 8.5189 16.7097 8.58867C16.8171 8.65844 16.9008 8.75757 16.9503 8.87351C16.9997 8.98946 17.0126 9.11704 16.9875 9.24013C16.9623 9.36322 16.9001 9.4763 16.8088 9.56509ZM14.385 4.88359C14.385 4.71519 14.3161 4.5537 14.1935 4.43463C14.0709 4.31556 13.9045 4.24866 13.7311 4.24866H2.23224L5.47467 1.09944C5.53891 1.04131 5.59044 0.971218 5.62618 0.893335C5.66192 0.815451 5.68114 0.731376 5.68268 0.646125C5.68423 0.560873 5.66808 0.476192 5.6352 0.397133C5.60231 0.318074 5.55336 0.246256 5.49127 0.185965C5.42917 0.125674 5.35521 0.0781436 5.27379 0.0462103C5.19237 0.014277 5.10516 -0.00140535 5.01736 9.88121e-05C4.92956 0.00160298 4.84298 0.020263 4.76277 0.0549653C4.68256 0.0896677 4.61037 0.139702 4.5505 0.202082L0.191233 4.43491C0.0999008 4.5237 0.0377162 4.63678 0.0125332 4.75987C-0.0126498 4.88296 0.000298463 5.01054 0.0497425 5.12649C0.0991865 5.24243 0.182908 5.34156 0.290334 5.41133C0.39776 5.4811 0.524072 5.5184 0.653316 5.51851H13.7311C13.9045 5.51851 14.0709 5.45162 14.1935 5.33255C14.3161 5.21347 14.385 5.05198 14.385 4.88359Z" fill="black"/>
</svg>
