<svg width="11" height="10" viewBox="0 0 11 10" fill="none" xmlns="http://www.w3.org/2000/svg">
<path d="M11 3.83614C11 3.92782 10.9427 4.02773 10.8281 4.13585L8.42829 6.34368L8.99663 9.46276C9.00121 9.49173 9.0035 9.53369 9.0035 9.58775C9.00613 9.66651 8.98187 9.74398 8.93429 9.80875C8.91139 9.83857 8.88093 9.8625 8.8457 9.87837C8.81048 9.89423 8.7716 9.90152 8.73262 9.89957C8.64875 9.89957 8.56075 9.87448 8.46817 9.82432L5.5 8.353L2.53183 9.82518C2.43467 9.87492 2.34667 9.9 2.26738 9.9C2.17479 9.9 2.10558 9.86973 2.05929 9.80918C2.01155 9.74447 1.98713 9.66699 1.98963 9.58818C1.98963 9.56309 1.99421 9.52158 2.00337 9.46319L2.57171 6.34455L0.165458 4.13628C0.055 4.0234 0 3.92393 0 3.83614C0 3.6826 0.12375 3.58659 0.370333 3.5494L3.68867 3.09399L5.17596 0.256031C5.25983 0.0851994 5.36754 0 5.5 0C5.63246 0 5.74017 0.0851994 5.82404 0.256031L7.31133 3.09399L10.6297 3.5494C10.8767 3.58659 11 3.6826 11 3.83614Z" fill="#886D4A"/>
</svg>
