<?xml version="1.0" encoding="utf-8"?>
<!-- Generator: Adobe Illustrator 26.0.3, SVG Export Plug-In . SVG Version: 6.00 Build 0)  -->
<svg version="1.1" xmlns="http://www.w3.org/2000/svg" xmlns:xlink="http://www.w3.org/1999/xlink" x="0px" y="0px"
	 viewBox="0 0 1156 1156" style="enable-background:new 0 0 1156 1156;" xml:space="preserve">
<style type="text/css">
	.st0{display:none;}
	.st1{display:inline;}
	.st2{fill:#81696C;}
	.st3{font-family:'Gotham-Medium';}
	.st4{font-size:47.0781px;}
	.st5{letter-spacing:1;}
	.st6{font-size:93.8898px;}
	.st7{letter-spacing:2;}
	.st8{font-size:47.1144px;}
	.st9{display:inline;fill:none;stroke:#81696C;stroke-width:1.357;stroke-miterlimit:10;}
</style>
<g id="Microwave" class="st0">
	<g class="st1">
		<path class="st2" d="M614.66,515.2c-24.26,0-39.76-10.55-54.74-20.73c-13.27-9.03-25.8-17.56-43.88-17.56
			c-23.02,0-36.2,14.22-36.33,14.37l-8.3-7.54c0.67-0.74,16.71-18.04,44.63-18.04c21.53,0,36.1,9.92,50.19,19.5
			c14.21,9.66,27.61,18.79,48.43,18.79c40.85,0,63.24-25.73,63.46-25.99l8.57,7.24C685.65,486.46,660.91,515.2,614.66,515.2"/>
		<text transform="matrix(1 0 0 1 447.4531 754.418)"><tspan x="0" y="0" class="st2 st3 st4 st5">m</tspan><tspan x="45.95" y="0" class="st2 st3 st4 st5">ic</tspan><tspan x="88.46" y="0" class="st2 st3 st4">r</tspan><tspan x="108.75" y="0" class="st2 st3 st4">o</tspan><tspan x="139.96" y="0" class="st2 st3 st4">w</tspan><tspan x="181.11" y="0" class="st2 st3 st4">a</tspan><tspan x="208.98" y="0" class="st2 st3 st4">v</tspan><tspan x="237.13" y="0" class="st2 st3 st4">e</tspan></text>
		<text transform="matrix(1 0 0 1 529.8867 810.4414)"><tspan x="0" y="0" class="st2 st3 st4 st5">s</tspan><tspan x="24.9" y="0" class="st2 st3 st4 st5">a</tspan><tspan x="53.57" y="0" class="st2 st3 st4 st5">f</tspan><tspan x="72.45" y="0" class="st2 st3 st4">e</tspan></text>
		<path class="st2" d="M614.66,637.38c-24.26,0-39.76-10.55-54.74-20.73c-13.27-9.03-25.8-17.56-43.88-17.56
			c-23.02,0-36.2,14.22-36.33,14.37l-8.3-7.54c0.67-0.74,16.71-18.04,44.63-18.04c21.53,0,36.1,9.92,50.19,19.49
			c14.21,9.66,27.61,18.79,48.43,18.79c41.09,0,63.24-25.71,63.45-25.97l8.57,7.22C685.65,608.64,660.91,637.38,614.66,637.38"/>
		<path class="st2" d="M614.66,577.04c-24.26,0-39.76-10.55-54.74-20.73c-13.27-9.03-25.8-17.56-43.88-17.56
			c-22.79,0-36.22,14.23-36.35,14.38l-8.28-7.56c0.67-0.74,16.71-18.04,44.63-18.04c21.53,0,36.1,9.92,50.19,19.49
			c14.21,9.66,27.61,18.79,48.43,18.79c41.09,0,63.23-25.73,63.45-25.99l8.57,7.23C685.66,548.28,660.91,577.04,614.66,577.04"/>
		<path class="st2" d="M456.13,675.47h244.19V427.65H456.13V675.47z M711.54,686.69H444.91V416.44h266.62V686.69z"/>
	</g>
</g>
<g id="Layer_3">
	<path class="st2" d="M648.6,450.24c-48.39,0-79.29-21.03-109.16-41.35c-26.46-18.01-51.46-35.01-87.51-35.01
		c-45.9,0-72.2,28.36-72.46,28.66l-16.55-15.03c1.33-1.48,33.32-35.99,89.01-35.99c42.94,0,71.99,19.78,100.09,38.9
		c28.33,19.26,55.07,37.47,96.58,37.47c81.47,0,126.12-51.31,126.55-51.83l17.08,14.43C790.17,392.91,740.84,450.24,648.6,450.24"/>
	<text transform="matrix(1 0 0 1 315.1299 927.3164)"><tspan x="0" y="0" class="st2 st3 st6 st7">m</tspan><tspan x="91.64" y="0" class="st2 st3 st6 st7">ic</tspan><tspan x="176.42" y="0" class="st2 st3 st6 st5">r</tspan><tspan x="216.88" y="0" class="st2 st3 st6">o</tspan><tspan x="279.13" y="0" class="st2 st3 st6 st5">w</tspan><tspan x="361.19" y="0" class="st2 st3 st6">a</tspan><tspan x="416.77" y="0" class="st2 st3 st6">v</tspan><tspan x="472.92" y="0" class="st2 st3 st6">e</tspan></text>
	<text transform="matrix(1 0 0 1 479.5234 1039.0547)"><tspan x="0" y="0" class="st2 st3 st6 st7">s</tspan><tspan x="49.67" y="0" class="st2 st3 st6 st7">a</tspan><tspan x="106.85" y="0" class="st2 st3 st6 st7">f</tspan><tspan x="144.5" y="0" class="st2 st3 st6">e</tspan></text>
	<path class="st2" d="M648.6,693.9c-48.39,0-79.29-21.03-109.16-41.33c-26.46-18.01-51.46-35.01-87.51-35.01
		c-45.9,0-72.2,28.36-72.46,28.66l-16.55-15.03c1.33-1.48,33.32-35.99,89.01-35.99c42.94,0,71.99,19.78,100.09,38.88
		c28.33,19.26,55.07,37.47,96.58,37.47c81.95,0,126.12-51.28,126.54-51.8l17.1,14.4C790.17,636.59,740.82,693.9,648.6,693.9"/>
	<path class="st2" d="M648.6,573.56c-48.39,0-79.29-21.03-109.16-41.33c-26.46-18.01-51.46-35.01-87.51-35.01
		c-45.45,0-72.23,28.38-72.49,28.67l-16.51-15.07c1.33-1.48,33.32-35.97,89.01-35.97c42.94,0,71.99,19.78,100.09,38.88
		c28.33,19.26,55.07,37.47,96.58,37.47c81.95,0,126.1-51.31,126.54-51.83l17.1,14.42C790.19,516.2,740.84,573.56,648.6,573.56"/>
	<path class="st2" d="M332.43,769.87h487V275.64h-487V769.87z M841.8,792.24H310.06V253.27H841.8V792.24z"/>
</g>
<g id="Layer_2" class="st0">
	<text transform="matrix(1 0 0 1 426.7393 755.9609)" class="st1"><tspan x="0" y="0" class="st2 st3 st8 st5">f</tspan><tspan x="19.03" y="0" class="st2 st3 st8">r</tspan><tspan x="39.43" y="0" class="st2 st3 st8 st5">e</tspan><tspan x="69.16" y="0" class="st2 st3 st8">e</tspan><tspan x="98.28" y="0" class="st2 st3 st8">z</tspan><tspan x="124.99" y="0" class="st2 st3 st8 st5">e</tspan><tspan x="154.82" y="0" class="st2 st3 st8">r </tspan><tspan x="188.41" y="0" class="st2 st3 st8 st5">s</tspan><tspan x="213.33" y="0" class="st2 st3 st8 st5">a</tspan><tspan x="242.02" y="0" class="st2 st3 st8 st5">f</tspan><tspan x="260.92" y="0" class="st2 st3 st8">e</tspan></text>
	<text transform="matrix(1 0 0 1 464.6221 812.0264)" class="st1"><tspan x="0" y="0" class="st2 st3 st8">t</tspan><tspan x="19.83" y="0" class="st2 st3 st8">o </tspan><tspan x="64.92" y="0" class="st2 st3 st8 st7">-</tspan><tspan x="86.55" y="0" class="st2 st3 st8 st5">4</tspan><tspan x="120" y="0" class="st2 st3 st8 st5">0</tspan><tspan x="155.52" y="0" class="st2 st3 st8 st5">°</tspan><tspan x="178.8" y="0" class="st2 st3 st8">C</tspan></text>
	<path class="st9" d="M502.92,461.56l13.07,49.97l-53.62,14 M689.33,570.64l-50.01,13.06l14,53.57 M693.09,616.3L464.06,482.29
		 M463.39,571.2l49.99,13.14l-14.1,53.55 M649.98,462.45l-13.16,49.94l53.6,14.09 M691.65,481.58L462.39,615.19 M539.32,658.23
		l36.56-36.52l39.18,39.15 M539.32,442.41l36.56,36.52l39.18-39.15 M576.86,416.09v265.17 M539.32,658.23l36.56-36.52l39.18,39.15
		 M539.32,442.41l36.56,36.52l39.18-39.15 M576.86,416.09v265.17"/>
</g>
</svg>
