<?xml version="1.0" encoding="utf-8"?>
<!-- Generator: Adobe Illustrator 26.0.3, SVG Export Plug-In . SVG Version: 6.00 Build 0)  -->
<svg version="1.1" id="Layer_1" xmlns="http://www.w3.org/2000/svg" xmlns:xlink="http://www.w3.org/1999/xlink" x="0px" y="0px"
	 viewBox="0 0 128 128" style="enable-background:new 0 0 128 128;" xml:space="preserve">
<style type="text/css">
	.st0{fill:#81696C;}
</style>
<g>
	<path class="st0" d="M55.82,54.3c0-2.58-2.08-4.68-4.68-4.68c-2.57,0-4.66,2.09-4.66,4.68c0,2.57,2.08,4.68,4.66,4.68
		C53.74,58.97,55.82,56.87,55.82,54.3 M107.04,87.15l-14.78,0.06c0.06-9.11-0.1-8.94-0.1-11.58c0-2.37-2.26-4.99-5.51-4.99
		c-5.57,0-5.53,5.84-5.53,5.84v10.73h-14.5l0.02-11.82c0-0.05-0.26-3.63-4.49-4.64c-2.16-0.51-4.56,0.24-7.11,4.31
		c-3.44,5.48-17.33,17.12-30.35,9.73c0,0-12.22-7.33-4.8-22.14c2.62-5.22,13.97-15.28,28.69-19.71c-0.52-1.06-0.82-2.26-0.82-3.51
		c0-2.77,1.41-5.21,3.54-6.65v-0.02c0.14-0.09,0.3-0.18,0.45-0.26c0.35-0.19,0.75-0.28,1.17-0.28c0.4,0,0.78,0.09,1.13,0.24
		c0.17,0.11,0.34,0.23,0.53,0.33c2.1,1.46,3.47,3.87,3.47,6.64c0,0.56-0.05,1.13-0.17,1.67c8.71-0.76,16.17,0.4,16.17,0.4
		s29.64,3.99,34.15,27.87l0.02,0.11C108.26,69.48,110.15,78.74,107.04,87.15 M127.85,64c0-35.26-28.59-63.86-63.86-63.86
		S0.15,28.74,0.15,64s28.57,63.86,63.84,63.86S127.85,99.26,127.85,64"/>
</g>
</svg>
