<?xml version="1.0" encoding="utf-8"?>
<!-- Generator: Adobe Illustrator 26.0.3, SVG Export Plug-In . SVG Version: 6.00 Build 0)  -->
<svg version="1.1" xmlns="http://www.w3.org/2000/svg" xmlns:xlink="http://www.w3.org/1999/xlink" x="0px" y="0px"
	 viewBox="0 0 578 578" style="enable-background:new 0 0 578 578;" xml:space="preserve">
<style type="text/css">
	.st0{fill:#81696C;}
	.st1{display:none;}
	.st2{display:inline;}
	.st3{font-family:'Gotham-Medium';}
	.st4{font-size:47.1144px;}
	.st5{letter-spacing:1;}
	.st6{letter-spacing:2;}
	.st7{display:inline;fill:none;stroke:#81696C;stroke-width:1.357;stroke-miterlimit:10;}
</style>
<g id="Microwave">
	<path class="st0" d="M345.42,144.68c-35.54,0-58.24-15.45-80.18-30.37c-19.44-13.23-37.8-25.72-64.28-25.72
		c-33.72,0-53.03,20.83-53.22,21.05l-12.15-11.04c0.98-1.09,24.47-26.43,65.38-26.43c31.54,0,52.88,14.53,73.52,28.57
		c20.81,14.15,40.45,27.52,70.94,27.52c59.84,0,92.63-37.69,92.96-38.07l12.55,10.6C449.41,102.57,413.18,144.68,345.42,144.68"/>
	<g>
		<path class="st0" d="M138.49,459.71c2-1.18,4.38-1.78,7.14-1.78c4,0,7.13,1.21,9.38,3.62c2.25,2.41,3.38,5.85,3.38,10.31v23.24
			h-8.41v-20.64c0-2.89-0.64-5.09-1.92-6.61c-1.28-1.51-3.09-2.27-5.42-2.27c-2.29,0-4.15,0.77-5.59,2.31
			c-1.44,1.54-2.16,3.77-2.16,6.71v20.5h-8.41v-20.71c0-2.84-0.64-5.02-1.92-6.54c-1.28-1.51-3.09-2.27-5.42-2.27
			c-2.33,0-4.21,0.8-5.63,2.41c-1.42,1.6-2.13,3.83-2.13,6.67v20.43h-8.41v-36.41h8.41v5.57c0.6-0.83,1.24-1.62,1.93-2.37
			c0.69-0.74,1.48-1.41,2.38-2.02c0.9-0.6,1.91-1.08,3.03-1.43c1.12-0.35,2.38-0.52,3.76-0.52c2.62,0,4.84,0.59,6.65,1.78
			c1.81,1.18,3.2,2.75,4.17,4.7C134.75,462.46,136.49,460.89,138.49,459.71z"/>
		<path class="st0" d="M170.4,453.1v-7.93h9.03v7.93H170.4z M170.74,495.1v-36.41h8.41v36.41H170.74z"/>
		<path class="st0" d="M217.22,494.04c-2.3,1.26-5.22,1.9-8.76,1.9c-2.71,0-5.22-0.49-7.52-1.48c-2.3-0.99-4.3-2.35-5.99-4.07
			c-1.69-1.72-3.01-3.72-3.96-6c-0.95-2.28-1.43-4.72-1.43-7.34s0.48-5.08,1.43-7.38c0.95-2.3,2.27-4.32,3.96-6.07
			c1.69-1.75,3.7-3.13,6.02-4.14c2.32-1.01,4.84-1.52,7.55-1.52c3.45,0,6.31,0.58,8.59,1.72c2.28,1.15,4.26,2.67,5.97,4.55
			l-5.17,5.59c-1.29-1.33-2.66-2.42-4.1-3.28c-1.45-0.85-3.23-1.28-5.34-1.28c-1.52,0-2.92,0.31-4.21,0.93
			c-1.29,0.62-2.39,1.46-3.31,2.52c-0.92,1.06-1.64,2.29-2.17,3.69c-0.53,1.4-0.79,2.91-0.79,4.52c0,1.66,0.26,3.2,0.79,4.62
			c0.53,1.43,1.28,2.67,2.24,3.72c0.97,1.06,2.11,1.9,3.45,2.52c1.33,0.62,2.8,0.93,4.41,0.93c1.98,0,3.71-0.42,5.21-1.28
			c1.49-0.85,2.91-1.94,4.24-3.28l5.03,4.97C221.57,491.13,219.52,492.77,217.22,494.04z"/>
		<path class="st0" d="M240.95,495.1h-8.41v-36.41h8.41v8.21c1.15-2.76,2.78-4.97,4.9-6.62c2.11-1.66,4.78-2.41,8-2.28v8.83h-0.48
			c-1.84,0-3.52,0.3-5.03,0.9c-1.52,0.6-2.83,1.49-3.93,2.69c-1.1,1.2-1.95,2.7-2.55,4.52c-0.6,1.82-0.9,3.92-0.9,6.31V495.1z"/>
		<path class="st0" d="M297.6,484.28c-0.99,2.3-2.35,4.31-4.07,6.03c-1.72,1.72-3.78,3.09-6.17,4.1c-2.39,1.01-4.99,1.52-7.79,1.52
			c-2.76,0-5.32-0.49-7.69-1.48c-2.37-0.99-4.41-2.35-6.14-4.07c-1.72-1.72-3.07-3.72-4.03-6c-0.97-2.28-1.45-4.72-1.45-7.34
			s0.49-5.09,1.48-7.41c0.99-2.32,2.34-4.35,4.07-6.07c1.72-1.72,3.77-3.09,6.14-4.1c2.37-1.01,4.95-1.52,7.76-1.52
			c2.8,0,5.39,0.49,7.76,1.48c2.37,0.99,4.41,2.35,6.14,4.07c1.72,1.72,3.07,3.74,4.03,6.03c0.97,2.3,1.45,4.76,1.45,7.38
			S298.59,481.98,297.6,484.28z M289.85,472.48c-0.55-1.42-1.31-2.68-2.3-3.76c-0.98-1.08-2.15-1.93-3.5-2.55
			c-1.35-0.62-2.84-0.93-4.49-0.93c-1.65,0-3.14,0.31-4.49,0.93c-1.35,0.62-2.5,1.46-3.46,2.52c-0.96,1.06-1.69,2.29-2.19,3.69
			c-0.5,1.4-0.75,2.91-0.75,4.52c0,1.61,0.27,3.14,0.82,4.59c0.55,1.45,1.31,2.7,2.29,3.76c0.98,1.06,2.15,1.9,3.5,2.52
			c1.35,0.62,2.82,0.93,4.42,0.93c1.69,0,3.21-0.31,4.56-0.93c1.35-0.62,2.5-1.46,3.46-2.52c0.96-1.06,1.69-2.29,2.19-3.69
			c0.5-1.4,0.75-2.91,0.75-4.52C290.67,475.43,290.39,473.91,289.85,472.48z"/>
		<path class="st0" d="M344.12,483.66l7.45-24.96h8.34l-11.93,36.69h-7.45l-8.14-24.9l-8.21,24.9h-7.45l-11.79-36.69h8.55
			l7.31,24.96l8.07-25.1h7.1L344.12,483.66z"/>
		<path class="st0" d="M390.53,495.1v-4.48c-1.24,1.47-2.83,2.71-4.76,3.72c-1.93,1.01-4.28,1.52-7.03,1.52
			c-1.75,0-3.4-0.24-4.96-0.72c-1.56-0.48-2.93-1.19-4.1-2.14c-1.17-0.94-2.12-2.11-2.83-3.52c-0.71-1.4-1.07-3.02-1.07-4.86v-0.14
			c0-1.98,0.37-3.7,1.1-5.17c0.73-1.47,1.76-2.69,3.07-3.65c1.31-0.97,2.87-1.69,4.69-2.17c1.82-0.48,3.78-0.72,5.9-0.72
			c2.21,0,4.08,0.14,5.62,0.41c1.54,0.28,3.02,0.64,4.45,1.1v-0.9c0-2.53-0.77-4.46-2.31-5.79c-1.54-1.33-3.76-2-6.65-2
			c-2.07,0-3.91,0.21-5.52,0.62c-1.61,0.41-3.24,0.97-4.9,1.65l-2.28-6.69c2.02-0.92,4.09-1.66,6.21-2.21
			c2.11-0.55,4.67-0.83,7.66-0.83c5.42,0,9.45,1.35,12.07,4.03c2.62,2.69,3.93,6.47,3.93,11.34v21.59H390.53z M390.74,479.66
			c-1.06-0.41-2.31-0.76-3.76-1.03c-1.45-0.28-2.98-0.41-4.59-0.41c-2.62,0-4.67,0.51-6.14,1.52c-1.47,1.01-2.21,2.46-2.21,4.35
			v0.14c0,1.75,0.68,3.08,2.03,4c1.36,0.92,3.02,1.38,5,1.38c1.38,0,2.66-0.18,3.83-0.55c1.17-0.37,2.19-0.88,3.07-1.55
			c0.87-0.67,1.55-1.47,2.03-2.41c0.48-0.94,0.72-1.99,0.72-3.14V479.66z"/>
		<path class="st0" d="M434.25,458.69h8.76l-14.9,36.69h-7.52l-14.97-36.69h8.97l9.79,26.76L434.25,458.69z"/>
		<path class="st0" d="M460.25,486.72c1.88,1.59,4.18,2.38,6.9,2.38c2.07,0,3.86-0.37,5.38-1.1c1.52-0.74,3.01-1.82,4.48-3.24
			l4.9,4.35c-1.75,2.07-3.83,3.72-6.24,4.96c-2.41,1.24-5.3,1.86-8.65,1.86c-2.62,0-5.07-0.46-7.34-1.38
			c-2.28-0.92-4.25-2.21-5.93-3.86c-1.68-1.66-3-3.64-3.97-5.97c-0.97-2.32-1.45-4.91-1.45-7.76c0-2.62,0.44-5.08,1.31-7.38
			c0.87-2.3,2.1-4.31,3.69-6.03c1.59-1.72,3.46-3.09,5.62-4.1c2.16-1.01,4.55-1.52,7.17-1.52c2.9,0,5.44,0.53,7.62,1.59
			c2.18,1.06,4,2.48,5.45,4.28c1.45,1.79,2.54,3.89,3.28,6.28c0.73,2.39,1.1,4.9,1.1,7.52c0,0.37-0.01,0.74-0.03,1.1
			c-0.02,0.37-0.06,0.76-0.1,1.17h-26.76C457.17,482.85,458.37,485.14,460.25,486.72z M475.28,474.35c-0.14-1.33-0.44-2.59-0.9-3.76
			c-0.46-1.17-1.08-2.18-1.86-3.03c-0.78-0.85-1.71-1.53-2.79-2.03c-1.08-0.51-2.31-0.76-3.69-0.76c-2.57,0-4.7,0.89-6.38,2.66
			c-1.68,1.77-2.7,4.08-3.07,6.93H475.28z"/>
	</g>
	<g>
		<path class="st0" d="M250.01,571.45c-0.69,1.43-1.64,2.61-2.86,3.55c-1.22,0.94-2.66,1.65-4.31,2.14
			c-1.66,0.48-3.43,0.72-5.31,0.72c-2.62,0-5.28-0.46-7.97-1.38c-2.69-0.92-5.18-2.28-7.48-4.07l3.72-5.65
			c1.98,1.47,3.99,2.59,6.03,3.34c2.05,0.76,4.01,1.14,5.9,1.14c1.79,0,3.18-0.36,4.17-1.07c0.99-0.71,1.48-1.67,1.48-2.86v-0.14
			c0-0.69-0.22-1.29-0.66-1.79c-0.44-0.5-1.03-0.95-1.79-1.34c-0.76-0.39-1.63-0.74-2.62-1.03c-0.99-0.3-2.01-0.61-3.07-0.93
			c-1.33-0.41-2.68-0.87-4.03-1.38c-1.36-0.51-2.58-1.16-3.66-1.97c-1.08-0.8-1.97-1.79-2.66-2.97c-0.69-1.17-1.03-2.63-1.03-4.38
			v-0.14c0-1.7,0.33-3.24,1-4.62c0.67-1.38,1.59-2.55,2.76-3.52c1.17-0.97,2.55-1.7,4.14-2.21c1.59-0.51,3.28-0.76,5.07-0.76
			c2.3,0,4.62,0.37,6.97,1.1c2.34,0.74,4.48,1.75,6.41,3.03l-3.31,5.93c-1.75-1.06-3.52-1.9-5.31-2.52
			c-1.79-0.62-3.45-0.93-4.97-0.93c-1.61,0-2.86,0.34-3.76,1.03c-0.9,0.69-1.35,1.56-1.35,2.62v0.14c0,0.64,0.23,1.21,0.69,1.69
			c0.46,0.48,1.07,0.92,1.83,1.31c0.76,0.39,1.63,0.76,2.62,1.1c0.99,0.35,2.01,0.68,3.07,1c1.33,0.41,2.67,0.9,4,1.45
			c1.33,0.55,2.54,1.23,3.62,2.03c1.08,0.8,1.97,1.78,2.66,2.93c0.69,1.15,1.03,2.55,1.03,4.21v0.14
			C251.05,568.34,250.7,570.02,250.01,571.45z"/>
		<path class="st0" d="M283.81,577.17v-4.48c-1.24,1.47-2.83,2.71-4.76,3.72c-1.93,1.01-4.28,1.52-7.03,1.52
			c-1.75,0-3.4-0.24-4.97-0.72c-1.56-0.48-2.93-1.2-4.1-2.14c-1.17-0.94-2.11-2.11-2.83-3.52c-0.71-1.4-1.07-3.02-1.07-4.86v-0.14
			c0-1.98,0.37-3.7,1.1-5.17c0.73-1.47,1.76-2.69,3.07-3.65c1.31-0.97,2.87-1.69,4.69-2.17c1.82-0.48,3.78-0.72,5.9-0.72
			c2.21,0,4.08,0.14,5.62,0.41c1.54,0.28,3.02,0.64,4.45,1.1v-0.9c0-2.53-0.77-4.46-2.31-5.79c-1.54-1.33-3.76-2-6.65-2
			c-2.07,0-3.91,0.21-5.52,0.62c-1.61,0.41-3.24,0.97-4.9,1.65l-2.28-6.69c2.02-0.92,4.09-1.66,6.21-2.21
			c2.11-0.55,4.67-0.83,7.66-0.83c5.42,0,9.45,1.35,12.07,4.03c2.62,2.69,3.93,6.47,3.93,11.34v21.59H283.81z M284.01,561.72
			c-1.06-0.41-2.31-0.76-3.76-1.03c-1.45-0.28-2.98-0.41-4.59-0.41c-2.62,0-4.67,0.51-6.14,1.52c-1.47,1.01-2.21,2.46-2.21,4.35
			v0.14c0,1.75,0.68,3.08,2.03,4c1.36,0.92,3.02,1.38,5,1.38c1.38,0,2.66-0.18,3.83-0.55c1.17-0.37,2.19-0.88,3.07-1.55
			c0.87-0.67,1.55-1.47,2.03-2.41c0.48-0.94,0.72-1.99,0.72-3.14V561.72z"/>
		<path class="st0" d="M323.32,541.03v6.9h-9.52v29.24h-8.41v-29.24h-4.62v-6.96h4.62v-2.62c0-4.05,0.97-7.05,2.92-9
			c1.95-1.95,4.72-2.93,8.32-2.93c1.47,0,2.73,0.09,3.79,0.28c1.06,0.18,2.04,0.41,2.97,0.69v7.03c-0.83-0.28-1.62-0.49-2.38-0.66
			c-0.76-0.16-1.6-0.24-2.52-0.24c-3.22,0-4.83,1.84-4.83,5.52v2H323.32z"/>
		<path class="st0" d="M341.12,568.79c1.88,1.59,4.18,2.38,6.9,2.38c2.07,0,3.86-0.37,5.38-1.1c1.52-0.74,3.01-1.82,4.48-3.24
			l4.9,4.35c-1.75,2.07-3.83,3.72-6.24,4.96c-2.41,1.24-5.3,1.86-8.65,1.86c-2.62,0-5.07-0.46-7.34-1.38
			c-2.28-0.92-4.25-2.21-5.93-3.86c-1.68-1.66-3-3.64-3.97-5.97c-0.97-2.32-1.45-4.91-1.45-7.76c0-2.62,0.44-5.08,1.31-7.38
			c0.87-2.3,2.1-4.31,3.69-6.03c1.59-1.72,3.46-3.09,5.62-4.1c2.16-1.01,4.55-1.52,7.17-1.52c2.9,0,5.44,0.53,7.62,1.59
			c2.18,1.06,4,2.48,5.45,4.28c1.45,1.79,2.54,3.89,3.28,6.28c0.73,2.39,1.1,4.9,1.1,7.52c0,0.37-0.01,0.74-0.03,1.1
			c-0.02,0.37-0.06,0.76-0.1,1.17h-26.76C338.04,564.92,339.23,567.21,341.12,568.79z M356.15,556.41c-0.14-1.33-0.44-2.59-0.9-3.76
			c-0.46-1.17-1.08-2.18-1.86-3.03c-0.78-0.85-1.71-1.53-2.79-2.03c-1.08-0.51-2.31-0.76-3.69-0.76c-2.57,0-4.7,0.89-6.38,2.66
			c-1.68,1.77-2.7,4.08-3.07,6.93H356.15z"/>
	</g>
	<path class="st0" d="M345.42,323.65c-35.54,0-58.24-15.45-80.18-30.36c-19.44-13.23-37.8-25.72-64.28-25.72
		c-33.72,0-53.03,20.83-53.22,21.05l-12.15-11.04c0.98-1.09,24.47-26.43,65.38-26.43c31.54,0,52.88,14.53,73.52,28.56
		c20.81,14.15,40.45,27.52,70.94,27.52c60.2,0,92.63-37.67,92.95-38.05l12.56,10.58C449.41,281.56,413.16,323.65,345.42,323.65"/>
	<path class="st0" d="M345.42,235.26c-35.54,0-58.24-15.45-80.18-30.36c-19.44-13.23-37.8-25.72-64.28-25.72
		c-33.38,0-53.06,20.85-53.25,21.06l-12.13-11.07c0.98-1.09,24.47-26.42,65.38-26.42c31.54,0,52.88,14.53,73.52,28.56
		c20.81,14.15,40.45,27.52,70.94,27.52c60.2,0,92.62-37.69,92.95-38.07l12.56,10.59C449.42,193.13,413.18,235.26,345.42,235.26"/>
	<path class="st0" d="M114.4,379.46h357.72V16.43H114.4V379.46z M488.54,395.89H97.97V0h390.57V395.89z"/>
</g>
<g id="Layer_2" class="st1">
	<text transform="matrix(1 0 0 1 137.7393 466.9609)" class="st2"><tspan x="0" y="0" class="st0 st3 st4 st5">f</tspan><tspan x="19.03" y="0" class="st0 st3 st4">r</tspan><tspan x="39.43" y="0" class="st0 st3 st4 st5">e</tspan><tspan x="69.16" y="0" class="st0 st3 st4">e</tspan><tspan x="98.28" y="0" class="st0 st3 st4">z</tspan><tspan x="124.99" y="0" class="st0 st3 st4 st5">e</tspan><tspan x="154.82" y="0" class="st0 st3 st4">r </tspan><tspan x="188.41" y="0" class="st0 st3 st4 st5">s</tspan><tspan x="213.33" y="0" class="st0 st3 st4 st5">a</tspan><tspan x="242.02" y="0" class="st0 st3 st4 st5">f</tspan><tspan x="260.92" y="0" class="st0 st3 st4">e</tspan></text>
	<text transform="matrix(1 0 0 1 175.6221 523.0264)" class="st2"><tspan x="0" y="0" class="st0 st3 st4">t</tspan><tspan x="19.83" y="0" class="st0 st3 st4">o </tspan><tspan x="64.92" y="0" class="st0 st3 st4 st6">-</tspan><tspan x="86.55" y="0" class="st0 st3 st4 st5">4</tspan><tspan x="120" y="0" class="st0 st3 st4 st5">0</tspan><tspan x="155.52" y="0" class="st0 st3 st4 st5">°</tspan><tspan x="178.8" y="0" class="st0 st3 st4">C</tspan></text>
	<path class="st7" d="M213.92,172.56l13.07,49.97l-53.62,14 M400.33,281.64l-50.01,13.06l14,53.57 M404.09,327.3L175.06,193.29
		 M174.39,282.2l49.99,13.14l-14.1,53.55 M360.98,173.45l-13.16,49.94l53.6,14.09 M402.65,192.58L173.39,326.19 M250.32,369.23
		l36.56-36.52l39.18,39.15 M250.32,153.41l36.56,36.52l39.18-39.15 M287.86,127.09v265.17 M250.32,369.23l36.56-36.52l39.18,39.15
		 M250.32,153.41l36.56,36.52l39.18-39.15 M287.86,127.09v265.17"/>
</g>
</svg>
