<?xml version="1.0" encoding="utf-8"?>
<!-- Generator: Adobe Illustrator 26.0.3, SVG Export Plug-In . SVG Version: 6.00 Build 0)  -->
<svg version="1.1" xmlns="http://www.w3.org/2000/svg" xmlns:xlink="http://www.w3.org/1999/xlink" x="0px" y="0px"
	 viewBox="0 0 578 578" style="enable-background:new 0 0 578 578;" xml:space="preserve">
<style type="text/css">
	.st0{display:none;}
	.st1{display:inline;fill:#81696C;}
	.st2{display:inline;}
	.st3{fill:#81696C;}
	.st4{font-family:'Roboto-Bold';}
	.st5{font-size:68.4059px;}
	.st6{letter-spacing:1;}
</style>
<g id="Microwave" class="st0">
	<path class="st1" d="M345.42,144.68c-35.54,0-58.24-15.45-80.18-30.37c-19.44-13.23-37.8-25.72-64.28-25.72
		c-33.72,0-53.03,20.83-53.22,21.05l-12.15-11.04c0.98-1.09,24.47-26.43,65.38-26.43c31.54,0,52.88,14.53,73.52,28.57
		c20.81,14.15,40.45,27.52,70.94,27.52c59.84,0,92.63-37.69,92.96-38.07l12.55,10.6C449.41,102.57,413.18,144.68,345.42,144.68"/>
	<g class="st2">
		<path class="st3" d="M138.49,459.71c2-1.18,4.38-1.78,7.14-1.78c4,0,7.13,1.21,9.38,3.62c2.25,2.41,3.38,5.85,3.38,10.31v23.24
			h-8.41v-20.64c0-2.89-0.64-5.09-1.92-6.61c-1.28-1.51-3.09-2.27-5.42-2.27c-2.29,0-4.15,0.77-5.59,2.31
			c-1.44,1.54-2.16,3.77-2.16,6.71v20.5h-8.41v-20.71c0-2.84-0.64-5.02-1.92-6.54c-1.28-1.51-3.09-2.27-5.42-2.27
			c-2.33,0-4.21,0.8-5.63,2.41c-1.42,1.6-2.13,3.83-2.13,6.67v20.43h-8.41v-36.41h8.41v5.57c0.6-0.83,1.24-1.62,1.93-2.37
			c0.69-0.74,1.48-1.41,2.38-2.02c0.9-0.6,1.91-1.08,3.03-1.43c1.12-0.35,2.38-0.52,3.76-0.52c2.62,0,4.84,0.59,6.65,1.78
			c1.81,1.18,3.2,2.75,4.17,4.7C134.75,462.46,136.49,460.89,138.49,459.71z"/>
		<path class="st3" d="M170.4,453.1v-7.93h9.03v7.93H170.4z M170.74,495.1v-36.41h8.41v36.41H170.74z"/>
		<path class="st3" d="M217.22,494.04c-2.3,1.26-5.22,1.9-8.76,1.9c-2.71,0-5.22-0.49-7.52-1.48c-2.3-0.99-4.3-2.35-5.99-4.07
			c-1.69-1.72-3.01-3.72-3.96-6c-0.95-2.28-1.43-4.72-1.43-7.34s0.48-5.08,1.43-7.38c0.95-2.3,2.27-4.32,3.96-6.07
			c1.69-1.75,3.7-3.13,6.02-4.14c2.32-1.01,4.84-1.52,7.55-1.52c3.45,0,6.31,0.58,8.59,1.72c2.28,1.15,4.26,2.67,5.97,4.55
			l-5.17,5.59c-1.29-1.33-2.66-2.42-4.1-3.28c-1.45-0.85-3.23-1.28-5.34-1.28c-1.52,0-2.92,0.31-4.21,0.93
			c-1.29,0.62-2.39,1.46-3.31,2.52c-0.92,1.06-1.64,2.29-2.17,3.69c-0.53,1.4-0.79,2.91-0.79,4.52c0,1.66,0.26,3.2,0.79,4.62
			c0.53,1.43,1.28,2.67,2.24,3.72c0.97,1.06,2.11,1.9,3.45,2.52c1.33,0.62,2.8,0.93,4.41,0.93c1.98,0,3.71-0.42,5.21-1.28
			c1.49-0.85,2.91-1.94,4.24-3.28l5.03,4.97C221.57,491.13,219.52,492.77,217.22,494.04z"/>
		<path class="st3" d="M240.95,495.1h-8.41v-36.41h8.41v8.21c1.15-2.76,2.78-4.97,4.9-6.62c2.11-1.66,4.78-2.41,8-2.28v8.83h-0.48
			c-1.84,0-3.52,0.3-5.03,0.9c-1.52,0.6-2.83,1.49-3.93,2.69c-1.1,1.2-1.95,2.7-2.55,4.52c-0.6,1.82-0.9,3.92-0.9,6.31V495.1z"/>
		<path class="st3" d="M297.6,484.28c-0.99,2.3-2.35,4.31-4.07,6.03c-1.72,1.72-3.78,3.09-6.17,4.1c-2.39,1.01-4.99,1.52-7.79,1.52
			c-2.76,0-5.32-0.49-7.69-1.48c-2.37-0.99-4.41-2.35-6.14-4.07c-1.72-1.72-3.07-3.72-4.03-6c-0.97-2.28-1.45-4.72-1.45-7.34
			s0.49-5.09,1.48-7.41c0.99-2.32,2.34-4.35,4.07-6.07c1.72-1.72,3.77-3.09,6.14-4.1c2.37-1.01,4.95-1.52,7.76-1.52
			c2.8,0,5.39,0.49,7.76,1.48c2.37,0.99,4.41,2.35,6.14,4.07c1.72,1.72,3.07,3.74,4.03,6.03c0.97,2.3,1.45,4.76,1.45,7.38
			S298.59,481.98,297.6,484.28z M289.85,472.48c-0.55-1.42-1.31-2.68-2.3-3.76c-0.98-1.08-2.15-1.93-3.5-2.55
			c-1.35-0.62-2.84-0.93-4.49-0.93c-1.65,0-3.14,0.31-4.49,0.93c-1.35,0.62-2.5,1.46-3.46,2.52c-0.96,1.06-1.69,2.29-2.19,3.69
			c-0.5,1.4-0.75,2.91-0.75,4.52c0,1.61,0.27,3.14,0.82,4.59c0.55,1.45,1.31,2.7,2.29,3.76c0.98,1.06,2.15,1.9,3.5,2.52
			c1.35,0.62,2.82,0.93,4.42,0.93c1.69,0,3.21-0.31,4.56-0.93c1.35-0.62,2.5-1.46,3.46-2.52c0.96-1.06,1.69-2.29,2.19-3.69
			c0.5-1.4,0.75-2.91,0.75-4.52C290.67,475.43,290.39,473.91,289.85,472.48z"/>
		<path class="st3" d="M344.12,483.66l7.45-24.96h8.34l-11.93,36.69h-7.45l-8.14-24.9l-8.21,24.9h-7.45l-11.79-36.69h8.55
			l7.31,24.96l8.07-25.1h7.1L344.12,483.66z"/>
		<path class="st3" d="M390.53,495.1v-4.48c-1.24,1.47-2.83,2.71-4.76,3.72c-1.93,1.01-4.28,1.52-7.03,1.52
			c-1.75,0-3.4-0.24-4.96-0.72c-1.56-0.48-2.93-1.19-4.1-2.14c-1.17-0.94-2.12-2.11-2.83-3.52c-0.71-1.4-1.07-3.02-1.07-4.86v-0.14
			c0-1.98,0.37-3.7,1.1-5.17c0.73-1.47,1.76-2.69,3.07-3.65c1.31-0.97,2.87-1.69,4.69-2.17c1.82-0.48,3.78-0.72,5.9-0.72
			c2.21,0,4.08,0.14,5.62,0.41c1.54,0.28,3.02,0.64,4.45,1.1v-0.9c0-2.53-0.77-4.46-2.31-5.79c-1.54-1.33-3.76-2-6.65-2
			c-2.07,0-3.91,0.21-5.52,0.62c-1.61,0.41-3.24,0.97-4.9,1.65l-2.28-6.69c2.02-0.92,4.09-1.66,6.21-2.21
			c2.11-0.55,4.67-0.83,7.66-0.83c5.42,0,9.45,1.35,12.07,4.03c2.62,2.69,3.93,6.47,3.93,11.34v21.59H390.53z M390.74,479.66
			c-1.06-0.41-2.31-0.76-3.76-1.03c-1.45-0.28-2.98-0.41-4.59-0.41c-2.62,0-4.67,0.51-6.14,1.52c-1.47,1.01-2.21,2.46-2.21,4.35
			v0.14c0,1.75,0.68,3.08,2.03,4c1.36,0.92,3.02,1.38,5,1.38c1.38,0,2.66-0.18,3.83-0.55c1.17-0.37,2.19-0.88,3.07-1.55
			c0.87-0.67,1.55-1.47,2.03-2.41c0.48-0.94,0.72-1.99,0.72-3.14V479.66z"/>
		<path class="st3" d="M434.25,458.69h8.76l-14.9,36.69h-7.52l-14.97-36.69h8.97l9.79,26.76L434.25,458.69z"/>
		<path class="st3" d="M460.25,486.72c1.88,1.59,4.18,2.38,6.9,2.38c2.07,0,3.86-0.37,5.38-1.1c1.52-0.74,3.01-1.82,4.48-3.24
			l4.9,4.35c-1.75,2.07-3.83,3.72-6.24,4.96c-2.41,1.24-5.3,1.86-8.65,1.86c-2.62,0-5.07-0.46-7.34-1.38
			c-2.28-0.92-4.25-2.21-5.93-3.86c-1.68-1.66-3-3.64-3.97-5.97c-0.97-2.32-1.45-4.91-1.45-7.76c0-2.62,0.44-5.08,1.31-7.38
			c0.87-2.3,2.1-4.31,3.69-6.03c1.59-1.72,3.46-3.09,5.62-4.1c2.16-1.01,4.55-1.52,7.17-1.52c2.9,0,5.44,0.53,7.62,1.59
			c2.18,1.06,4,2.48,5.45,4.28c1.45,1.79,2.54,3.89,3.28,6.28c0.73,2.39,1.1,4.9,1.1,7.52c0,0.37-0.01,0.74-0.03,1.1
			c-0.02,0.37-0.06,0.76-0.1,1.17h-26.76C457.17,482.85,458.37,485.14,460.25,486.72z M475.28,474.35c-0.14-1.33-0.44-2.59-0.9-3.76
			c-0.46-1.17-1.08-2.18-1.86-3.03c-0.78-0.85-1.71-1.53-2.79-2.03c-1.08-0.51-2.31-0.76-3.69-0.76c-2.57,0-4.7,0.89-6.38,2.66
			c-1.68,1.77-2.7,4.08-3.07,6.93H475.28z"/>
	</g>
	<g class="st2">
		<path class="st3" d="M250.01,571.45c-0.69,1.43-1.64,2.61-2.86,3.55c-1.22,0.94-2.66,1.65-4.31,2.14
			c-1.66,0.48-3.43,0.72-5.31,0.72c-2.62,0-5.28-0.46-7.97-1.38c-2.69-0.92-5.18-2.28-7.48-4.07l3.72-5.65
			c1.98,1.47,3.99,2.59,6.03,3.34c2.05,0.76,4.01,1.14,5.9,1.14c1.79,0,3.18-0.36,4.17-1.07c0.99-0.71,1.48-1.67,1.48-2.86v-0.14
			c0-0.69-0.22-1.29-0.66-1.79c-0.44-0.5-1.03-0.95-1.79-1.34c-0.76-0.39-1.63-0.74-2.62-1.03c-0.99-0.3-2.01-0.61-3.07-0.93
			c-1.33-0.41-2.68-0.87-4.03-1.38c-1.36-0.51-2.58-1.16-3.66-1.97c-1.08-0.8-1.97-1.79-2.66-2.97c-0.69-1.17-1.03-2.63-1.03-4.38
			v-0.14c0-1.7,0.33-3.24,1-4.62c0.67-1.38,1.59-2.55,2.76-3.52c1.17-0.97,2.55-1.7,4.14-2.21c1.59-0.51,3.28-0.76,5.07-0.76
			c2.3,0,4.62,0.37,6.97,1.1c2.34,0.74,4.48,1.75,6.41,3.03l-3.31,5.93c-1.75-1.06-3.52-1.9-5.31-2.52
			c-1.79-0.62-3.45-0.93-4.97-0.93c-1.61,0-2.86,0.34-3.76,1.03c-0.9,0.69-1.35,1.56-1.35,2.62v0.14c0,0.64,0.23,1.21,0.69,1.69
			c0.46,0.48,1.07,0.92,1.83,1.31c0.76,0.39,1.63,0.76,2.62,1.1c0.99,0.35,2.01,0.68,3.07,1c1.33,0.41,2.67,0.9,4,1.45
			c1.33,0.55,2.54,1.23,3.62,2.03c1.08,0.8,1.97,1.78,2.66,2.93c0.69,1.15,1.03,2.55,1.03,4.21v0.14
			C251.05,568.34,250.7,570.02,250.01,571.45z"/>
		<path class="st3" d="M283.81,577.17v-4.48c-1.24,1.47-2.83,2.71-4.76,3.72c-1.93,1.01-4.28,1.52-7.03,1.52
			c-1.75,0-3.4-0.24-4.97-0.72c-1.56-0.48-2.93-1.2-4.1-2.14c-1.17-0.94-2.11-2.11-2.83-3.52c-0.71-1.4-1.07-3.02-1.07-4.86v-0.14
			c0-1.98,0.37-3.7,1.1-5.17c0.73-1.47,1.76-2.69,3.07-3.65c1.31-0.97,2.87-1.69,4.69-2.17c1.82-0.48,3.78-0.72,5.9-0.72
			c2.21,0,4.08,0.14,5.62,0.41c1.54,0.28,3.02,0.64,4.45,1.1v-0.9c0-2.53-0.77-4.46-2.31-5.79c-1.54-1.33-3.76-2-6.65-2
			c-2.07,0-3.91,0.21-5.52,0.62c-1.61,0.41-3.24,0.97-4.9,1.65l-2.28-6.69c2.02-0.92,4.09-1.66,6.21-2.21
			c2.11-0.55,4.67-0.83,7.66-0.83c5.42,0,9.45,1.35,12.07,4.03c2.62,2.69,3.93,6.47,3.93,11.34v21.59H283.81z M284.01,561.72
			c-1.06-0.41-2.31-0.76-3.76-1.03c-1.45-0.28-2.98-0.41-4.59-0.41c-2.62,0-4.67,0.51-6.14,1.52c-1.47,1.01-2.21,2.46-2.21,4.35
			v0.14c0,1.75,0.68,3.08,2.03,4c1.36,0.92,3.02,1.38,5,1.38c1.38,0,2.66-0.18,3.83-0.55c1.17-0.37,2.19-0.88,3.07-1.55
			c0.87-0.67,1.55-1.47,2.03-2.41c0.48-0.94,0.72-1.99,0.72-3.14V561.72z"/>
		<path class="st3" d="M323.32,541.03v6.9h-9.52v29.24h-8.41v-29.24h-4.62v-6.96h4.62v-2.62c0-4.05,0.97-7.05,2.92-9
			c1.95-1.95,4.72-2.93,8.32-2.93c1.47,0,2.73,0.09,3.79,0.28c1.06,0.18,2.04,0.41,2.97,0.69v7.03c-0.83-0.28-1.62-0.49-2.38-0.66
			c-0.76-0.16-1.6-0.24-2.52-0.24c-3.22,0-4.83,1.84-4.83,5.52v2H323.32z"/>
		<path class="st3" d="M341.12,568.79c1.88,1.59,4.18,2.38,6.9,2.38c2.07,0,3.86-0.37,5.38-1.1c1.52-0.74,3.01-1.82,4.48-3.24
			l4.9,4.35c-1.75,2.07-3.83,3.72-6.24,4.96c-2.41,1.24-5.3,1.86-8.65,1.86c-2.62,0-5.07-0.46-7.34-1.38
			c-2.28-0.92-4.25-2.21-5.93-3.86c-1.68-1.66-3-3.64-3.97-5.97c-0.97-2.32-1.45-4.91-1.45-7.76c0-2.62,0.44-5.08,1.31-7.38
			c0.87-2.3,2.1-4.31,3.69-6.03c1.59-1.72,3.46-3.09,5.62-4.1c2.16-1.01,4.55-1.52,7.17-1.52c2.9,0,5.44,0.53,7.62,1.59
			c2.18,1.06,4,2.48,5.45,4.28c1.45,1.79,2.54,3.89,3.28,6.28c0.73,2.39,1.1,4.9,1.1,7.52c0,0.37-0.01,0.74-0.03,1.1
			c-0.02,0.37-0.06,0.76-0.1,1.17h-26.76C338.04,564.92,339.23,567.21,341.12,568.79z M356.15,556.41c-0.14-1.33-0.44-2.59-0.9-3.76
			c-0.46-1.17-1.08-2.18-1.86-3.03c-0.78-0.85-1.71-1.53-2.79-2.03c-1.08-0.51-2.31-0.76-3.69-0.76c-2.57,0-4.7,0.89-6.38,2.66
			c-1.68,1.77-2.7,4.08-3.07,6.93H356.15z"/>
	</g>
	<path class="st1" d="M345.42,323.65c-35.54,0-58.24-15.45-80.18-30.36c-19.44-13.23-37.8-25.72-64.28-25.72
		c-33.72,0-53.03,20.83-53.22,21.05l-12.15-11.04c0.98-1.09,24.47-26.43,65.38-26.43c31.54,0,52.88,14.53,73.52,28.56
		c20.81,14.15,40.45,27.52,70.94,27.52c60.2,0,92.63-37.67,92.95-38.05l12.56,10.58C449.41,281.56,413.16,323.65,345.42,323.65"/>
	<path class="st1" d="M345.42,235.26c-35.54,0-58.24-15.45-80.18-30.36c-19.44-13.23-37.8-25.72-64.28-25.72
		c-33.38,0-53.06,20.85-53.25,21.06l-12.13-11.07c0.98-1.09,24.47-26.42,65.38-26.42c31.54,0,52.88,14.53,73.52,28.56
		c20.81,14.15,40.45,27.52,70.94,27.52c60.2,0,92.62-37.69,92.95-38.07l12.56,10.59C449.42,193.13,413.18,235.26,345.42,235.26"/>
	<path class="st1" d="M114.4,379.46h357.72V16.43H114.4V379.46z M488.54,395.89H97.97V0h390.57V395.89z"/>
</g>
<g id="oven" class="st0">
	<g class="st2">
		<path class="st3" d="M159.34,484.67c-0.99,2.29-2.33,4.29-4.05,6.01c-1.72,1.72-3.77,3.08-6.15,4.09
			c-2.38,1.01-4.97,1.51-7.76,1.51c-2.75,0-5.3-0.49-7.66-1.48c-2.36-0.99-4.4-2.34-6.11-4.05c-1.72-1.72-3.06-3.71-4.02-5.97
			s-1.44-4.7-1.44-7.31c0-2.61,0.49-5.07,1.48-7.38c0.98-2.31,2.33-4.33,4.05-6.04c1.72-1.72,3.75-3.08,6.11-4.09
			c2.36-1.01,4.93-1.51,7.73-1.51c2.79,0,5.37,0.49,7.73,1.48c2.36,0.99,4.4,2.33,6.11,4.05c1.72,1.72,3.06,3.72,4.02,6.01
			c0.96,2.29,1.44,4.74,1.44,7.35C160.81,479.93,160.32,482.38,159.34,484.67z M151.62,472.92c-0.55-1.42-1.31-2.67-2.29-3.74
			c-0.98-1.07-2.14-1.92-3.48-2.54c-1.34-0.62-2.83-0.93-4.47-0.93c-1.64,0-3.13,0.31-4.47,0.93c-1.34,0.62-2.49,1.45-3.45,2.51
			c-0.96,1.05-1.68,2.28-2.18,3.67c-0.5,1.4-0.75,2.9-0.75,4.5c0,1.6,0.27,3.12,0.82,4.57c0.55,1.44,1.31,2.69,2.29,3.74
			c0.98,1.05,2.14,1.89,3.48,2.51c1.34,0.62,2.81,0.93,4.4,0.93c1.68,0,3.2-0.31,4.54-0.93c1.34-0.62,2.49-1.45,3.45-2.51
			c0.96-1.05,1.68-2.28,2.18-3.67c0.5-1.4,0.75-2.9,0.75-4.5C152.44,475.85,152.16,474.34,151.62,472.92z"/>
		<path class="st3" d="M194.47,459.19h8.72l-14.83,36.54h-7.49l-14.9-36.54h8.93l9.75,26.65L194.47,459.19z"/>
		<path class="st3" d="M220.29,487.1c1.88,1.58,4.17,2.37,6.87,2.37c2.06,0,3.85-0.37,5.36-1.1c1.51-0.73,3-1.81,4.46-3.23
			l4.88,4.33c-1.74,2.06-3.81,3.71-6.22,4.94c-2.4,1.24-5.28,1.85-8.62,1.85c-2.61,0-5.05-0.46-7.31-1.37
			c-2.27-0.92-4.24-2.2-5.91-3.85c-1.67-1.65-2.99-3.63-3.95-5.94c-0.96-2.31-1.44-4.89-1.44-7.73c0-2.61,0.43-5.06,1.3-7.35
			c0.87-2.29,2.09-4.29,3.67-6.01c1.58-1.72,3.44-3.08,5.6-4.09c2.15-1.01,4.53-1.51,7.14-1.51c2.88,0,5.41,0.53,7.59,1.58
			c2.17,1.05,3.98,2.47,5.43,4.26c1.44,1.79,2.53,3.87,3.26,6.25c0.73,2.38,1.1,4.88,1.1,7.49c0,0.37-0.01,0.73-0.03,1.1
			c-0.02,0.37-0.06,0.75-0.1,1.17h-26.65C217.22,483.25,218.41,485.53,220.29,487.1z M235.26,474.78c-0.14-1.33-0.44-2.58-0.89-3.74
			c-0.46-1.17-1.08-2.17-1.85-3.02c-0.78-0.85-1.71-1.52-2.78-2.03c-1.08-0.5-2.3-0.76-3.67-0.76c-2.56,0-4.68,0.88-6.35,2.64
			c-1.67,1.76-2.69,4.06-3.06,6.9H235.26z"/>
		<path class="st3" d="M262.25,495.45h-8.38v-36.26h8.38v5.69c0.59-0.88,1.24-1.7,1.95-2.46c0.71-0.76,1.53-1.44,2.47-2.04
			c0.94-0.6,1.96-1.07,3.08-1.42c1.12-0.35,2.39-0.52,3.8-0.52c4.11,0,7.28,1.26,9.52,3.78c2.24,2.52,3.36,5.91,3.36,10.17v23.08
			h-8.38v-20.56c0-2.83-0.67-5.01-2.01-6.54c-1.34-1.53-3.23-2.3-5.68-2.3c-2.41,0-4.36,0.79-5.85,2.36
			c-1.5,1.58-2.25,3.78-2.25,6.61V495.45z"/>
		<path class="st3" d="M341.91,489.75c-0.69,1.42-1.64,2.6-2.85,3.54c-1.21,0.94-2.64,1.65-4.29,2.13
			c-1.65,0.48-3.41,0.72-5.29,0.72c-2.61,0-5.25-0.46-7.93-1.37c-2.68-0.92-5.16-2.27-7.45-4.05l3.71-5.63
			c1.97,1.47,3.97,2.58,6.01,3.33c2.04,0.76,3.99,1.13,5.87,1.13c1.79,0,3.17-0.35,4.16-1.06c0.98-0.71,1.48-1.66,1.48-2.85v-0.14
			c0-0.69-0.22-1.28-0.65-1.79c-0.44-0.5-1.03-0.95-1.79-1.34c-0.76-0.39-1.63-0.73-2.61-1.03c-0.99-0.3-2-0.61-3.06-0.93
			c-1.33-0.41-2.67-0.87-4.02-1.37c-1.35-0.5-2.57-1.15-3.64-1.96c-1.08-0.8-1.96-1.79-2.64-2.95c-0.69-1.17-1.03-2.62-1.03-4.36
			v-0.14c0-1.69,0.33-3.23,1-4.6c0.66-1.37,1.58-2.54,2.75-3.5c1.17-0.96,2.54-1.69,4.12-2.2c1.58-0.5,3.26-0.76,5.05-0.76
			c2.29,0,4.6,0.37,6.94,1.1c2.34,0.73,4.46,1.74,6.39,3.02l-3.3,5.91c-1.74-1.05-3.5-1.89-5.29-2.51
			c-1.79-0.62-3.43-0.93-4.94-0.93c-1.6,0-2.85,0.34-3.74,1.03c-0.89,0.69-1.34,1.56-1.34,2.61v0.14c0,0.64,0.23,1.2,0.69,1.68
			c0.46,0.48,1.06,0.92,1.82,1.31c0.75,0.39,1.62,0.76,2.61,1.1c0.98,0.34,2,0.68,3.06,1c1.33,0.41,2.65,0.89,3.98,1.44
			c1.33,0.55,2.53,1.23,3.61,2.03c1.07,0.8,1.96,1.78,2.64,2.92c0.69,1.15,1.03,2.54,1.03,4.19v0.14
			C342.94,486.66,342.6,488.33,341.91,489.75z"/>
		<path class="st3" d="M375.57,495.45v-4.46c-1.24,1.47-2.82,2.7-4.74,3.71c-1.92,1.01-4.26,1.51-7.01,1.51
			c-1.74,0-3.39-0.24-4.95-0.72c-1.56-0.48-2.92-1.19-4.09-2.13c-1.17-0.94-2.11-2.11-2.82-3.5c-0.71-1.4-1.06-3.01-1.06-4.84v-0.14
			c0-1.97,0.37-3.68,1.1-5.15c0.73-1.46,1.75-2.68,3.06-3.64c1.3-0.96,2.86-1.68,4.67-2.16c1.81-0.48,3.77-0.72,5.87-0.72
			c2.2,0,4.06,0.14,5.6,0.41c1.53,0.27,3.01,0.64,4.43,1.1v-0.89c0-2.52-0.77-4.44-2.3-5.77c-1.53-1.33-3.74-1.99-6.63-1.99
			c-2.06,0-3.89,0.21-5.49,0.62c-1.6,0.41-3.23,0.96-4.88,1.65l-2.27-6.66c2.01-0.92,4.07-1.65,6.18-2.2
			c2.11-0.55,4.65-0.82,7.62-0.82c5.4,0,9.41,1.34,12.02,4.02c2.61,2.68,3.91,6.44,3.91,11.3v21.5H375.57z M375.77,480.06
			c-1.05-0.41-2.3-0.76-3.74-1.03c-1.44-0.27-2.97-0.41-4.57-0.41c-2.61,0-4.65,0.5-6.11,1.51c-1.47,1.01-2.2,2.45-2.2,4.33v0.14
			c0,1.74,0.67,3.07,2.03,3.98c1.35,0.92,3.01,1.37,4.98,1.37c1.37,0,2.64-0.18,3.81-0.55c1.17-0.37,2.19-0.88,3.06-1.54
			c0.87-0.66,1.54-1.46,2.03-2.4c0.48-0.94,0.72-1.98,0.72-3.12V480.06z"/>
		<path class="st3" d="M414.92,459.46v6.87h-9.48v29.12h-8.38v-29.12h-4.6v-6.94h4.6v-2.61c0-4.03,0.97-7.02,2.91-8.96
			c1.94-1.95,4.7-2.92,8.29-2.92c1.46,0,2.72,0.09,3.78,0.27c1.05,0.18,2.04,0.41,2.95,0.69v7.01c-0.82-0.27-1.61-0.49-2.37-0.65
			c-0.76-0.16-1.59-0.24-2.51-0.24c-3.21,0-4.81,1.83-4.81,5.49v1.99H414.92z"/>
		<path class="st3" d="M432.64,487.1c1.88,1.58,4.17,2.37,6.87,2.37c2.06,0,3.85-0.37,5.36-1.1c1.51-0.73,3-1.81,4.46-3.23
			l4.88,4.33c-1.74,2.06-3.81,3.71-6.22,4.94c-2.4,1.24-5.28,1.85-8.62,1.85c-2.61,0-5.05-0.46-7.31-1.37s-4.24-2.2-5.91-3.85
			c-1.67-1.65-2.99-3.63-3.95-5.94c-0.96-2.31-1.44-4.89-1.44-7.73c0-2.61,0.43-5.06,1.3-7.35c0.87-2.29,2.1-4.29,3.67-6.01
			c1.58-1.72,3.44-3.08,5.6-4.09c2.15-1.01,4.53-1.51,7.14-1.51c2.88,0,5.41,0.53,7.59,1.58c2.17,1.05,3.98,2.47,5.43,4.26
			c1.44,1.79,2.53,3.87,3.26,6.25c0.73,2.38,1.1,4.88,1.1,7.49c0,0.37-0.01,0.73-0.03,1.1c-0.02,0.37-0.06,0.75-0.1,1.17h-26.65
			C429.57,483.25,430.76,485.53,432.64,487.1z M447.61,474.78c-0.14-1.33-0.44-2.58-0.89-3.74c-0.46-1.17-1.08-2.17-1.85-3.02
			c-0.78-0.85-1.71-1.52-2.78-2.03c-1.08-0.5-2.3-0.76-3.67-0.76c-2.57,0-4.68,0.88-6.35,2.64c-1.67,1.76-2.69,4.06-3.06,6.9H447.61
			z"/>
	</g>
	<g class="st2">
		<path class="st3" d="M144.54,565.83c0,1.61,0.39,2.77,1.17,3.48c0.78,0.71,1.88,1.07,3.3,1.07c1.79,0,3.5-0.41,5.15-1.24v6.8
			c-1.05,0.6-2.18,1.05-3.37,1.37c-1.19,0.32-2.56,0.48-4.12,0.48c-1.51,0-2.91-0.18-4.21-0.55c-1.29-0.37-2.41-0.96-3.36-1.79
			c-0.95-0.83-1.67-1.91-2.18-3.27c-0.51-1.35-0.76-3.04-0.76-5.06v-19.14h-4.6v-7.07h4.6v-9.96h8.38v9.96h9.75v7.07h-9.75V565.83z"
			/>
		<path class="st3" d="M198.55,566.39c-0.99,2.29-2.33,4.29-4.05,6.01c-1.72,1.72-3.77,3.08-6.15,4.09
			c-2.38,1.01-4.97,1.51-7.76,1.51c-2.75,0-5.3-0.49-7.66-1.48c-2.36-0.99-4.4-2.34-6.11-4.05c-1.72-1.72-3.06-3.71-4.02-5.97
			c-0.96-2.27-1.44-4.7-1.44-7.31c0-2.61,0.49-5.07,1.48-7.38c0.98-2.31,2.33-4.33,4.05-6.04c1.72-1.72,3.75-3.08,6.11-4.09
			c2.36-1.01,4.93-1.51,7.73-1.51c2.79,0,5.37,0.49,7.73,1.48c2.36,0.99,4.4,2.33,6.11,4.05c1.72,1.72,3.06,3.72,4.02,6.01
			c0.96,2.29,1.44,4.74,1.44,7.35C200.03,561.66,199.54,564.11,198.55,566.39z M190.83,554.65c-0.55-1.42-1.31-2.67-2.29-3.74
			c-0.98-1.07-2.14-1.92-3.48-2.54s-2.83-0.93-4.47-0.93c-1.64,0-3.13,0.31-4.47,0.93c-1.34,0.62-2.49,1.45-3.45,2.51
			c-0.96,1.05-1.68,2.28-2.18,3.67c-0.5,1.4-0.75,2.9-0.75,4.5c0,1.6,0.27,3.12,0.82,4.57c0.55,1.44,1.31,2.69,2.29,3.74
			c0.98,1.05,2.14,1.89,3.48,2.51c1.34,0.62,2.81,0.93,4.4,0.93c1.68,0,3.2-0.31,4.54-0.93s2.49-1.45,3.45-2.51s1.68-2.28,2.18-3.67
			c0.5-1.4,0.75-2.9,0.75-4.5S191.38,556.07,190.83,554.65z"/>
		<path class="st3" d="M239.21,537.82c-1.67,1.19-3.45,3-5.32,5.42l-5.98-4.67c1.14-1.6,2.31-3.04,3.5-4.31
			c1.19-1.27,2.48-2.33,3.88-3.19c1.4-0.85,2.93-1.51,4.6-1.98c1.67-0.46,3.58-0.69,5.73-0.69c2.38,0,4.56,0.34,6.52,1.03
			c1.97,0.69,3.64,1.67,5.01,2.95c1.37,1.28,2.44,2.81,3.19,4.57c0.76,1.76,1.13,3.72,1.13,5.87c0,1.92-0.25,3.64-0.76,5.15
			c-0.5,1.51-1.27,2.98-2.3,4.4c-1.03,1.42-2.34,2.86-3.91,4.33c-1.58,1.47-3.42,3.07-5.53,4.81l-9.89,8.24h22.87v7.42h-34.75v-6.65
			l16.55-14.06c1.65-1.37,3.04-2.62,4.19-3.74c1.14-1.12,2.07-2.18,2.78-3.19c0.71-1.01,1.22-1.99,1.55-2.95
			c0.32-0.96,0.48-1.99,0.48-3.09c0-2.38-0.74-4.22-2.23-5.52c-1.49-1.3-3.33-1.95-5.53-1.95
			C242.81,536.04,240.88,536.63,239.21,537.82z"/>
		<path class="st3" d="M274.06,536.45v-7.35h31.8v6.32l-13.39,13.74c1.83,0.23,3.6,0.65,5.32,1.27c1.72,0.62,3.23,1.46,4.53,2.54
			s2.35,2.41,3.12,4.02c0.78,1.6,1.17,3.53,1.17,5.77s-0.41,4.29-1.24,6.15c-0.82,1.85-1.97,3.46-3.43,4.81
			c-1.47,1.35-3.24,2.4-5.32,3.16c-2.09,0.76-4.36,1.13-6.83,1.13c-4.21,0-7.82-0.79-10.82-2.37c-3-1.58-5.53-3.6-7.59-6.08
			l5.91-5.49c1.74,2.06,3.61,3.63,5.6,4.7c1.99,1.08,4.34,1.61,7.04,1.61c2.38,0,4.36-0.66,5.94-1.99s2.37-3.11,2.37-5.36
			c0-2.43-0.99-4.28-2.95-5.56c-1.97-1.28-4.67-1.92-8.1-1.92h-3.91l-1.37-5.29l12.98-13.8H274.06z"/>
		<path class="st3" d="M357.02,562.79c-1.01,3.04-2.43,5.69-4.26,7.93c-1.83,2.24-4.04,4.02-6.63,5.32
			c-2.59,1.31-5.46,1.96-8.62,1.96c-3.16,0-6.02-0.64-8.58-1.92c-2.57-1.28-4.76-3.04-6.59-5.29c-1.83-2.24-3.24-4.88-4.22-7.9
			c-0.99-3.02-1.48-6.25-1.48-9.68c0-3.43,0.5-6.67,1.51-9.72c1.01-3.04,2.43-5.69,4.26-7.93c1.83-2.24,4.04-4.02,6.63-5.32
			c2.59-1.3,5.46-1.96,8.62-1.96c3.16,0,6.02,0.64,8.59,1.92c2.56,1.28,4.76,3.05,6.59,5.29c1.83,2.24,3.24,4.88,4.22,7.9
			c0.98,3.02,1.48,6.25,1.48,9.68S358.03,559.74,357.02,562.79z M348.95,546.48c-0.57-2.11-1.4-3.94-2.47-5.49
			c-1.08-1.56-2.37-2.79-3.88-3.71c-1.51-0.92-3.21-1.37-5.08-1.37s-3.56,0.45-5.05,1.34c-1.49,0.89-2.76,2.11-3.81,3.64
			c-1.05,1.53-1.87,3.36-2.44,5.46c-0.57,2.11-0.86,4.35-0.86,6.73c0,2.43,0.29,4.68,0.86,6.76c0.57,2.08,1.4,3.91,2.47,5.49
			c1.07,1.58,2.37,2.82,3.88,3.71c1.51,0.89,3.2,1.34,5.08,1.34c1.88,0,3.56-0.45,5.05-1.34c1.49-0.89,2.76-2.12,3.81-3.67
			c1.05-1.56,1.86-3.38,2.44-5.46c0.57-2.08,0.86-4.31,0.86-6.7C349.81,550.83,349.53,548.58,348.95,546.48z"/>
		<path class="st3" d="M391.19,544.11c-0.62,1.35-1.47,2.54-2.54,3.57c-1.08,1.03-2.3,1.84-3.67,2.44c-1.37,0.6-2.82,0.89-4.33,0.89
			c-1.51,0-2.95-0.3-4.33-0.89c-1.37-0.59-2.59-1.41-3.64-2.44c-1.05-1.03-1.89-2.22-2.51-3.57c-0.62-1.35-0.93-2.78-0.93-4.29
			c0-1.51,0.31-2.93,0.93-4.26c0.62-1.33,1.45-2.51,2.51-3.54c1.05-1.03,2.27-1.84,3.64-2.44c1.37-0.59,2.82-0.89,4.33-0.89
			c1.51,0,2.95,0.3,4.33,0.89c1.37,0.6,2.6,1.41,3.67,2.44c1.07,1.03,1.92,2.21,2.54,3.54c0.62,1.33,0.93,2.75,0.93,4.26
			C392.12,541.33,391.81,542.76,391.19,544.11z M386.69,537.31c-0.32-0.8-0.78-1.5-1.37-2.1c-0.6-0.59-1.28-1.07-2.06-1.44
			c-0.78-0.37-1.65-0.55-2.61-0.55c-0.92,0-1.78,0.18-2.58,0.55c-0.8,0.37-1.49,0.85-2.06,1.44c-0.57,0.6-1.02,1.29-1.34,2.1
			c-0.32,0.8-0.48,1.64-0.48,2.51c0,0.92,0.16,1.77,0.48,2.58c0.32,0.8,0.77,1.5,1.34,2.09c0.57,0.6,1.26,1.08,2.06,1.44
			c0.8,0.37,1.66,0.55,2.58,0.55c0.96,0,1.83-0.18,2.61-0.55c0.78-0.37,1.46-0.85,2.06-1.44c0.6-0.59,1.05-1.29,1.37-2.09
			c0.32-0.8,0.48-1.66,0.48-2.58C387.17,538.95,387.01,538.11,386.69,537.31z"/>
		<path class="st3" d="M442.56,573.02c-1.35,1.03-2.8,1.92-4.36,2.68c-1.56,0.75-3.26,1.33-5.12,1.72c-1.85,0.39-3.9,0.58-6.15,0.58
			c-3.53,0-6.78-0.64-9.75-1.92c-2.98-1.28-5.55-3.03-7.73-5.25c-2.18-2.22-3.88-4.84-5.12-7.86c-1.24-3.02-1.85-6.27-1.85-9.75
			c0-3.43,0.61-6.66,1.82-9.68c1.21-3.02,2.92-5.67,5.12-7.93c2.2-2.27,4.81-4.05,7.83-5.36c3.02-1.3,6.36-1.96,10.03-1.96
			c2.2,0,4.2,0.18,6.01,0.55c1.81,0.37,3.47,0.88,4.98,1.55c1.51,0.66,2.91,1.45,4.19,2.37c1.28,0.92,2.5,1.92,3.64,3.02l-5.43,6.25
			c-1.92-1.79-3.96-3.23-6.11-4.33c-2.15-1.1-4.6-1.65-7.35-1.65c-2.29,0-4.41,0.45-6.35,1.34c-1.95,0.89-3.63,2.11-5.05,3.64
			c-1.42,1.53-2.52,3.33-3.3,5.39c-0.78,2.06-1.17,4.28-1.17,6.66c0,2.38,0.39,4.61,1.17,6.7c0.78,2.08,1.88,3.9,3.3,5.46
			c1.42,1.56,3.1,2.78,5.05,3.67c1.95,0.89,4.06,1.34,6.35,1.34c2.93,0,5.45-0.56,7.55-1.68c2.11-1.12,4.19-2.64,6.25-4.57
			l5.43,5.49C445.21,570.81,443.91,571.99,442.56,573.02z"/>
	</g>
	<path class="st1" d="M109.19,376.8H468.8V17.18H109.19V376.8z M485.98,393.97H92.02V0h393.95V393.97z"/>
	<rect x="125.68" y="320.95" class="st1" width="326.65" height="17.17"/>
	<rect x="125.68" y="61.79" class="st1" width="326.65" height="17.17"/>
</g>
<g id="freezer" class="st0">
	<g class="st2">
		<g>
			<path class="st3" d="M92.27,452.38v7.28H82.22v30.86h-8.88v-30.86h-4.88v-7.35h4.88v-2.77c0-4.27,1.03-7.44,3.08-9.5
				c2.05-2.06,4.98-3.09,8.78-3.09c1.55,0,2.89,0.1,4,0.29c1.12,0.19,2.16,0.44,3.13,0.73v7.42c-0.87-0.29-1.71-0.52-2.51-0.69
				c-0.8-0.17-1.69-0.26-2.66-0.26c-3.4,0-5.09,1.94-5.09,5.82v2.11H92.27z"/>
			<path class="st3" d="M109.66,490.51h-8.88v-38.43h8.88v8.66c1.21-2.91,2.94-5.24,5.17-6.99c2.23-1.75,5.05-2.55,8.44-2.4v9.32
				h-0.51c-1.94,0-3.71,0.32-5.31,0.95c-1.6,0.63-2.98,1.58-4.15,2.84c-1.16,1.26-2.06,2.85-2.69,4.77
				c-0.63,1.92-0.95,4.14-0.95,6.66V490.51z"/>
			<path class="st3" d="M142.78,481.67c1.99,1.67,4.41,2.51,7.28,2.51c2.18,0,4.08-0.39,5.68-1.16c1.6-0.78,3.18-1.92,4.73-3.42
				l5.17,4.59c-1.84,2.18-4.04,3.93-6.59,5.24c-2.55,1.31-5.59,1.96-9.13,1.96c-2.77,0-5.35-0.48-7.75-1.45
				c-2.4-0.97-4.49-2.33-6.26-4.08c-1.77-1.75-3.17-3.85-4.19-6.3c-1.02-2.45-1.53-5.18-1.53-8.19c0-2.77,0.46-5.36,1.38-7.79
				c0.92-2.43,2.22-4.55,3.89-6.37c1.67-1.82,3.65-3.26,5.93-4.33c2.28-1.07,4.8-1.6,7.57-1.6c3.06,0,5.74,0.56,8.04,1.67
				c2.3,1.12,4.22,2.62,5.75,4.51c1.53,1.89,2.68,4.1,3.46,6.62c0.78,2.52,1.16,5.17,1.16,7.93c0,0.39-0.01,0.78-0.04,1.16
				c-0.03,0.39-0.06,0.8-0.11,1.24h-28.24C139.53,477.58,140.79,480,142.78,481.67z M158.65,468.61c-0.15-1.41-0.46-2.73-0.95-3.97
				c-0.49-1.24-1.14-2.3-1.97-3.2c-0.83-0.9-1.81-1.61-2.95-2.15c-1.14-0.53-2.44-0.8-3.89-0.8c-2.72,0-4.96,0.94-6.73,2.8
				c-1.77,1.87-2.85,4.31-3.24,7.32H158.65z"/>
			<path class="st3" d="M188.7,481.67c1.99,1.67,4.41,2.51,7.28,2.51c2.18,0,4.08-0.39,5.68-1.16c1.6-0.78,3.18-1.92,4.73-3.42
				l5.17,4.59c-1.84,2.18-4.04,3.93-6.59,5.24c-2.55,1.31-5.59,1.96-9.13,1.96c-2.77,0-5.35-0.48-7.75-1.45
				c-2.4-0.97-4.49-2.33-6.26-4.08c-1.77-1.75-3.17-3.85-4.19-6.3c-1.02-2.45-1.53-5.18-1.53-8.19c0-2.77,0.46-5.36,1.38-7.79
				c0.92-2.43,2.22-4.55,3.89-6.37c1.67-1.82,3.65-3.26,5.93-4.33c2.28-1.07,4.8-1.6,7.57-1.6c3.06,0,5.74,0.56,8.04,1.67
				c2.3,1.12,4.22,2.62,5.75,4.51c1.53,1.89,2.68,4.1,3.46,6.62c0.78,2.52,1.16,5.17,1.16,7.93c0,0.39-0.01,0.78-0.04,1.16
				c-0.03,0.39-0.06,0.8-0.11,1.24h-28.24C185.45,477.58,186.71,480,188.7,481.67z M204.57,468.61c-0.15-1.41-0.46-2.73-0.95-3.97
				c-0.49-1.24-1.14-2.3-1.97-3.2c-0.83-0.9-1.81-1.61-2.95-2.15c-1.14-0.53-2.44-0.8-3.89-0.8c-2.72,0-4.96,0.94-6.73,2.8
				c-1.77,1.87-2.85,4.31-3.24,7.32H204.57z"/>
			<path class="st3" d="M222.26,459.29v-7.21h32.61v6.04l-22.2,25.18h22.2v7.21h-33.41v-6.04l22.2-25.18H222.26z"/>
			<path class="st3" d="M274.95,481.67c1.99,1.67,4.42,2.51,7.28,2.51c2.18,0,4.08-0.39,5.68-1.16c1.6-0.78,3.18-1.92,4.73-3.42
				l5.17,4.59c-1.85,2.18-4.04,3.93-6.59,5.24c-2.55,1.31-5.59,1.96-9.13,1.96c-2.77,0-5.35-0.48-7.75-1.45
				c-2.4-0.97-4.49-2.33-6.26-4.08c-1.77-1.75-3.17-3.85-4.19-6.3c-1.02-2.45-1.53-5.18-1.53-8.19c0-2.77,0.46-5.36,1.38-7.79
				c0.92-2.43,2.22-4.55,3.89-6.37c1.67-1.82,3.65-3.26,5.93-4.33c2.28-1.07,4.8-1.6,7.57-1.6c3.06,0,5.74,0.56,8.04,1.67
				c2.3,1.12,4.22,2.62,5.75,4.51c1.53,1.89,2.68,4.1,3.46,6.62c0.78,2.52,1.16,5.17,1.16,7.93c0,0.39-0.01,0.78-0.04,1.16
				c-0.03,0.39-0.06,0.8-0.11,1.24h-28.24C271.7,477.58,272.96,480,274.95,481.67z M290.82,468.61c-0.15-1.41-0.46-2.73-0.95-3.97
				c-0.49-1.24-1.14-2.3-1.97-3.2c-0.83-0.9-1.81-1.61-2.95-2.15c-1.14-0.53-2.44-0.8-3.89-0.8c-2.72,0-4.96,0.94-6.73,2.8
				c-1.77,1.87-2.85,4.31-3.24,7.32H290.82z"/>
			<path class="st3" d="M319.42,490.51h-8.88v-38.43h8.88v8.66c1.21-2.91,2.94-5.24,5.17-6.99c2.23-1.75,5.05-2.55,8.44-2.4v9.32
				h-0.51c-1.94,0-3.71,0.32-5.31,0.95c-1.6,0.63-2.98,1.58-4.15,2.84c-1.16,1.26-2.06,2.85-2.69,4.77
				c-0.63,1.92-0.95,4.14-0.95,6.66V490.51z"/>
			<path class="st3" d="M388.79,484.47c-0.73,1.5-1.74,2.76-3.02,3.75c-1.29,1-2.8,1.75-4.55,2.26c-1.75,0.51-3.62,0.76-5.6,0.76
				c-2.77,0-5.57-0.49-8.41-1.45c-2.84-0.97-5.47-2.4-7.9-4.29l3.93-5.97c2.09,1.55,4.21,2.73,6.37,3.53c2.16,0.8,4.23,1.2,6.22,1.2
				c1.89,0,3.36-0.38,4.4-1.13c1.04-0.75,1.56-1.76,1.56-3.02v-0.15c0-0.73-0.23-1.36-0.69-1.89c-0.46-0.53-1.09-1.01-1.89-1.42
				c-0.8-0.41-1.72-0.77-2.77-1.09c-1.04-0.32-2.12-0.64-3.24-0.98c-1.41-0.44-2.83-0.92-4.26-1.46c-1.43-0.53-2.72-1.23-3.86-2.07
				c-1.14-0.85-2.07-1.89-2.8-3.13c-0.73-1.24-1.09-2.78-1.09-4.62v-0.15c0-1.79,0.35-3.42,1.06-4.88c0.7-1.45,1.67-2.69,2.91-3.71
				c1.24-1.02,2.69-1.79,4.37-2.33c1.67-0.53,3.46-0.8,5.35-0.8c2.43,0,4.88,0.39,7.35,1.17c2.48,0.78,4.73,1.84,6.77,3.2
				l-3.49,6.26c-1.85-1.12-3.71-2-5.6-2.66c-1.89-0.65-3.64-0.98-5.24-0.98c-1.7,0-3.02,0.36-3.97,1.09
				c-0.95,0.73-1.42,1.65-1.42,2.77v0.15c0,0.68,0.24,1.27,0.73,1.78c0.48,0.51,1.13,0.97,1.93,1.38c0.8,0.41,1.72,0.8,2.77,1.17
				c1.04,0.36,2.12,0.72,3.24,1.06c1.41,0.44,2.81,0.95,4.22,1.53c1.41,0.58,2.68,1.3,3.82,2.15c1.14,0.85,2.07,1.88,2.8,3.09
				c0.73,1.21,1.09,2.69,1.09,4.44v0.15C389.88,481.2,389.51,482.97,388.79,484.47z"/>
			<path class="st3" d="M424.45,490.51v-4.73c-1.31,1.55-2.98,2.86-5.02,3.93c-2.04,1.07-4.51,1.6-7.42,1.6
				c-1.85,0-3.59-0.25-5.24-0.76c-1.65-0.51-3.09-1.26-4.33-2.26c-1.24-0.99-2.23-2.23-2.98-3.71c-0.75-1.48-1.13-3.19-1.13-5.13
				v-0.15c0-2.09,0.39-3.91,1.17-5.46c0.77-1.55,1.86-2.84,3.24-3.86c1.38-1.02,3.03-1.78,4.95-2.29c1.92-0.51,3.99-0.76,6.22-0.76
				c2.33,0,4.31,0.15,5.93,0.44c1.62,0.29,3.19,0.68,4.69,1.16v-0.95c0-2.67-0.81-4.71-2.44-6.11c-1.63-1.41-3.97-2.11-7.02-2.11
				c-2.18,0-4.12,0.22-5.82,0.65c-1.7,0.44-3.42,1.02-5.17,1.75l-2.4-7.06c2.13-0.97,4.32-1.75,6.55-2.33
				c2.23-0.58,4.92-0.87,8.08-0.87c5.73,0,9.97,1.42,12.74,4.26c2.77,2.84,4.15,6.83,4.15,11.97v22.78H424.45z M424.67,474.21
				c-1.12-0.44-2.44-0.8-3.97-1.09c-1.53-0.29-3.14-0.44-4.84-0.44c-2.77,0-4.92,0.53-6.48,1.6c-1.55,1.07-2.33,2.6-2.33,4.59v0.15
				c0,1.84,0.72,3.25,2.15,4.22c1.43,0.97,3.19,1.45,5.28,1.45c1.45,0,2.8-0.19,4.04-0.58c1.24-0.39,2.32-0.93,3.24-1.64
				c0.92-0.7,1.64-1.55,2.15-2.55c0.51-0.99,0.76-2.1,0.76-3.31V474.21z"/>
			<path class="st3" d="M466.15,452.38v7.28h-10.04v30.86h-8.88v-30.86h-4.88v-7.35h4.88v-2.77c0-4.27,1.03-7.44,3.08-9.5
				c2.05-2.06,4.98-3.09,8.78-3.09c1.55,0,2.89,0.1,4,0.29c1.12,0.19,2.16,0.44,3.13,0.73v7.42c-0.87-0.29-1.71-0.52-2.51-0.69
				c-0.8-0.17-1.69-0.26-2.66-0.26c-3.4,0-5.1,1.94-5.1,5.82v2.11H466.15z"/>
			<path class="st3" d="M484.93,481.67c1.99,1.67,4.42,2.51,7.28,2.51c2.18,0,4.08-0.39,5.68-1.16c1.6-0.78,3.18-1.92,4.73-3.42
				l5.17,4.59c-1.85,2.18-4.04,3.93-6.59,5.24c-2.55,1.31-5.59,1.96-9.13,1.96c-2.77,0-5.35-0.48-7.75-1.45
				c-2.4-0.97-4.49-2.33-6.26-4.08c-1.77-1.75-3.17-3.85-4.19-6.3c-1.02-2.45-1.53-5.18-1.53-8.19c0-2.77,0.46-5.36,1.38-7.79
				c0.92-2.43,2.22-4.55,3.89-6.37c1.67-1.82,3.65-3.26,5.93-4.33c2.28-1.07,4.8-1.6,7.57-1.6c3.06,0,5.74,0.56,8.04,1.67
				c2.3,1.12,4.22,2.62,5.75,4.51s2.68,4.1,3.46,6.62c0.78,2.52,1.16,5.17,1.16,7.93c0,0.39-0.01,0.78-0.04,1.16
				c-0.03,0.39-0.06,0.8-0.11,1.24h-28.24C481.68,477.58,482.94,480,484.93,481.67z M500.8,468.61c-0.15-1.41-0.46-2.73-0.95-3.97
				c-0.49-1.24-1.14-2.3-1.97-3.2c-0.83-0.9-1.81-1.61-2.95-2.15c-1.14-0.53-2.44-0.8-3.89-0.8c-2.72,0-4.96,0.94-6.73,2.8
				c-1.77,1.87-2.85,4.31-3.24,7.32H500.8z"/>
		</g>
		<g>
			<path class="st3" d="M140.6,565.1c0,1.7,0.41,2.93,1.24,3.69c0.82,0.76,1.99,1.13,3.49,1.13c1.89,0,3.71-0.44,5.46-1.31v7.21
				c-1.12,0.63-2.31,1.12-3.57,1.46c-1.26,0.34-2.72,0.51-4.37,0.51c-1.6,0-3.09-0.19-4.46-0.58c-1.37-0.39-2.56-1.02-3.56-1.9
				c-1-0.88-1.77-2.03-2.31-3.47c-0.54-1.43-0.81-3.22-0.81-5.36v-20.28h-4.88v-7.5h4.88v-10.55h8.88v10.55h10.34v7.5H140.6V565.1z"
				/>
			<path class="st3" d="M197.84,565.7c-1.04,2.43-2.47,4.55-4.29,6.37c-1.82,1.82-3.99,3.26-6.51,4.33c-2.52,1.07-5.27,1.6-8.22,1.6
				c-2.91,0-5.62-0.52-8.12-1.56c-2.5-1.04-4.66-2.47-6.48-4.29c-1.82-1.82-3.24-3.93-4.26-6.33c-1.02-2.4-1.53-4.98-1.53-7.75
				c0-2.77,0.52-5.37,1.57-7.82c1.04-2.45,2.47-4.59,4.29-6.41c1.82-1.82,3.98-3.26,6.48-4.33c2.5-1.07,5.23-1.6,8.19-1.6
				c2.96,0,5.69,0.52,8.19,1.56c2.5,1.04,4.66,2.48,6.48,4.29c1.82,1.82,3.24,3.94,4.26,6.37c1.02,2.43,1.53,5.02,1.53,7.79
				C199.41,560.68,198.89,563.27,197.84,565.7z M189.66,553.25c-0.58-1.5-1.39-2.83-2.42-3.97c-1.04-1.14-2.27-2.04-3.69-2.69
				c-1.42-0.66-3-0.98-4.74-0.98c-1.74,0-3.32,0.33-4.74,0.98c-1.42,0.65-2.64,1.54-3.65,2.66c-1.01,1.12-1.78,2.41-2.31,3.89
				c-0.53,1.48-0.79,3.07-0.79,4.77c0,1.7,0.29,3.31,0.87,4.84c0.58,1.53,1.39,2.85,2.42,3.97c1.04,1.12,2.27,2,3.69,2.66
				c1.42,0.65,2.98,0.98,4.67,0.98c1.78,0,3.39-0.33,4.81-0.98s2.64-1.54,3.65-2.66c1.01-1.12,1.78-2.41,2.31-3.89
				c0.53-1.48,0.8-3.07,0.8-4.77C190.53,556.36,190.24,554.76,189.66,553.25z"/>
			<path class="st3" d="M228.74,559.15v-8.66h21.54v8.66H228.74z"/>
			<path class="st3" d="M296.65,525.81v32.53h7.28v7.35h-7.28v11.43h-8.59V565.7h-25.69l-1.67-6.41l28.31-33.48H296.65z
				 M288.06,538.19l-16.74,20.16h16.74V538.19z"/>
			<path class="st3" d="M356.69,561.88c-1.07,3.23-2.57,6.03-4.51,8.41c-1.94,2.38-4.28,4.26-7.02,5.64
				c-2.74,1.38-5.79,2.07-9.13,2.07c-3.35,0-6.38-0.68-9.1-2.04c-2.72-1.36-5.05-3.23-6.99-5.6c-1.94-2.38-3.43-5.17-4.48-8.37
				c-1.04-3.2-1.56-6.62-1.56-10.26c0-3.64,0.53-7.07,1.6-10.3c1.07-3.23,2.57-6.03,4.51-8.41c1.94-2.38,4.28-4.26,7.02-5.64
				c2.74-1.38,5.79-2.07,9.13-2.07c3.35,0,6.38,0.68,9.1,2.04c2.72,1.36,5.05,3.23,6.99,5.6c1.94,2.38,3.43,5.17,4.48,8.37
				c1.04,3.2,1.56,6.62,1.56,10.26C358.3,555.22,357.76,558.65,356.69,561.88z M348.14,544.59c-0.61-2.23-1.48-4.17-2.62-5.82
				c-1.14-1.65-2.51-2.96-4.11-3.93c-1.6-0.97-3.4-1.46-5.39-1.46c-1.99,0-3.77,0.47-5.35,1.42c-1.58,0.95-2.92,2.23-4.04,3.86
				c-1.12,1.63-1.98,3.56-2.58,5.79c-0.61,2.23-0.91,4.61-0.91,7.13c0,2.57,0.3,4.96,0.91,7.17c0.61,2.21,1.48,4.15,2.62,5.82
				c1.14,1.67,2.51,2.98,4.11,3.93c1.6,0.95,3.39,1.42,5.39,1.42c1.99,0,3.77-0.47,5.35-1.42c1.58-0.95,2.92-2.24,4.04-3.89
				c1.12-1.65,1.98-3.58,2.58-5.79c0.61-2.21,0.91-4.57,0.91-7.1C349.05,549.2,348.75,546.83,348.14,544.59z"/>
			<path class="st3" d="M392.9,542.08c-0.65,1.43-1.55,2.69-2.69,3.78c-1.14,1.09-2.44,1.95-3.89,2.58
				c-1.46,0.63-2.98,0.95-4.59,0.95c-1.6,0-3.13-0.31-4.59-0.95c-1.46-0.63-2.74-1.49-3.86-2.58c-1.12-1.09-2-2.35-2.66-3.78
				c-0.65-1.43-0.98-2.95-0.98-4.55c0-1.6,0.33-3.11,0.98-4.51c0.66-1.41,1.54-2.66,2.66-3.75c1.12-1.09,2.4-1.95,3.86-2.58
				c1.45-0.63,2.98-0.95,4.59-0.95c1.6,0,3.13,0.32,4.59,0.95c1.45,0.63,2.75,1.49,3.89,2.58c1.14,1.09,2.04,2.34,2.69,3.75
				c0.66,1.41,0.98,2.91,0.98,4.51C393.89,539.13,393.56,540.65,392.9,542.08z M388.14,534.88c-0.34-0.85-0.83-1.59-1.46-2.22
				c-0.63-0.63-1.36-1.14-2.18-1.53c-0.83-0.39-1.75-0.58-2.77-0.58c-0.97,0-1.88,0.19-2.73,0.58c-0.85,0.39-1.58,0.9-2.18,1.53
				c-0.61,0.63-1.08,1.37-1.42,2.22c-0.34,0.85-0.51,1.74-0.51,2.66c0,0.97,0.17,1.88,0.51,2.73c0.34,0.85,0.81,1.59,1.42,2.22
				c0.61,0.63,1.33,1.14,2.18,1.53c0.85,0.39,1.76,0.58,2.73,0.58c1.02,0,1.94-0.19,2.77-0.58c0.82-0.39,1.55-0.9,2.18-1.53
				c0.63-0.63,1.12-1.37,1.46-2.22c0.34-0.85,0.51-1.76,0.51-2.73C388.65,536.61,388.48,535.73,388.14,534.88z"/>
			<path class="st3" d="M447.35,572.72c-1.43,1.09-2.97,2.04-4.62,2.84c-1.65,0.8-3.46,1.41-5.42,1.82
				c-1.97,0.41-4.14,0.62-6.51,0.62c-3.74,0-7.18-0.68-10.34-2.04c-3.15-1.36-5.88-3.21-8.19-5.57c-2.31-2.35-4.11-5.13-5.42-8.33
				c-1.31-3.2-1.97-6.65-1.97-10.34c0-3.64,0.64-7.06,1.93-10.26c1.29-3.2,3.09-6,5.42-8.41c2.33-2.4,5.1-4.29,8.3-5.68
				c3.2-1.38,6.74-2.07,10.63-2.07c2.33,0,4.45,0.19,6.37,0.58c1.92,0.39,3.68,0.93,5.28,1.64c1.6,0.7,3.08,1.54,4.44,2.51
				c1.36,0.97,2.64,2.04,3.86,3.2l-5.75,6.62c-2.04-1.89-4.2-3.42-6.48-4.59c-2.28-1.16-4.88-1.75-7.79-1.75
				c-2.43,0-4.67,0.47-6.73,1.42c-2.06,0.95-3.85,2.23-5.35,3.86c-1.5,1.63-2.67,3.53-3.49,5.71c-0.83,2.18-1.24,4.54-1.24,7.06
				c0,2.52,0.41,4.89,1.24,7.1c0.82,2.21,1.99,4.14,3.49,5.79c1.5,1.65,3.29,2.95,5.35,3.89c2.06,0.95,4.31,1.42,6.73,1.42
				c3.11,0,5.77-0.59,8.01-1.78c2.23-1.19,4.44-2.8,6.62-4.84l5.75,5.82C450.15,570.38,448.78,571.63,447.35,572.72z"/>
		</g>
	</g>
	<g class="st2">
		<polygon class="st3" points="296.16,409.65 279.16,409.65 279.16,336.63 235.67,380.08 223.65,368.05 279.16,312.61 
			279.16,219.32 196.36,267.57 176.02,344.8 159.58,340.47 175.6,279.68 115.1,314.93 106.55,300.24 169.65,263.47 110.2,247.84 
			114.52,231.4 190.44,251.35 271.06,204.37 190.27,157.1 112.93,177.28 108.64,160.83 169.51,144.95 109.1,109.6 117.69,94.93 
			180.76,131.83 165.21,72.4 181.66,68.1 201.5,143.97 279.16,189.41 279.16,102.12 223.65,46.67 235.67,34.65 279.16,78.09 
			279.16,0 296.16,0 296.16,75.04 340.66,30.58 352.67,42.6 296.16,99.07 296.16,189.74 372.42,145.29 392.4,69.45 408.84,73.79 
			393.19,133.19 460.71,93.84 469.27,108.52 404.41,146.33 465.25,162.32 460.93,178.77 383.63,158.44 304.77,204.4 383.31,250.35 
			459.26,230.53 463.55,246.97 404.07,262.5 471.5,301.96 462.92,316.64 398.1,278.7 414,339.53 397.55,343.83 377.35,266.57 
			296.16,219.06 296.16,315.65 352.67,372.12 340.66,384.15 296.16,339.69 		"/>
	</g>
</g>
<g id="dish" class="st0">
	<g class="st2">
		<g>
			<path class="st3" d="M118.85,495.45v-6.04c-1.33,1.88-2.98,3.48-4.97,4.81c-1.99,1.33-4.44,1.99-7.36,1.99
				c-2.15,0-4.23-0.41-6.24-1.24c-2.01-0.82-3.79-2.05-5.34-3.67c-1.55-1.62-2.81-3.61-3.77-5.94c-0.96-2.33-1.44-5.01-1.44-8.04
				c0-3.02,0.47-5.7,1.41-8.03c0.94-2.34,2.18-4.32,3.73-5.94c1.55-1.62,3.35-2.85,5.38-3.67c2.03-0.82,4.12-1.24,6.27-1.24
				c2.97,0,5.44,0.64,7.4,1.92c1.96,1.28,3.61,2.77,4.93,4.46v-19.51h8.38v50.14H118.85z M118.13,472.51
				c-0.57-1.42-1.34-2.64-2.29-3.67s-2.08-1.82-3.35-2.37c-1.28-0.55-2.6-0.82-3.97-0.82c-1.41,0-2.75,0.26-4,0.79
				c-1.26,0.53-2.36,1.3-3.32,2.3c-0.96,1.01-1.71,2.23-2.26,3.67c-0.55,1.44-0.82,3.08-0.82,4.91c0,1.79,0.27,3.4,0.82,4.84
				c0.55,1.44,1.3,2.67,2.26,3.67c0.96,1.01,2.06,1.79,3.32,2.33c1.25,0.55,2.59,0.82,4,0.82c1.37,0,2.69-0.27,3.97-0.82
				c1.28-0.55,2.4-1.34,3.35-2.37c0.96-1.03,1.72-2.25,2.29-3.68c0.57-1.42,0.86-3.02,0.86-4.81
				C118.99,475.53,118.7,473.93,118.13,472.51z"/>
			<path class="st3" d="M139.52,453.62v-7.9h9v7.9H139.52z M139.87,495.45v-36.26h8.38v36.26H139.87z"/>
			<path class="st3" d="M185.54,489.75c-0.69,1.42-1.64,2.6-2.85,3.54c-1.21,0.94-2.64,1.65-4.29,2.13
				c-1.65,0.48-3.41,0.72-5.29,0.72c-2.61,0-5.25-0.46-7.93-1.37c-2.68-0.92-5.16-2.27-7.45-4.05l3.71-5.63
				c1.97,1.47,3.97,2.58,6.01,3.33c2.04,0.76,3.99,1.13,5.87,1.13c1.79,0,3.17-0.35,4.16-1.06c0.98-0.71,1.48-1.66,1.48-2.85v-0.14
				c0-0.69-0.22-1.28-0.65-1.79c-0.44-0.5-1.03-0.95-1.79-1.34c-0.76-0.39-1.63-0.73-2.61-1.03c-0.99-0.3-2-0.61-3.06-0.93
				c-1.33-0.41-2.67-0.87-4.02-1.37c-1.35-0.5-2.56-1.15-3.64-1.96c-1.08-0.8-1.96-1.79-2.64-2.95c-0.69-1.17-1.03-2.62-1.03-4.36
				v-0.14c0-1.69,0.33-3.23,1-4.6c0.66-1.37,1.58-2.54,2.75-3.5c1.17-0.96,2.54-1.69,4.12-2.2c1.58-0.5,3.26-0.76,5.05-0.76
				c2.29,0,4.6,0.37,6.94,1.1c2.33,0.73,4.46,1.74,6.39,3.02l-3.3,5.91c-1.74-1.05-3.5-1.89-5.29-2.51
				c-1.79-0.62-3.43-0.93-4.94-0.93c-1.6,0-2.85,0.34-3.74,1.03c-0.89,0.69-1.34,1.56-1.34,2.61v0.14c0,0.64,0.23,1.2,0.69,1.68
				c0.46,0.48,1.06,0.92,1.82,1.31c0.76,0.39,1.62,0.76,2.61,1.1c0.98,0.34,2,0.68,3.06,1c1.33,0.41,2.65,0.89,3.98,1.44
				c1.33,0.55,2.53,1.23,3.61,2.03c1.08,0.8,1.96,1.78,2.64,2.92c0.69,1.15,1.03,2.54,1.03,4.19v0.14
				C186.57,486.65,186.22,488.33,185.54,489.75z"/>
			<path class="st3" d="M205.32,495.45h-8.38v-50.14h8.38v19.56c0.59-0.88,1.24-1.7,1.95-2.46c0.71-0.76,1.53-1.44,2.47-2.04
				c0.94-0.6,1.96-1.07,3.08-1.42c1.12-0.35,2.39-0.52,3.8-0.52c4.11,0,7.28,1.26,9.52,3.78c2.24,2.52,3.36,5.91,3.36,10.17v23.08
				h-8.38v-20.56c0-2.83-0.67-5.01-2.01-6.54c-1.34-1.53-3.23-2.3-5.68-2.3c-2.41,0-4.36,0.79-5.85,2.36
				c-1.5,1.58-2.25,3.78-2.25,6.61V495.45z"/>
			<path class="st3" d="M276.4,484.04l7.42-24.86h8.31l-11.88,36.54h-7.42l-8.1-24.79l-8.17,24.79h-7.42l-11.74-36.54h8.52
				l7.28,24.86l8.04-25h7.07L276.4,484.04z"/>
			<path class="st3" d="M322.62,495.45v-4.46c-1.24,1.47-2.82,2.7-4.74,3.71c-1.92,1.01-4.26,1.51-7.01,1.51
				c-1.74,0-3.39-0.24-4.95-0.72c-1.56-0.48-2.92-1.19-4.09-2.13c-1.17-0.94-2.11-2.11-2.82-3.5c-0.71-1.4-1.06-3.01-1.06-4.84
				v-0.14c0-1.97,0.37-3.68,1.1-5.15c0.73-1.46,1.75-2.68,3.06-3.64c1.3-0.96,2.86-1.68,4.67-2.16c1.81-0.48,3.77-0.72,5.87-0.72
				c2.2,0,4.06,0.14,5.6,0.41c1.53,0.27,3.01,0.64,4.43,1.1v-0.89c0-2.52-0.77-4.44-2.3-5.77c-1.53-1.33-3.74-1.99-6.63-1.99
				c-2.06,0-3.89,0.21-5.49,0.62c-1.6,0.41-3.23,0.96-4.88,1.65l-2.27-6.66c2.01-0.92,4.07-1.65,6.18-2.2
				c2.11-0.55,4.65-0.82,7.62-0.82c5.4,0,9.41,1.34,12.02,4.02c2.61,2.68,3.91,6.44,3.91,11.3v21.5H322.62z M322.83,480.06
				c-1.05-0.41-2.3-0.76-3.74-1.03c-1.44-0.27-2.97-0.41-4.57-0.41c-2.61,0-4.65,0.5-6.11,1.51c-1.47,1.01-2.2,2.45-2.2,4.33v0.14
				c0,1.74,0.67,3.07,2.03,3.98c1.35,0.92,3.01,1.37,4.98,1.37c1.37,0,2.64-0.18,3.81-0.55c1.17-0.37,2.19-0.88,3.06-1.54
				c0.87-0.66,1.54-1.46,2.03-2.4c0.48-0.94,0.72-1.98,0.72-3.12V480.06z"/>
			<path class="st3" d="M367.6,489.75c-0.69,1.42-1.64,2.6-2.85,3.54c-1.21,0.94-2.64,1.65-4.29,2.13
				c-1.65,0.48-3.41,0.72-5.29,0.72c-2.61,0-5.25-0.46-7.93-1.37c-2.68-0.92-5.16-2.27-7.45-4.05l3.71-5.63
				c1.97,1.47,3.97,2.58,6.01,3.33c2.04,0.76,3.99,1.13,5.87,1.13c1.79,0,3.17-0.35,4.16-1.06c0.98-0.71,1.48-1.66,1.48-2.85v-0.14
				c0-0.69-0.22-1.28-0.65-1.79c-0.44-0.5-1.03-0.95-1.79-1.34c-0.76-0.39-1.63-0.73-2.61-1.03c-0.99-0.3-2-0.61-3.06-0.93
				c-1.33-0.41-2.67-0.87-4.02-1.37c-1.35-0.5-2.57-1.15-3.64-1.96c-1.08-0.8-1.96-1.79-2.64-2.95c-0.69-1.17-1.03-2.62-1.03-4.36
				v-0.14c0-1.69,0.33-3.23,1-4.6c0.66-1.37,1.58-2.54,2.75-3.5c1.17-0.96,2.54-1.69,4.12-2.2c1.58-0.5,3.26-0.76,5.05-0.76
				c2.29,0,4.6,0.37,6.94,1.1c2.34,0.73,4.46,1.74,6.39,3.02l-3.3,5.91c-1.74-1.05-3.5-1.89-5.29-2.51
				c-1.79-0.62-3.43-0.93-4.94-0.93c-1.6,0-2.85,0.34-3.74,1.03c-0.89,0.69-1.34,1.56-1.34,2.61v0.14c0,0.64,0.23,1.2,0.69,1.68
				c0.46,0.48,1.06,0.92,1.82,1.31c0.75,0.39,1.62,0.76,2.61,1.1c0.98,0.34,2,0.68,3.06,1c1.33,0.41,2.65,0.89,3.98,1.44
				c1.33,0.55,2.53,1.23,3.61,2.03c1.07,0.8,1.96,1.78,2.64,2.92c0.69,1.15,1.03,2.54,1.03,4.19v0.14
				C368.63,486.65,368.29,488.33,367.6,489.75z"/>
			<path class="st3" d="M387.38,495.45H379v-50.14h8.38v19.56c0.59-0.88,1.24-1.7,1.95-2.46c0.71-0.76,1.53-1.44,2.46-2.04
				c0.94-0.6,1.96-1.07,3.08-1.42c1.12-0.35,2.39-0.52,3.8-0.52c4.11,0,7.28,1.26,9.52,3.78c2.24,2.52,3.36,5.91,3.36,10.17v23.08
				h-8.38v-20.56c0-2.83-0.67-5.01-2.01-6.54c-1.34-1.53-3.23-2.3-5.69-2.3c-2.41,0-4.36,0.79-5.85,2.36
				c-1.5,1.58-2.25,3.78-2.25,6.61V495.45z"/>
			<path class="st3" d="M433.47,487.1c1.88,1.58,4.17,2.37,6.87,2.37c2.06,0,3.85-0.37,5.36-1.1c1.51-0.73,3-1.81,4.46-3.23
				l4.88,4.33c-1.74,2.06-3.81,3.71-6.22,4.94c-2.4,1.24-5.28,1.85-8.62,1.85c-2.61,0-5.05-0.46-7.31-1.37s-4.24-2.2-5.91-3.85
				c-1.67-1.65-2.99-3.63-3.95-5.94c-0.96-2.31-1.44-4.89-1.44-7.73c0-2.61,0.43-5.06,1.3-7.35c0.87-2.29,2.1-4.29,3.67-6.01
				c1.58-1.72,3.44-3.08,5.6-4.09c2.15-1.01,4.53-1.51,7.14-1.51c2.88,0,5.41,0.53,7.59,1.58c2.17,1.05,3.98,2.47,5.43,4.26
				c1.44,1.79,2.53,3.87,3.26,6.25c0.73,2.38,1.1,4.88,1.1,7.49c0,0.37-0.01,0.73-0.03,1.1c-0.02,0.37-0.06,0.75-0.1,1.17h-26.65
				C430.4,483.24,431.59,485.52,433.47,487.1z M448.44,474.77c-0.14-1.33-0.44-2.58-0.89-3.74c-0.46-1.17-1.08-2.17-1.85-3.02
				c-0.78-0.85-1.71-1.52-2.78-2.03c-1.08-0.5-2.3-0.76-3.67-0.76c-2.57,0-4.68,0.88-6.35,2.64c-1.67,1.76-2.69,4.06-3.06,6.9
				H448.44z"/>
			<path class="st3" d="M475.43,495.45h-8.38v-36.26h8.38v8.17c1.14-2.75,2.77-4.95,4.88-6.59c2.11-1.65,4.76-2.4,7.97-2.27v8.79
				h-0.48c-1.83,0-3.5,0.3-5.01,0.89c-1.51,0.6-2.82,1.49-3.91,2.68c-1.1,1.19-1.95,2.69-2.54,4.5c-0.6,1.81-0.89,3.9-0.89,6.28
				V495.45z"/>
		</g>
	</g>
	<g class="st2">
		<g>
			<path class="st3" d="M245.94,571.48c-0.69,1.42-1.64,2.6-2.85,3.54c-1.21,0.94-2.64,1.65-4.29,2.13s-3.41,0.72-5.29,0.72
				c-2.61,0-5.25-0.46-7.93-1.37s-5.16-2.27-7.45-4.05l3.71-5.63c1.97,1.47,3.97,2.58,6.01,3.33c2.04,0.76,3.99,1.13,5.87,1.13
				c1.79,0,3.17-0.35,4.16-1.06c0.98-0.71,1.48-1.66,1.48-2.85v-0.14c0-0.69-0.22-1.28-0.65-1.79c-0.44-0.5-1.03-0.95-1.79-1.34
				c-0.76-0.39-1.63-0.73-2.61-1.03c-0.99-0.3-2-0.61-3.06-0.93c-1.33-0.41-2.67-0.87-4.02-1.37c-1.35-0.5-2.56-1.15-3.64-1.96
				c-1.08-0.8-1.96-1.79-2.64-2.95c-0.69-1.17-1.03-2.62-1.03-4.36v-0.14c0-1.69,0.33-3.23,1-4.6c0.66-1.37,1.58-2.54,2.75-3.5
				c1.17-0.96,2.54-1.69,4.12-2.2c1.58-0.5,3.26-0.76,5.05-0.76c2.29,0,4.6,0.37,6.94,1.1c2.33,0.73,4.46,1.74,6.39,3.02l-3.3,5.91
				c-1.74-1.05-3.5-1.89-5.29-2.51c-1.79-0.62-3.43-0.93-4.94-0.93c-1.6,0-2.85,0.34-3.74,1.03c-0.89,0.69-1.34,1.56-1.34,2.61v0.14
				c0,0.64,0.23,1.2,0.69,1.68c0.46,0.48,1.06,0.92,1.82,1.31c0.76,0.39,1.62,0.76,2.61,1.1c0.98,0.34,2,0.68,3.06,1
				c1.33,0.41,2.65,0.89,3.98,1.44c1.33,0.55,2.53,1.23,3.61,2.03c1.08,0.8,1.96,1.78,2.64,2.92c0.69,1.15,1.03,2.54,1.03,4.19v0.14
				C246.97,568.39,246.63,570.06,245.94,571.48z"/>
			<path class="st3" d="M279.59,577.18v-4.46c-1.24,1.47-2.82,2.7-4.74,3.71c-1.92,1.01-4.26,1.51-7.01,1.51
				c-1.74,0-3.39-0.24-4.95-0.72c-1.56-0.48-2.92-1.19-4.09-2.13c-1.17-0.94-2.11-2.11-2.82-3.5c-0.71-1.4-1.06-3.01-1.06-4.84
				v-0.14c0-1.97,0.37-3.68,1.1-5.15c0.73-1.46,1.75-2.68,3.06-3.64c1.31-0.96,2.86-1.68,4.67-2.16c1.81-0.48,3.77-0.72,5.87-0.72
				c2.2,0,4.06,0.14,5.6,0.41c1.53,0.27,3.01,0.64,4.43,1.1v-0.89c0-2.52-0.77-4.44-2.3-5.77c-1.53-1.33-3.74-1.99-6.63-1.99
				c-2.06,0-3.89,0.21-5.49,0.62c-1.6,0.41-3.23,0.96-4.88,1.65l-2.27-6.66c2.01-0.92,4.07-1.65,6.18-2.2
				c2.11-0.55,4.65-0.82,7.62-0.82c5.4,0,9.41,1.34,12.02,4.02c2.61,2.68,3.91,6.44,3.91,11.3v21.5H279.59z M279.8,561.79
				c-1.05-0.41-2.3-0.76-3.74-1.03c-1.44-0.27-2.96-0.41-4.57-0.41c-2.61,0-4.65,0.5-6.11,1.51c-1.47,1.01-2.2,2.45-2.2,4.33v0.14
				c0,1.74,0.68,3.07,2.03,3.98c1.35,0.92,3.01,1.37,4.98,1.37c1.37,0,2.64-0.18,3.81-0.55c1.17-0.37,2.19-0.88,3.06-1.54
				c0.87-0.66,1.55-1.46,2.03-2.4c0.48-0.94,0.72-1.98,0.72-3.12V561.79z"/>
			<path class="st3" d="M318.94,541.19v6.87h-9.48v29.12h-8.38v-29.12h-4.6v-6.94h4.6v-2.61c0-4.03,0.97-7.02,2.91-8.96
				s4.7-2.92,8.29-2.92c1.46,0,2.72,0.09,3.78,0.27c1.05,0.18,2.04,0.41,2.95,0.69v7.01c-0.82-0.27-1.61-0.49-2.37-0.65
				c-0.76-0.16-1.59-0.24-2.51-0.24c-3.21,0-4.81,1.83-4.81,5.49v1.99H318.94z"/>
			<path class="st3" d="M336.66,568.83c1.88,1.58,4.17,2.37,6.87,2.37c2.06,0,3.85-0.37,5.36-1.1c1.51-0.73,3-1.81,4.46-3.23
				l4.88,4.33c-1.74,2.06-3.81,3.71-6.22,4.94c-2.4,1.24-5.28,1.85-8.62,1.85c-2.61,0-5.05-0.46-7.31-1.37s-4.24-2.2-5.91-3.85
				c-1.67-1.65-2.99-3.63-3.95-5.94c-0.96-2.31-1.44-4.89-1.44-7.73c0-2.61,0.43-5.06,1.3-7.35c0.87-2.29,2.1-4.29,3.67-6.01
				c1.58-1.72,3.44-3.08,5.6-4.09c2.15-1.01,4.53-1.51,7.14-1.51c2.88,0,5.41,0.53,7.59,1.58c2.17,1.05,3.98,2.47,5.43,4.26
				c1.44,1.79,2.53,3.87,3.26,6.25c0.73,2.38,1.1,4.88,1.1,7.49c0,0.37-0.01,0.73-0.03,1.1c-0.02,0.37-0.06,0.75-0.1,1.17h-26.65
				C333.59,564.97,334.78,567.25,336.66,568.83z M351.63,556.5c-0.14-1.33-0.44-2.58-0.89-3.74c-0.46-1.17-1.08-2.17-1.85-3.02
				c-0.78-0.85-1.71-1.52-2.78-2.03c-1.08-0.5-2.3-0.76-3.67-0.76c-2.57,0-4.68,0.88-6.35,2.64c-1.67,1.76-2.69,4.06-3.06,6.9
				H351.63z"/>
		</g>
	</g>
	<path class="st1" d="M109.2,376.8h359.61V17.18H109.2V376.8z M485.98,393.97H92.02V0h393.96V393.97z"/>
	<rect x="100.6" y="118.84" class="st1" width="376.79" height="17.17"/>
	<rect x="100.6" y="30.22" class="st1" width="376.79" height="17.17"/>
	<path class="st1" d="M288.98,71.52c-6.4,0-11.59,5.21-11.59,11.62c0,6.42,5.2,11.64,11.59,11.64c6.42,0,11.65-5.22,11.65-11.64
		C300.63,76.73,295.4,71.52,288.98,71.52 M288.98,111.94c-15.86,0-28.77-12.92-28.77-28.81c0-15.87,12.91-28.78,28.77-28.78
		c15.9,0,28.82,12.91,28.82,28.78C317.8,99.02,304.87,111.94,288.98,111.94"/>
</g>
<g id="Layer_5">
	<text transform="matrix(1 0 0 1 108.1318 493.4805)"><tspan x="0" y="0" class="st3 st4 st5 st6">d</tspan><tspan x="40.32" y="0" class="st3 st4 st5 st6">i</tspan><tspan x="60.1" y="0" class="st3 st4 st5 st6">s</tspan><tspan x="97.19" y="0" class="st3 st4 st5">hw</tspan><tspan x="187.51" y="0" class="st3 st4 st5 st6">a</tspan><tspan x="226.17" y="0" class="st3 st4 st5 st6">s</tspan><tspan x="263.26" y="0" class="st3 st4 st5 st6">he</tspan><tspan x="342.48" y="0" class="st3 st4 st5">r</tspan></text>
	<text transform="matrix(1 0 0 1 222.5781 574.8809)"><tspan x="0" y="0" class="st3 st4 st5 st6">s</tspan><tspan x="37.16" y="0" class="st3 st4 st5 st6">a</tspan><tspan x="75.33" y="0" class="st3 st4 st5 st6">f</tspan><tspan x="101.56" y="0" class="st3 st4 st5">e</tspan></text>
	<path class="st3" d="M112.76,375.31h358.18V17.11H112.76V375.31z M488.04,392.41H95.65V0h392.39V392.41z"/>
	<rect x="104.08" y="116.65" class="st3" width="369.85" height="16.85"/>
	<rect x="104.08" y="29.67" class="st3" width="369.85" height="16.85"/>
	<path class="st3" d="M288.98,70.2c-6.28,0-11.38,5.11-11.38,11.4c0,6.3,5.1,11.43,11.38,11.43c6.3,0,11.44-5.12,11.44-11.43
		C300.41,75.31,295.28,70.2,288.98,70.2 M288.98,109.88c-15.57,0-28.24-12.69-28.24-28.28c0-15.58,12.67-28.25,28.24-28.25
		c15.6,0,28.29,12.67,28.29,28.25C317.27,97.2,304.58,109.88,288.98,109.88"/>
</g>
</svg>
