<?xml version="1.0" encoding="utf-8"?>
<!-- Generator: Adobe Illustrator 26.0.3, SVG Export Plug-In . SVG Version: 6.00 Build 0)  -->
<svg version="1.1" id="Layer_1" xmlns="http://www.w3.org/2000/svg" xmlns:xlink="http://www.w3.org/1999/xlink" x="0px" y="0px"
	 viewBox="0 0 578 578" style="enable-background:new 0 0 578 578;" xml:space="preserve">
<style type="text/css">
	.st0{fill:#81696C;}
	.st1{font-family:'Gotham-Medium';}
	.st2{font-size:47.0781px;}
	.st3{letter-spacing:1;}
</style>
<g>
	<path class="st0" d="M325.66,226.2c-24.26,0-39.76-10.55-54.74-20.73c-13.27-9.03-25.8-17.56-43.88-17.56
		c-23.02,0-36.2,14.22-36.33,14.37l-8.3-7.54c0.67-0.74,16.71-18.04,44.63-18.04c21.53,0,36.1,9.92,50.19,19.5
		c14.21,9.66,27.61,18.79,48.43,18.79c40.85,0,63.24-25.73,63.46-25.99l8.57,7.24C396.65,197.46,371.91,226.2,325.66,226.2"/>
	<text transform="matrix(1 0 0 1 158.4531 465.418)"><tspan x="0" y="0" class="st0 st1 st2 st3">m</tspan><tspan x="45.95" y="0" class="st0 st1 st2 st3">ic</tspan><tspan x="88.46" y="0" class="st0 st1 st2">r</tspan><tspan x="108.75" y="0" class="st0 st1 st2">o</tspan><tspan x="139.96" y="0" class="st0 st1 st2">w</tspan><tspan x="181.11" y="0" class="st0 st1 st2">a</tspan><tspan x="208.98" y="0" class="st0 st1 st2">v</tspan><tspan x="237.13" y="0" class="st0 st1 st2">e</tspan></text>
	<text transform="matrix(1 0 0 1 240.8867 521.4414)"><tspan x="0" y="0" class="st0 st1 st2 st3">s</tspan><tspan x="24.9" y="0" class="st0 st1 st2 st3">a</tspan><tspan x="53.57" y="0" class="st0 st1 st2 st3">f</tspan><tspan x="72.45" y="0" class="st0 st1 st2">e</tspan></text>
	<path class="st0" d="M325.66,348.38c-24.26,0-39.76-10.55-54.74-20.73c-13.27-9.03-25.8-17.56-43.88-17.56
		c-23.02,0-36.2,14.22-36.33,14.37l-8.3-7.54c0.67-0.74,16.71-18.04,44.63-18.04c21.53,0,36.1,9.92,50.19,19.49
		c14.21,9.66,27.61,18.79,48.43,18.79c41.09,0,63.24-25.71,63.45-25.97l8.57,7.22C396.65,319.64,371.91,348.38,325.66,348.38"/>
	<path class="st0" d="M325.66,288.04c-24.26,0-39.76-10.55-54.74-20.73c-13.27-9.03-25.8-17.56-43.88-17.56
		c-22.79,0-36.22,14.23-36.35,14.38l-8.28-7.56c0.67-0.74,16.71-18.04,44.63-18.04c21.53,0,36.1,9.92,50.19,19.49
		c14.21,9.66,27.61,18.79,48.43,18.79c41.09,0,63.23-25.73,63.45-25.99l8.57,7.23C396.66,259.28,371.91,288.04,325.66,288.04"/>
	<path class="st0" d="M167.13,386.47h244.19V138.65H167.13V386.47z M422.54,397.69H155.91V127.44h266.62V397.69z"/>
</g>
</svg>
