<?xml version="1.0" encoding="utf-8"?>
<!-- Generator: Adobe Illustrator 26.0.3, SVG Export Plug-In . SVG Version: 6.00 Build 0)  -->
<svg version="1.1" xmlns="http://www.w3.org/2000/svg" xmlns:xlink="http://www.w3.org/1999/xlink" x="0px" y="0px"
	 viewBox="0 0 639.1 578" style="enable-background:new 0 0 639.1 578;" xml:space="preserve">
<style type="text/css">
	.st0{display:none;}
	.st1{display:inline;fill:#81696C;}
	.st2{display:inline;}
	.st3{fill:#81696C;}
	.st4{fill:#6B8994;}
	.st5{display:inline;fill:#6B8994;}
	.st6{fill:#5A6B60;}
</style>
<g id="Layer_1" class="st0">
	<g id="Microwave">
		<path class="st1" d="M345.4,144.7c-35.5,0-58.2-15.4-80.2-30.4c-19.4-13.2-37.8-25.7-64.3-25.7c-33.7,0-53,20.8-53.2,21l-12.1-11
			c1-1.1,24.5-26.4,65.4-26.4c31.5,0,52.9,14.5,73.5,28.6c20.8,14.2,40.5,27.5,70.9,27.5c59.8,0,92.6-37.7,93-38.1l12.5,10.6
			C449.4,102.6,413.2,144.7,345.4,144.7"/>
		<g class="st2">
			<path class="st3" d="M138.5,459.7c2-1.2,4.4-1.8,7.1-1.8c4,0,7.1,1.2,9.4,3.6s3.4,5.9,3.4,10.3v23.2H150v-20.6
				c0-2.9-0.6-5.1-1.9-6.6c-1.3-1.5-3.1-2.3-5.4-2.3c-2.3,0-4.1,0.8-5.6,2.3s-2.2,3.8-2.2,6.7v20.5h-8.4v-20.7c0-2.8-0.6-5-1.9-6.5
				c-1.3-1.5-3.1-2.3-5.4-2.3s-4.2,0.8-5.6,2.4c-1.4,1.6-2.1,3.8-2.1,6.7v20.4H103v-36.4h8.4v5.6c0.6-0.8,1.2-1.6,1.9-2.4
				c0.7-0.7,1.5-1.4,2.4-2c0.9-0.6,1.9-1.1,3-1.4c1.1-0.4,2.4-0.5,3.8-0.5c2.6,0,4.8,0.6,6.7,1.8c1.8,1.2,3.2,2.8,4.2,4.7
				C134.8,462.5,136.5,460.9,138.5,459.7z"/>
			<path class="st3" d="M170.4,453.1v-7.9h9v7.9H170.4z M170.7,495.1v-36.4h8.4v36.4H170.7z"/>
			<path class="st3" d="M217.2,494c-2.3,1.3-5.2,1.9-8.8,1.9c-2.7,0-5.2-0.5-7.5-1.5c-2.3-1-4.3-2.4-6-4.1s-3-3.7-4-6
				c-0.9-2.3-1.4-4.7-1.4-7.3s0.5-5.1,1.4-7.4c0.9-2.3,2.3-4.3,4-6.1s3.7-3.1,6-4.1s4.8-1.5,7.6-1.5c3.4,0,6.3,0.6,8.6,1.7
				c2.3,1.1,4.3,2.7,6,4.5l-5.2,5.6c-1.3-1.3-2.7-2.4-4.1-3.3c-1.4-0.9-3.2-1.3-5.3-1.3c-1.5,0-2.9,0.3-4.2,0.9
				c-1.3,0.6-2.4,1.5-3.3,2.5s-1.6,2.3-2.2,3.7s-0.8,2.9-0.8,4.5c0,1.7,0.3,3.2,0.8,4.6c0.5,1.4,1.3,2.7,2.2,3.7
				c1,1.1,2.1,1.9,3.4,2.5c1.3,0.6,2.8,0.9,4.4,0.9c2,0,3.7-0.4,5.2-1.3c1.5-0.9,2.9-1.9,4.2-3.3l5,5
				C221.6,491.1,219.5,492.8,217.2,494z"/>
			<path class="st3" d="M240.9,495.1h-8.4v-36.4h8.4v8.2c1.1-2.8,2.8-5,4.9-6.6c2.1-1.7,4.8-2.4,8-2.3v8.8h-0.5
				c-1.8,0-3.5,0.3-5,0.9c-1.5,0.6-2.8,1.5-3.9,2.7c-1.1,1.2-1.9,2.7-2.6,4.5c-0.6,1.8-0.9,3.9-0.9,6.3L240.9,495.1L240.9,495.1z"/>
			<path class="st3" d="M297.6,484.3c-1,2.3-2.4,4.3-4.1,6s-3.8,3.1-6.2,4.1s-5,1.5-7.8,1.5c-2.8,0-5.3-0.5-7.7-1.5
				c-2.4-1-4.4-2.4-6.1-4.1c-1.7-1.7-3.1-3.7-4-6c-1-2.3-1.5-4.7-1.5-7.3s0.5-5.1,1.5-7.4c1-2.3,2.3-4.4,4.1-6.1
				c1.7-1.7,3.8-3.1,6.1-4.1c2.4-1,5-1.5,7.8-1.5c2.8,0,5.4,0.5,7.8,1.5c2.4,1,4.4,2.4,6.1,4.1c1.7,1.7,3.1,3.7,4,6
				c1,2.3,1.5,4.8,1.5,7.4S298.6,482,297.6,484.3z M289.9,472.5c-0.5-1.4-1.3-2.7-2.3-3.8c-1-1.1-2.1-1.9-3.5-2.5s-2.8-0.9-4.5-0.9
				s-3.1,0.3-4.5,0.9c-1.4,0.6-2.5,1.5-3.5,2.5s-1.7,2.3-2.2,3.7s-0.8,2.9-0.8,4.5s0.3,3.1,0.8,4.6c0.5,1.5,1.3,2.7,2.3,3.8
				s2.1,1.9,3.5,2.5s2.8,0.9,4.4,0.9c1.7,0,3.2-0.3,4.6-0.9s2.5-1.5,3.5-2.5s1.7-2.3,2.2-3.7s0.8-2.9,0.8-4.5
				C290.7,475.4,290.4,473.9,289.9,472.5z"/>
			<path class="st3" d="M344.1,483.7l7.5-25h8.3L348,495.4h-7.5l-8.1-24.9l-8.2,24.9h-7.5l-11.8-36.7h8.5l7.3,25l8.1-25.1h7.1
				L344.1,483.7z"/>
			<path class="st3" d="M390.5,495.1v-4.5c-1.2,1.5-2.8,2.7-4.8,3.7c-1.9,1-4.3,1.5-7,1.5c-1.8,0-3.4-0.2-5-0.7s-2.9-1.2-4.1-2.1
				c-1.2-0.9-2.1-2.1-2.8-3.5c-0.7-1.4-1.1-3-1.1-4.9v-0.1c0-2,0.4-3.7,1.1-5.2s1.8-2.7,3.1-3.6c1.3-1,2.9-1.7,4.7-2.2
				s3.8-0.7,5.9-0.7c2.2,0,4.1,0.1,5.6,0.4c1.5,0.3,3,0.6,4.5,1.1v-0.9c0-2.5-0.8-4.5-2.3-5.8c-1.5-1.3-3.8-2-6.6-2
				c-2.1,0-3.9,0.2-5.5,0.6s-3.2,1-4.9,1.6l-2.3-6.7c2-0.9,4.1-1.7,6.2-2.2c2.1-0.5,4.7-0.8,7.7-0.8c5.4,0,9.5,1.4,12.1,4
				c2.6,2.7,3.9,6.5,3.9,11.3v21.6L390.5,495.1L390.5,495.1z M390.7,479.7c-1.1-0.4-2.3-0.8-3.8-1c-1.5-0.3-3-0.4-4.6-0.4
				c-2.6,0-4.7,0.5-6.1,1.5c-1.5,1-2.2,2.5-2.2,4.4v0.1c0,1.8,0.7,3.1,2,4c1.4,0.9,3,1.4,5,1.4c1.4,0,2.7-0.2,3.8-0.5
				c1.2-0.4,2.2-0.9,3.1-1.5c0.9-0.7,1.5-1.5,2-2.4s0.7-2,0.7-3.1L390.7,479.7L390.7,479.7z"/>
			<path class="st3" d="M434.2,458.7h8.8l-14.9,36.7h-7.5l-15-36.7h9l9.8,26.8L434.2,458.7z"/>
			<path class="st3" d="M460.2,486.7c1.9,1.6,4.2,2.4,6.9,2.4c2.1,0,3.9-0.4,5.4-1.1c1.5-0.7,3-1.8,4.5-3.2l4.9,4.4
				c-1.8,2.1-3.8,3.7-6.2,5s-5.3,1.9-8.6,1.9c-2.6,0-5.1-0.5-7.3-1.4c-2.3-0.9-4.2-2.2-5.9-3.9c-1.7-1.7-3-3.6-4-6
				c-1-2.3-1.5-4.9-1.5-7.8c0-2.6,0.4-5.1,1.3-7.4c0.9-2.3,2.1-4.3,3.7-6s3.5-3.1,5.6-4.1s4.5-1.5,7.2-1.5c2.9,0,5.4,0.5,7.6,1.6
				s4,2.5,5.5,4.3c1.5,1.8,2.5,3.9,3.3,6.3c0.7,2.4,1.1,4.9,1.1,7.5c0,0.4,0,0.7,0,1.1c0,0.4-0.1,0.8-0.1,1.2h-26.8
				C457.2,482.9,458.4,485.1,460.2,486.7z M475.3,474.4c-0.1-1.3-0.4-2.6-0.9-3.8s-1.1-2.2-1.9-3s-1.7-1.5-2.8-2
				c-1.1-0.5-2.3-0.8-3.7-0.8c-2.6,0-4.7,0.9-6.4,2.7s-2.7,4.1-3.1,6.9L475.3,474.4L475.3,474.4z"/>
		</g>
		<g class="st2">
			<path class="st3" d="M250,571.5c-0.7,1.4-1.6,2.6-2.9,3.5s-2.7,1.7-4.3,2.1c-1.7,0.5-3.4,0.7-5.3,0.7c-2.6,0-5.3-0.5-8-1.4
				s-5.2-2.3-7.5-4.1l3.7-5.7c2,1.5,4,2.6,6,3.3c2.1,0.8,4,1.1,5.9,1.1c1.8,0,3.2-0.4,4.2-1.1s1.5-1.7,1.5-2.9v-0.1
				c0-0.7-0.2-1.3-0.7-1.8s-1-1-1.8-1.3s-1.6-0.7-2.6-1c-1-0.3-2-0.6-3.1-0.9c-1.3-0.4-2.7-0.9-4-1.4c-1.4-0.5-2.6-1.2-3.7-2
				c-1.1-0.8-2-1.8-2.7-3c-0.7-1.2-1-2.6-1-4.4v-0.1c0-1.7,0.3-3.2,1-4.6s1.6-2.5,2.8-3.5c1.2-1,2.6-1.7,4.1-2.2s3.3-0.8,5.1-0.8
				c2.3,0,4.6,0.4,7,1.1c2.3,0.7,4.5,1.8,6.4,3l-3.3,5.9c-1.8-1.1-3.5-1.9-5.3-2.5s-3.4-0.9-5-0.9c-1.6,0-2.9,0.3-3.8,1
				s-1.4,1.6-1.4,2.6v0.1c0,0.6,0.2,1.2,0.7,1.7s1.1,0.9,1.8,1.3s1.6,0.8,2.6,1.1c1,0.3,2,0.7,3.1,1c1.3,0.4,2.7,0.9,4,1.5
				s2.5,1.2,3.6,2c1.1,0.8,2,1.8,2.7,2.9c0.7,1.2,1,2.5,1,4.2v0.1C251.1,568.3,250.7,570,250,571.5z"/>
			<path class="st3" d="M283.8,577.2v-4.5c-1.2,1.5-2.8,2.7-4.8,3.7c-1.9,1-4.3,1.5-7,1.5c-1.8,0-3.4-0.2-5-0.7
				c-1.6-0.5-2.9-1.2-4.1-2.1s-2.1-2.1-2.8-3.5c-0.7-1.4-1.1-3-1.1-4.9v-0.1c0-2,0.4-3.7,1.1-5.2s1.8-2.7,3.1-3.7
				c1.3-1,2.9-1.7,4.7-2.2s3.8-0.7,5.9-0.7c2.2,0,4.1,0.1,5.6,0.4c1.5,0.3,3,0.6,4.5,1.1v-0.9c0-2.5-0.8-4.5-2.3-5.8
				c-1.5-1.3-3.8-2-6.6-2c-2.1,0-3.9,0.2-5.5,0.6s-3.2,1-4.9,1.7l-2.3-6.7c2-0.9,4.1-1.7,6.2-2.2c2.1-0.5,4.7-0.8,7.7-0.8
				c5.4,0,9.5,1.3,12.1,4c2.6,2.7,3.9,6.5,3.9,11.3v21.6L283.8,577.2L283.8,577.2z M284,561.7c-1.1-0.4-2.3-0.8-3.8-1
				c-1.5-0.3-3-0.4-4.6-0.4c-2.6,0-4.7,0.5-6.1,1.5s-2.2,2.5-2.2,4.3v0.1c0,1.8,0.7,3.1,2,4c1.4,0.9,3,1.4,5,1.4
				c1.4,0,2.7-0.2,3.8-0.5c1.2-0.4,2.2-0.9,3.1-1.5c0.9-0.7,1.5-1.5,2-2.4s0.7-2,0.7-3.1L284,561.7L284,561.7z"/>
			<path class="st3" d="M323.3,541v6.9h-9.5v29.2h-8.4v-29.2h-4.6v-7h4.6v-2.6c0-4,1-7,2.9-9s4.7-2.9,8.3-2.9c1.5,0,2.7,0.1,3.8,0.3
				c1.1,0.2,2,0.4,3,0.7v7c-0.8-0.3-1.6-0.5-2.4-0.7c-0.8-0.2-1.6-0.2-2.5-0.2c-3.2,0-4.8,1.8-4.8,5.5v2L323.3,541L323.3,541z"/>
			<path class="st3" d="M341.1,568.8c1.9,1.6,4.2,2.4,6.9,2.4c2.1,0,3.9-0.4,5.4-1.1c1.5-0.7,3-1.8,4.5-3.2l4.9,4.3
				c-1.8,2.1-3.8,3.7-6.2,5c-2.4,1.2-5.3,1.9-8.6,1.9c-2.6,0-5.1-0.5-7.3-1.4c-2.3-0.9-4.2-2.2-5.9-3.9c-1.7-1.7-3-3.6-4-6
				c-1-2.3-1.5-4.9-1.5-7.8c0-2.6,0.4-5.1,1.3-7.4s2.1-4.3,3.7-6c1.6-1.7,3.5-3.1,5.6-4.1c2.2-1,4.5-1.5,7.2-1.5
				c2.9,0,5.4,0.5,7.6,1.6s4,2.5,5.5,4.3c1.5,1.8,2.5,3.9,3.3,6.3c0.7,2.4,1.1,4.9,1.1,7.5c0,0.4,0,0.7,0,1.1c0,0.4-0.1,0.8-0.1,1.2
				h-26.8C338,564.9,339.2,567.2,341.1,568.8z M356.1,556.4c-0.1-1.3-0.4-2.6-0.9-3.8s-1.1-2.2-1.9-3c-0.8-0.8-1.7-1.5-2.8-2
				c-1.1-0.5-2.3-0.8-3.7-0.8c-2.6,0-4.7,0.9-6.4,2.7c-1.7,1.8-2.7,4.1-3.1,6.9L356.1,556.4L356.1,556.4z"/>
		</g>
		<path class="st1" d="M345.4,323.6c-35.5,0-58.2-15.5-80.2-30.4c-19.4-13.2-37.8-25.7-64.3-25.7c-33.7,0-53,20.8-53.2,21l-12.1-11
			c1-1.1,24.5-26.4,65.4-26.4c31.5,0,52.9,14.5,73.5,28.6c20.8,14.1,40.5,27.5,70.9,27.5c60.2,0,92.6-37.7,92.9-38l12.6,10.6
			C449.4,281.6,413.2,323.6,345.4,323.6"/>
		<path class="st1" d="M345.4,235.3c-35.5,0-58.2-15.4-80.2-30.4c-19.4-13.2-37.8-25.7-64.3-25.7c-33.4,0-53.1,20.9-53.2,21.1
			l-12.1-11.1c1-1.1,24.5-26.4,65.4-26.4c31.5,0,52.9,14.5,73.5,28.6c20.8,14.1,40.5,27.5,70.9,27.5c60.2,0,92.6-37.7,92.9-38.1
			l12.6,10.6C449.4,193.1,413.2,235.3,345.4,235.3"/>
		<path class="st1" d="M114.4,379.5h357.7v-363H114.4V379.5z M488.5,395.9H98V0h390.6V395.9z"/>
	</g>
	<g id="oven">
		<g class="st2">
			<path class="st3" d="M159.3,484.7c-1,2.3-2.3,4.3-4.1,6s-3.8,3.1-6.1,4.1c-2.4,1-5,1.5-7.8,1.5c-2.8,0-5.3-0.5-7.7-1.5
				c-2.4-1-4.4-2.3-6.1-4c-1.7-1.7-3.1-3.7-4-6s-1.4-4.7-1.4-7.3s0.5-5.1,1.5-7.4c1-2.3,2.3-4.3,4.1-6c1.7-1.7,3.8-3.1,6.1-4.1
				s4.9-1.5,7.7-1.5c2.8,0,5.4,0.5,7.7,1.5c2.4,1,4.4,2.3,6.1,4c1.7,1.7,3.1,3.7,4,6s1.4,4.7,1.4,7.4
				C160.8,479.9,160.3,482.4,159.3,484.7z M151.6,472.9c-0.6-1.4-1.3-2.7-2.3-3.7c-1-1.1-2.1-1.9-3.5-2.5s-2.8-0.9-4.5-0.9
				s-3.1,0.3-4.5,0.9s-2.5,1.5-3.4,2.5c-1,1-1.7,2.3-2.2,3.7c-0.5,1.4-0.8,2.9-0.8,4.5s0.3,3.1,0.8,4.6c0.6,1.4,1.3,2.7,2.3,3.7
				s2.1,1.9,3.5,2.5s2.8,0.9,4.4,0.9c1.7,0,3.2-0.3,4.5-0.9s2.5-1.5,3.4-2.5c1-1,1.7-2.3,2.2-3.7c0.5-1.4,0.8-2.9,0.8-4.5
				C152.4,475.9,152.2,474.3,151.6,472.9z"/>
			<path class="st3" d="M194.5,459.2h8.7l-14.8,36.5h-7.5L166,459.2h8.9l9.8,26.6L194.5,459.2z"/>
			<path class="st3" d="M220.3,487.1c1.9,1.6,4.2,2.4,6.9,2.4c2.1,0,3.9-0.4,5.4-1.1s3-1.8,4.5-3.2l4.9,4.3
				c-1.7,2.1-3.8,3.7-6.2,4.9c-2.4,1.2-5.3,1.9-8.6,1.9c-2.6,0-5.1-0.5-7.3-1.4c-2.3-0.9-4.2-2.2-5.9-3.9s-3-3.6-3.9-5.9
				c-1-2.3-1.4-4.9-1.4-7.7c0-2.6,0.4-5.1,1.3-7.4c0.9-2.3,2.1-4.3,3.7-6s3.4-3.1,5.6-4.1c2.1-1,4.5-1.5,7.1-1.5
				c2.9,0,5.4,0.5,7.6,1.6c2.2,1,4,2.5,5.4,4.3c1.4,1.8,2.5,3.9,3.3,6.2s1.1,4.9,1.1,7.5c0,0.4,0,0.7,0,1.1s-0.1,0.8-0.1,1.2h-26.6
				C217.2,483.2,218.4,485.5,220.3,487.1z M235.3,474.8c-0.1-1.3-0.4-2.6-0.9-3.7c-0.5-1.2-1.1-2.2-1.9-3c-0.8-0.9-1.7-1.5-2.8-2
				c-1.1-0.5-2.3-0.8-3.7-0.8c-2.6,0-4.7,0.9-6.4,2.6c-1.7,1.8-2.7,4.1-3.1,6.9L235.3,474.8L235.3,474.8z"/>
			<path class="st3" d="M262.2,495.5h-8.4v-36.3h8.4v5.7c0.6-0.9,1.2-1.7,2-2.5c0.7-0.8,1.5-1.4,2.5-2s2-1.1,3.1-1.4
				s2.4-0.5,3.8-0.5c4.1,0,7.3,1.3,9.5,3.8s3.4,5.9,3.4,10.2v23.1H278v-20.6c0-2.8-0.7-5-2-6.5s-3.2-2.3-5.7-2.3
				c-2.4,0-4.4,0.8-5.9,2.4c-1.5,1.6-2.2,3.8-2.2,6.6L262.2,495.5L262.2,495.5z"/>
			<path class="st3" d="M341.9,489.8c-0.7,1.4-1.6,2.6-2.9,3.5s-2.6,1.6-4.3,2.1s-3.4,0.7-5.3,0.7c-2.6,0-5.2-0.5-7.9-1.4
				c-2.7-0.9-5.2-2.3-7.5-4l3.7-5.6c2,1.5,4,2.6,6,3.3c2,0.8,4,1.1,5.9,1.1c1.8,0,3.2-0.4,4.2-1.1c1-0.7,1.5-1.7,1.5-2.9v-0.1
				c0-0.7-0.2-1.3-0.6-1.8c-0.4-0.5-1-1-1.8-1.3c-0.8-0.4-1.6-0.7-2.6-1c-1-0.3-2-0.6-3.1-0.9c-1.3-0.4-2.7-0.9-4-1.4
				c-1.4-0.5-2.6-1.1-3.6-2c-1.1-0.8-2-1.8-2.6-3c-0.7-1.2-1-2.6-1-4.4v-0.1c0-1.7,0.3-3.2,1-4.6c0.7-1.4,1.6-2.5,2.8-3.5
				s2.5-1.7,4.1-2.2c1.6-0.5,3.3-0.8,5-0.8c2.3,0,4.6,0.4,6.9,1.1s4.5,1.7,6.4,3l-3.3,5.9c-1.7-1-3.5-1.9-5.3-2.5s-3.4-0.9-4.9-0.9
				c-1.6,0-2.9,0.3-3.7,1c-0.9,0.7-1.3,1.6-1.3,2.6v0.1c0,0.6,0.2,1.2,0.7,1.7c0.5,0.5,1.1,0.9,1.8,1.3c0.8,0.4,1.6,0.8,2.6,1.1
				c1,0.3,2,0.7,3.1,1c1.3,0.4,2.6,0.9,4,1.4c1.3,0.5,2.5,1.2,3.6,2c1.1,0.8,2,1.8,2.6,2.9c0.7,1.1,1,2.5,1,4.2v0.1
				C342.9,486.7,342.6,488.3,341.9,489.8z"/>
			<path class="st3" d="M375.6,495.5V491c-1.2,1.5-2.8,2.7-4.7,3.7c-1.9,1-4.3,1.5-7,1.5c-1.7,0-3.4-0.2-5-0.7s-2.9-1.2-4.1-2.1
				c-1.2-0.9-2.1-2.1-2.8-3.5c-0.7-1.4-1.1-3-1.1-4.8v-0.1c0-2,0.4-3.7,1.1-5.1c0.7-1.5,1.8-2.7,3.1-3.6c1.3-1,2.9-1.7,4.7-2.2
				c1.8-0.5,3.8-0.7,5.9-0.7c2.2,0,4.1,0.1,5.6,0.4c1.5,0.3,3,0.6,4.4,1.1v-0.9c0-2.5-0.8-4.4-2.3-5.8s-3.7-2-6.6-2
				c-2.1,0-3.9,0.2-5.5,0.6c-1.6,0.4-3.2,1-4.9,1.6l-2.3-6.7c2-0.9,4.1-1.6,6.2-2.2c2.1-0.5,4.6-0.8,7.6-0.8c5.4,0,9.4,1.3,12,4
				s3.9,6.4,3.9,11.3v21.5L375.6,495.5L375.6,495.5z M375.8,480.1c-1-0.4-2.3-0.8-3.7-1s-3-0.4-4.6-0.4c-2.6,0-4.6,0.5-6.1,1.5
				c-1.5,1-2.2,2.5-2.2,4.3v0.1c0,1.7,0.7,3.1,2,4c1.4,0.9,3,1.4,5,1.4c1.4,0,2.6-0.2,3.8-0.5c1.2-0.4,2.2-0.9,3.1-1.5
				s1.5-1.5,2-2.4c0.5-0.9,0.7-2,0.7-3.1L375.8,480.1L375.8,480.1z"/>
			<path class="st3" d="M414.9,459.5v6.9h-9.5v29.1h-8.4v-29.1h-4.6v-6.9h4.6v-2.6c0-4,1-7,2.9-9c1.9-2,4.7-2.9,8.3-2.9
				c1.5,0,2.7,0.1,3.8,0.3c1,0.2,2,0.4,3,0.7v7c-0.8-0.3-1.6-0.5-2.4-0.6s-1.6-0.2-2.5-0.2c-3.2,0-4.8,1.8-4.8,5.5v2H414.9z"/>
			<path class="st3" d="M432.6,487.1c1.9,1.6,4.2,2.4,6.9,2.4c2.1,0,3.9-0.4,5.4-1.1c1.5-0.7,3-1.8,4.5-3.2l4.9,4.3
				c-1.7,2.1-3.8,3.7-6.2,4.9c-2.4,1.2-5.3,1.9-8.6,1.9c-2.6,0-5-0.5-7.3-1.4s-4.2-2.2-5.9-3.9s-3-3.6-4-5.9c-1-2.3-1.4-4.9-1.4-7.7
				c0-2.6,0.4-5.1,1.3-7.4s2.1-4.3,3.7-6c1.6-1.7,3.4-3.1,5.6-4.1c2.1-1,4.5-1.5,7.1-1.5c2.9,0,5.4,0.5,7.6,1.6c2.2,1,4,2.5,5.4,4.3
				c1.4,1.8,2.5,3.9,3.3,6.2s1.1,4.9,1.1,7.5c0,0.4,0,0.7,0,1.1s-0.1,0.8-0.1,1.2h-26.6C429.6,483.2,430.8,485.5,432.6,487.1z
				 M447.6,474.8c-0.1-1.3-0.4-2.6-0.9-3.7c-0.5-1.2-1.1-2.2-1.9-3c-0.8-0.9-1.7-1.5-2.8-2c-1.1-0.5-2.3-0.8-3.7-0.8
				c-2.6,0-4.7,0.9-6.4,2.6s-2.7,4.1-3.1,6.9L447.6,474.8L447.6,474.8z"/>
		</g>
		<g class="st2">
			<path class="st3" d="M144.5,565.8c0,1.6,0.4,2.8,1.2,3.5c0.8,0.7,1.9,1.1,3.3,1.1c1.8,0,3.5-0.4,5.1-1.2v6.8
				c-1.1,0.6-2.2,1-3.4,1.4s-2.6,0.5-4.1,0.5c-1.5,0-2.9-0.2-4.2-0.5c-1.3-0.4-2.4-1-3.4-1.8c-0.9-0.8-1.7-1.9-2.2-3.3
				c-0.5-1.3-0.8-3-0.8-5.1V548h-4.6v-7.1h4.6v-10h8.4v10h9.8v7.1h-9.8L144.5,565.8L144.5,565.8z"/>
			<path class="st3" d="M198.6,566.4c-1,2.3-2.3,4.3-4.1,6c-1.7,1.7-3.8,3.1-6.1,4.1c-2.4,1-5,1.5-7.8,1.5c-2.8,0-5.3-0.5-7.7-1.5
				s-4.4-2.3-6.1-4c-1.7-1.7-3.1-3.7-4-6c-1-2.3-1.4-4.7-1.4-7.3s0.5-5.1,1.5-7.4c1-2.3,2.3-4.3,4.1-6c1.7-1.7,3.8-3.1,6.1-4.1
				s4.9-1.5,7.7-1.5c2.8,0,5.4,0.5,7.7,1.5s4.4,2.3,6.1,4c1.7,1.7,3.1,3.7,4,6c1,2.3,1.4,4.7,1.4,7.3
				C200,561.7,199.5,564.1,198.6,566.4z M190.8,554.7c-0.6-1.4-1.3-2.7-2.3-3.7s-2.1-1.9-3.5-2.5s-2.8-0.9-4.5-0.9s-3.1,0.3-4.5,0.9
				s-2.5,1.5-3.4,2.5c-1,1-1.7,2.3-2.2,3.7c-0.5,1.4-0.8,2.9-0.8,4.5s0.3,3.1,0.8,4.6c0.6,1.4,1.3,2.7,2.3,3.7s2.1,1.9,3.5,2.5
				s2.8,0.9,4.4,0.9c1.7,0,3.2-0.3,4.5-0.9s2.5-1.5,3.4-2.5s1.7-2.3,2.2-3.7c0.5-1.4,0.8-2.9,0.8-4.5S191.4,556.1,190.8,554.7z"/>
			<path class="st3" d="M239.2,537.8c-1.7,1.2-3.4,3-5.3,5.4l-6-4.7c1.1-1.6,2.3-3,3.5-4.3s2.5-2.3,3.9-3.2c1.4-0.8,2.9-1.5,4.6-2
				c1.7-0.5,3.6-0.7,5.7-0.7c2.4,0,4.6,0.3,6.5,1c2,0.7,3.6,1.7,5,3c1.4,1.3,2.4,2.8,3.2,4.6c0.8,1.8,1.1,3.7,1.1,5.9
				c0,1.9-0.2,3.6-0.8,5.2c-0.5,1.5-1.3,3-2.3,4.4c-1,1.4-2.3,2.9-3.9,4.3c-1.6,1.5-3.4,3.1-5.5,4.8l-9.9,8.2H262v7.4h-34.8v-6.7
				l16.6-14.1c1.6-1.4,3-2.6,4.2-3.7c1.1-1.1,2.1-2.2,2.8-3.2c0.7-1,1.2-2,1.6-3c0.3-1,0.5-2,0.5-3.1c0-2.4-0.7-4.2-2.2-5.5
				c-1.5-1.3-3.3-2-5.5-2C242.8,536,240.9,536.6,239.2,537.8z"/>
			<path class="st3" d="M274.1,536.5v-7.3h31.8v6.3l-13.4,13.7c1.8,0.2,3.6,0.7,5.3,1.3s3.2,1.5,4.5,2.5s2.4,2.4,3.1,4
				c0.8,1.6,1.2,3.5,1.2,5.8s-0.4,4.3-1.2,6.2c-0.8,1.8-2,3.5-3.4,4.8c-1.5,1.3-3.2,2.4-5.3,3.2c-2.1,0.8-4.4,1.1-6.8,1.1
				c-4.2,0-7.8-0.8-10.8-2.4s-5.5-3.6-7.6-6.1l5.9-5.5c1.7,2.1,3.6,3.6,5.6,4.7c2,1.1,4.3,1.6,7,1.6c2.4,0,4.4-0.7,5.9-2
				s2.4-3.1,2.4-5.4c0-2.4-1-4.3-3-5.6c-2-1.3-4.7-1.9-8.1-1.9h-3.9l-1.4-5.3l13-13.8L274.1,536.5L274.1,536.5z"/>
			<path class="st3" d="M357,562.8c-1,3-2.4,5.7-4.3,7.9c-1.8,2.2-4,4-6.6,5.3c-2.6,1.3-5.5,2-8.6,2s-6-0.6-8.6-1.9
				c-2.6-1.3-4.8-3-6.6-5.3c-1.8-2.2-3.2-4.9-4.2-7.9c-1-3-1.5-6.2-1.5-9.7s0.5-6.7,1.5-9.7c1-3,2.4-5.7,4.3-7.9
				c1.8-2.2,4-4,6.6-5.3s5.5-2,8.6-2s6,0.6,8.6,1.9c2.6,1.3,4.8,3,6.6,5.3s3.2,4.9,4.2,7.9s1.5,6.2,1.5,9.7S358,559.7,357,562.8z
				 M349,546.5c-0.6-2.1-1.4-3.9-2.5-5.5c-1.1-1.6-2.4-2.8-3.9-3.7c-1.5-0.9-3.2-1.4-5.1-1.4s-3.6,0.5-5,1.3s-2.8,2.1-3.8,3.6
				s-1.9,3.4-2.4,5.5c-0.6,2.1-0.9,4.3-0.9,6.7c0,2.4,0.3,4.7,0.9,6.8c0.6,2.1,1.4,3.9,2.5,5.5s2.4,2.8,3.9,3.7s3.2,1.3,5.1,1.3
				c1.9,0,3.6-0.5,5-1.3s2.8-2.1,3.8-3.7c1-1.6,1.9-3.4,2.4-5.5c0.6-2.1,0.9-4.3,0.9-6.7C349.8,550.8,349.5,548.6,349,546.5z"/>
			<path class="st3" d="M391.2,544.1c-0.6,1.3-1.5,2.5-2.5,3.6c-1.1,1-2.3,1.8-3.7,2.4c-1.4,0.6-2.8,0.9-4.3,0.9
				c-1.5,0-3-0.3-4.3-0.9c-1.4-0.6-2.6-1.4-3.6-2.4c-1-1-1.9-2.2-2.5-3.6c-0.6-1.3-0.9-2.8-0.9-4.3c0-1.5,0.3-2.9,0.9-4.3
				s1.5-2.5,2.5-3.5c1-1,2.3-1.8,3.6-2.4c1.4-0.6,2.8-0.9,4.3-0.9c1.5,0,3,0.3,4.3,0.9c1.4,0.6,2.6,1.4,3.7,2.4s1.9,2.2,2.5,3.5
				c0.6,1.3,0.9,2.8,0.9,4.3S391.8,542.8,391.2,544.1z M386.7,537.3c-0.3-0.8-0.8-1.5-1.4-2.1c-0.6-0.6-1.3-1.1-2.1-1.4
				s-1.6-0.5-2.6-0.5c-0.9,0-1.8,0.2-2.6,0.5s-1.5,0.8-2.1,1.4c-0.6,0.6-1,1.3-1.3,2.1c-0.3,0.8-0.5,1.6-0.5,2.5
				c0,0.9,0.2,1.8,0.5,2.6c0.3,0.8,0.8,1.5,1.3,2.1c0.6,0.6,1.3,1.1,2.1,1.4c0.8,0.4,1.7,0.5,2.6,0.5c1,0,1.8-0.2,2.6-0.5
				s1.5-0.8,2.1-1.4s1-1.3,1.4-2.1c0.3-0.8,0.5-1.7,0.5-2.6C387.2,539,387,538.1,386.7,537.3z"/>
			<path class="st3" d="M442.6,573c-1.4,1-2.8,1.9-4.4,2.7c-1.6,0.8-3.3,1.3-5.1,1.7c-1.9,0.4-3.9,0.6-6.1,0.6
				c-3.5,0-6.8-0.6-9.8-1.9c-3-1.3-5.5-3-7.7-5.2c-2.2-2.2-3.9-4.8-5.1-7.9c-1.2-3-1.9-6.3-1.9-9.8c0-3.4,0.6-6.7,1.8-9.7
				c1.2-3,2.9-5.7,5.1-7.9c2.2-2.3,4.8-4,7.8-5.4c3-1.3,6.4-2,10-2c2.2,0,4.2,0.2,6,0.5s3.5,0.9,5,1.5c1.5,0.7,2.9,1.5,4.2,2.4
				s2.5,1.9,3.6,3l-5.4,6.2c-1.9-1.8-4-3.2-6.1-4.3c-2.1-1.1-4.6-1.7-7.4-1.7c-2.3,0-4.4,0.5-6.4,1.3c-2,0.9-3.6,2.1-5,3.6
				c-1.4,1.5-2.5,3.3-3.3,5.4s-1.2,4.3-1.2,6.7c0,2.4,0.4,4.6,1.2,6.7c0.8,2.1,1.9,3.9,3.3,5.5c1.4,1.6,3.1,2.8,5,3.7
				c2,0.9,4.1,1.3,6.4,1.3c2.9,0,5.5-0.6,7.5-1.7c2.1-1.1,4.2-2.6,6.2-4.6l5.4,5.5C445.2,570.8,443.9,572,442.6,573z"/>
		</g>
		<path class="st1" d="M109.2,376.8h359.6V17.2H109.2V376.8z M486,394H92V0h394L486,394L486,394z"/>
		<rect x="125.7" y="321" class="st1" width="326.6" height="17.2"/>
		<rect x="125.7" y="61.8" class="st1" width="326.6" height="17.2"/>
	</g>
	<g id="freezer">
		<g class="st2">
			<g>
				<path class="st3" d="M92.3,452.4v7.3h-10v30.9h-8.9v-30.9h-4.9v-7.4h4.9v-2.8c0-4.3,1-7.4,3.1-9.5s5-3.1,8.8-3.1
					c1.6,0,2.9,0.1,4,0.3c1.1,0.2,2.2,0.4,3.1,0.7v7.4c-0.9-0.3-1.7-0.5-2.5-0.7s-1.7-0.3-2.7-0.3c-3.4,0-5.1,1.9-5.1,5.8v2.1
					L92.3,452.4L92.3,452.4z"/>
				<path class="st3" d="M109.7,490.5h-8.9v-38.4h8.9v8.7c1.2-2.9,2.9-5.2,5.2-7c2.2-1.8,5.1-2.5,8.4-2.4v9.3h-0.5
					c-1.9,0-3.7,0.3-5.3,1s-3,1.6-4.2,2.8c-1.2,1.3-2.1,2.9-2.7,4.8c-0.6,1.9-0.9,4.1-0.9,6.7V490.5z"/>
				<path class="st3" d="M142.8,481.7c2,1.7,4.4,2.5,7.3,2.5c2.2,0,4.1-0.4,5.7-1.2c1.6-0.8,3.2-1.9,4.7-3.4l5.2,4.6
					c-1.8,2.2-4,3.9-6.6,5.2s-5.6,2-9.1,2c-2.8,0-5.4-0.5-7.8-1.5s-4.5-2.3-6.3-4.1c-1.8-1.8-3.2-3.9-4.2-6.3
					c-1-2.5-1.5-5.2-1.5-8.2c0-2.8,0.5-5.4,1.4-7.8c0.9-2.4,2.2-4.5,3.9-6.4s3.6-3.3,5.9-4.3c2.3-1.1,4.8-1.6,7.6-1.6
					c3.1,0,5.7,0.6,8,1.7c2.3,1.1,4.2,2.6,5.8,4.5s2.7,4.1,3.5,6.6c0.8,2.5,1.2,5.2,1.2,7.9c0,0.4,0,0.8,0,1.2
					c0,0.4-0.1,0.8-0.1,1.2H139C139.5,477.6,140.8,480,142.8,481.7z M158.6,468.6c-0.1-1.4-0.5-2.7-0.9-4c-0.5-1.2-1.1-2.3-2-3.2
					c-0.8-0.9-1.8-1.6-2.9-2.1c-1.1-0.5-2.4-0.8-3.9-0.8c-2.7,0-5,0.9-6.7,2.8c-1.8,1.9-2.9,4.3-3.2,7.3H158.6z"/>
				<path class="st3" d="M188.7,481.7c2,1.7,4.4,2.5,7.3,2.5c2.2,0,4.1-0.4,5.7-1.2c1.6-0.8,3.2-1.9,4.7-3.4l5.2,4.6
					c-1.8,2.2-4,3.9-6.6,5.2s-5.6,2-9.1,2c-2.8,0-5.4-0.5-7.8-1.5s-4.5-2.3-6.3-4.1c-1.8-1.8-3.2-3.9-4.2-6.3
					c-1-2.5-1.5-5.2-1.5-8.2c0-2.8,0.5-5.4,1.4-7.8c0.9-2.4,2.2-4.5,3.9-6.4s3.6-3.3,5.9-4.3c2.3-1.1,4.8-1.6,7.6-1.6
					c3.1,0,5.7,0.6,8,1.7c2.3,1.1,4.2,2.6,5.8,4.5s2.7,4.1,3.5,6.6c0.8,2.5,1.2,5.2,1.2,7.9c0,0.4,0,0.8,0,1.2
					c0,0.4-0.1,0.8-0.1,1.2h-28.2C185.4,477.6,186.7,480,188.7,481.7z M204.6,468.6c-0.1-1.4-0.5-2.7-0.9-4c-0.5-1.2-1.1-2.3-2-3.2
					c-0.8-0.9-1.8-1.6-2.9-2.1c-1.1-0.5-2.4-0.8-3.9-0.8c-2.7,0-5,0.9-6.7,2.8c-1.8,1.9-2.9,4.3-3.2,7.3H204.6z"/>
				<path class="st3" d="M222.3,459.3v-7.2h32.6v6l-22.2,25.2h22.2v7.2h-33.4v-6l22.2-25.2H222.3z"/>
				<path class="st3" d="M275,481.7c2,1.7,4.4,2.5,7.3,2.5c2.2,0,4.1-0.4,5.7-1.2c1.6-0.8,3.2-1.9,4.7-3.4l5.2,4.6
					c-1.9,2.2-4,3.9-6.6,5.2s-5.6,2-9.1,2c-2.8,0-5.4-0.5-7.8-1.5s-4.5-2.3-6.3-4.1c-1.8-1.8-3.2-3.9-4.2-6.3
					c-1-2.5-1.5-5.2-1.5-8.2c0-2.8,0.5-5.4,1.4-7.8c0.9-2.4,2.2-4.5,3.9-6.4s3.6-3.3,5.9-4.3c2.3-1.1,4.8-1.6,7.6-1.6
					c3.1,0,5.7,0.6,8,1.7c2.3,1.1,4.2,2.6,5.8,4.5s2.7,4.1,3.5,6.6s1.2,5.2,1.2,7.9c0,0.4,0,0.8,0,1.2c0,0.4-0.1,0.8-0.1,1.2h-28.2
					C271.7,477.6,273,480,275,481.7z M290.8,468.6c-0.1-1.4-0.5-2.7-1-4c-0.5-1.2-1.1-2.3-2-3.2c-0.8-0.9-1.8-1.6-3-2.1
					c-1.1-0.5-2.4-0.8-3.9-0.8c-2.7,0-5,0.9-6.7,2.8c-1.8,1.9-2.9,4.3-3.2,7.3H290.8z"/>
				<path class="st3" d="M319.4,490.5h-8.9v-38.4h8.9v8.7c1.2-2.9,2.9-5.2,5.2-7s5-2.5,8.4-2.4v9.3h-0.5c-1.9,0-3.7,0.3-5.3,1
					s-3,1.6-4.1,2.8c-1.2,1.3-2.1,2.9-2.7,4.8c-0.6,1.9-1,4.1-1,6.7V490.5z"/>
				<path class="st3" d="M388.8,484.5c-0.7,1.5-1.7,2.8-3,3.8c-1.3,1-2.8,1.8-4.5,2.3s-3.6,0.8-5.6,0.8c-2.8,0-5.6-0.5-8.4-1.5
					c-2.8-1-5.5-2.4-7.9-4.3l3.9-6c2.1,1.5,4.2,2.7,6.4,3.5s4.2,1.2,6.2,1.2c1.9,0,3.4-0.4,4.4-1.1s1.6-1.8,1.6-3V480
					c0-0.7-0.2-1.4-0.7-1.9c-0.5-0.5-1.1-1-1.9-1.4c-0.8-0.4-1.7-0.8-2.8-1.1c-1-0.3-2.1-0.6-3.2-1c-1.4-0.4-2.8-0.9-4.3-1.5
					c-1.4-0.5-2.7-1.2-3.9-2.1c-1.1-0.9-2.1-1.9-2.8-3.1c-0.7-1.2-1.1-2.8-1.1-4.6v-0.1c0-1.8,0.4-3.4,1.1-4.9
					c0.7-1.5,1.7-2.7,2.9-3.7s2.7-1.8,4.4-2.3c1.7-0.5,3.5-0.8,5.4-0.8c2.4,0,4.9,0.4,7.4,1.2c2.5,0.8,4.7,1.8,6.8,3.2l-3.5,6.3
					c-1.9-1.1-3.7-2-5.6-2.7c-1.9-0.6-3.6-1-5.2-1c-1.7,0-3,0.4-4,1.1s-1.4,1.6-1.4,2.8v0.1c0,0.7,0.2,1.3,0.7,1.8
					c0.5,0.5,1.1,1,1.9,1.4s1.7,0.8,2.8,1.2c1,0.4,2.1,0.7,3.2,1.1c1.4,0.4,2.8,1,4.2,1.5s2.7,1.3,3.8,2.1s2.1,1.9,2.8,3.1
					c0.7,1.2,1.1,2.7,1.1,4.4v0.1C389.9,481.2,389.5,483,388.8,484.5z"/>
				<path class="st3" d="M424.5,490.5v-4.7c-1.3,1.5-3,2.9-5,3.9c-2,1.1-4.5,1.6-7.4,1.6c-1.9,0-3.6-0.2-5.2-0.8s-3.1-1.3-4.3-2.3
					c-1.2-1-2.2-2.2-3-3.7c-0.8-1.5-1.1-3.2-1.1-5.1v-0.1c0-2.1,0.4-3.9,1.2-5.5c0.8-1.5,1.9-2.8,3.2-3.9s3-1.8,5-2.3s4-0.8,6.2-0.8
					c2.3,0,4.3,0.1,5.9,0.4s3.2,0.7,4.7,1.2v-1c0-2.7-0.8-4.7-2.4-6.1c-1.6-1.4-4-2.1-7-2.1c-2.2,0-4.1,0.2-5.8,0.6
					c-1.7,0.4-3.4,1-5.2,1.8l-2.4-7.1c2.1-1,4.3-1.8,6.5-2.3c2.2-0.6,4.9-0.9,8.1-0.9c5.7,0,10,1.4,12.7,4.3s4.1,6.8,4.1,12v22.8
					L424.5,490.5L424.5,490.5z M424.7,474.2c-1.1-0.4-2.4-0.8-4-1.1s-3.1-0.4-4.8-0.4c-2.8,0-4.9,0.5-6.5,1.6
					c-1.5,1.1-2.3,2.6-2.3,4.6v0.1c0,1.8,0.7,3.2,2.1,4.2s3.2,1.5,5.3,1.5c1.5,0,2.8-0.2,4-0.6c1.2-0.4,2.3-0.9,3.2-1.6
					c0.9-0.7,1.6-1.5,2.1-2.5c0.5-1,0.8-2.1,0.8-3.3V474.2z"/>
				<path class="st3" d="M466.1,452.4v7.3h-10v30.9h-8.9v-30.9h-4.9v-7.4h4.9v-2.8c0-4.3,1-7.4,3.1-9.5s5-3.1,8.8-3.1
					c1.5,0,2.9,0.1,4,0.3c1.1,0.2,2.2,0.4,3.1,0.7v7.4c-0.9-0.3-1.7-0.5-2.5-0.7c-0.8-0.2-1.7-0.3-2.7-0.3c-3.4,0-5.1,1.9-5.1,5.8
					v2.1L466.1,452.4L466.1,452.4z"/>
				<path class="st3" d="M484.9,481.7c2,1.7,4.4,2.5,7.3,2.5c2.2,0,4.1-0.4,5.7-1.2c1.6-0.8,3.2-1.9,4.7-3.4l5.2,4.6
					c-1.9,2.2-4,3.9-6.6,5.2s-5.6,2-9.1,2c-2.8,0-5.4-0.5-7.8-1.5s-4.5-2.3-6.3-4.1c-1.8-1.8-3.2-3.9-4.2-6.3
					c-1-2.5-1.5-5.2-1.5-8.2c0-2.8,0.5-5.4,1.4-7.8c0.9-2.4,2.2-4.5,3.9-6.4s3.6-3.3,5.9-4.3c2.3-1.1,4.8-1.6,7.6-1.6
					c3.1,0,5.7,0.6,8,1.7c2.3,1.1,4.2,2.6,5.8,4.5s2.7,4.1,3.5,6.6s1.2,5.2,1.2,7.9c0,0.4,0,0.8,0,1.2c0,0.4-0.1,0.8-0.1,1.2h-28.2
					C481.7,477.6,482.9,480,484.9,481.7z M500.8,468.6c-0.1-1.4-0.5-2.7-1-4c-0.5-1.2-1.1-2.3-2-3.2c-0.8-0.9-1.8-1.6-3-2.1
					c-1.1-0.5-2.4-0.8-3.9-0.8c-2.7,0-5,0.9-6.7,2.8c-1.8,1.9-2.9,4.3-3.2,7.3H500.8z"/>
			</g>
			<g>
				<path class="st3" d="M140.6,565.1c0,1.7,0.4,2.9,1.2,3.7c0.8,0.8,2,1.1,3.5,1.1c1.9,0,3.7-0.4,5.5-1.3v7.2
					c-1.1,0.6-2.3,1.1-3.6,1.5c-1.3,0.3-2.7,0.5-4.4,0.5c-1.6,0-3.1-0.2-4.5-0.6c-1.4-0.4-2.6-1-3.6-1.9s-1.8-2-2.3-3.5
					c-0.5-1.4-0.8-3.2-0.8-5.4v-20.3h-4.9v-7.5h4.9v-10.5h8.9v10.5h10.3v7.5h-10.3V565.1z"/>
				<path class="st3" d="M197.8,565.7c-1,2.4-2.5,4.5-4.3,6.4c-1.8,1.8-4,3.3-6.5,4.3c-2.5,1.1-5.3,1.6-8.2,1.6
					c-2.9,0-5.6-0.5-8.1-1.6s-4.7-2.5-6.5-4.3c-1.8-1.8-3.2-3.9-4.3-6.3c-1-2.4-1.5-5-1.5-7.8s0.5-5.4,1.6-7.8
					c1-2.5,2.5-4.6,4.3-6.4c1.8-1.8,4-3.3,6.5-4.3s5.2-1.6,8.2-1.6s5.7,0.5,8.2,1.6s4.7,2.5,6.5,4.3c1.8,1.8,3.2,3.9,4.3,6.4
					c1,2.4,1.5,5,1.5,7.8C199.4,560.7,198.9,563.3,197.8,565.7z M189.7,553.2c-0.6-1.5-1.4-2.8-2.4-4c-1-1.1-2.3-2-3.7-2.7
					c-1.4-0.7-3-1-4.7-1s-3.3,0.3-4.7,1c-1.4,0.7-2.6,1.5-3.6,2.7s-1.8,2.4-2.3,3.9c-0.5,1.5-0.8,3.1-0.8,4.8s0.3,3.3,0.9,4.8
					s1.4,2.8,2.4,4c1,1.1,2.3,2,3.7,2.7c1.4,0.7,3,1,4.7,1c1.8,0,3.4-0.3,4.8-1s2.6-1.5,3.6-2.7s1.8-2.4,2.3-3.9
					c0.5-1.5,0.8-3.1,0.8-4.8C190.5,556.4,190.2,554.8,189.7,553.2z"/>
				<path class="st3" d="M228.7,559.2v-8.7h21.5v8.7H228.7z"/>
				<path class="st3" d="M296.6,525.8v32.5h7.3v7.3h-7.3v11.4h-8.6v-11.4h-25.7l-1.7-6.4l28.3-33.5L296.6,525.8L296.6,525.8z
					 M288.1,538.2l-16.7,20.2h16.7V538.2z"/>
				<path class="st3" d="M356.7,561.9c-1.1,3.2-2.6,6-4.5,8.4c-1.9,2.4-4.3,4.3-7,5.6s-5.8,2.1-9.1,2.1c-3.4,0-6.4-0.7-9.1-2
					s-5-3.2-7-5.6c-1.9-2.4-3.4-5.2-4.5-8.4c-1-3.2-1.6-6.6-1.6-10.3s0.5-7.1,1.6-10.3s2.6-6,4.5-8.4c1.9-2.4,4.3-4.3,7-5.6
					s5.8-2.1,9.1-2.1c3.4,0,6.4,0.7,9.1,2s5,3.2,7,5.6c1.9,2.4,3.4,5.2,4.5,8.4c1,3.2,1.6,6.6,1.6,10.3
					C358.3,555.2,357.8,558.7,356.7,561.9z M348.1,544.6c-0.6-2.2-1.5-4.2-2.6-5.8c-1.1-1.7-2.5-3-4.1-3.9c-1.6-1-3.4-1.5-5.4-1.5
					c-2,0-3.8,0.5-5.4,1.4c-1.6,1-2.9,2.2-4,3.9s-2,3.6-2.6,5.8c-0.6,2.2-0.9,4.6-0.9,7.1c0,2.6,0.3,5,0.9,7.2
					c0.6,2.2,1.5,4.2,2.6,5.8c1.1,1.7,2.5,3,4.1,3.9c1.6,1,3.4,1.4,5.4,1.4c2,0,3.8-0.5,5.4-1.4c1.6-1,2.9-2.2,4-3.9s2-3.6,2.6-5.8
					c0.6-2.2,0.9-4.6,0.9-7.1C349,549.2,348.8,546.8,348.1,544.6z"/>
				<path class="st3" d="M392.9,542.1c-0.6,1.4-1.5,2.7-2.7,3.8s-2.4,2-3.9,2.6c-1.5,0.6-3,1-4.6,1c-1.6,0-3.1-0.3-4.6-1
					c-1.5-0.6-2.7-1.5-3.9-2.6s-2-2.3-2.7-3.8c-0.6-1.4-1-3-1-4.5s0.3-3.1,1-4.5c0.7-1.4,1.5-2.7,2.7-3.8s2.4-2,3.9-2.6
					c1.5-0.6,3-1,4.6-1c1.6,0,3.1,0.3,4.6,1c1.5,0.6,2.8,1.5,3.9,2.6s2,2.3,2.7,3.8c0.7,1.4,1,2.9,1,4.5
					C393.9,539.1,393.6,540.7,392.9,542.1z M388.1,534.9c-0.3-0.8-0.8-1.6-1.5-2.2c-0.6-0.6-1.4-1.1-2.2-1.5
					c-0.8-0.4-1.8-0.6-2.8-0.6c-1,0-1.9,0.2-2.7,0.6s-1.6,0.9-2.2,1.5c-0.6,0.6-1.1,1.4-1.4,2.2c-0.3,0.8-0.5,1.7-0.5,2.7
					c0,1,0.2,1.9,0.5,2.7s0.8,1.6,1.4,2.2c0.6,0.6,1.3,1.1,2.2,1.5s1.8,0.6,2.7,0.6c1,0,1.9-0.2,2.8-0.6c0.8-0.4,1.5-0.9,2.2-1.5
					s1.1-1.4,1.5-2.2s0.5-1.8,0.5-2.7C388.6,536.6,388.5,535.7,388.1,534.9z"/>
				<path class="st3" d="M447.4,572.7c-1.4,1.1-3,2-4.6,2.8c-1.6,0.8-3.5,1.4-5.4,1.8c-2,0.4-4.1,0.6-6.5,0.6c-3.7,0-7.2-0.7-10.3-2
					c-3.1-1.4-5.9-3.2-8.2-5.6c-2.3-2.3-4.1-5.1-5.4-8.3c-1.3-3.2-2-6.7-2-10.3c0-3.6,0.6-7.1,1.9-10.3c1.3-3.2,3.1-6,5.4-8.4
					c2.3-2.4,5.1-4.3,8.3-5.7c3.2-1.4,6.7-2.1,10.6-2.1c2.3,0,4.5,0.2,6.4,0.6c1.9,0.4,3.7,0.9,5.3,1.6c1.6,0.7,3.1,1.5,4.4,2.5
					c1.4,1,2.6,2,3.9,3.2l-5.8,6.6c-2-1.9-4.2-3.4-6.5-4.6c-2.3-1.2-4.9-1.8-7.8-1.8c-2.4,0-4.7,0.5-6.7,1.4s-3.9,2.2-5.4,3.9
					s-2.7,3.5-3.5,5.7c-0.8,2.2-1.2,4.5-1.2,7.1s0.4,4.9,1.2,7.1c0.8,2.2,2,4.1,3.5,5.8c1.5,1.7,3.3,3,5.4,3.9
					c2.1,1,4.3,1.4,6.7,1.4c3.1,0,5.8-0.6,8-1.8c2.2-1.2,4.4-2.8,6.6-4.8l5.8,5.8C450.1,570.4,448.8,571.6,447.4,572.7z"/>
			</g>
		</g>
		<g class="st2">
			<polygon class="st3" points="296.2,409.6 279.2,409.6 279.2,336.6 235.7,380.1 223.6,368 279.2,312.6 279.2,219.3 196.4,267.6 
				176,344.8 159.6,340.5 175.6,279.7 115.1,314.9 106.6,300.2 169.6,263.5 110.2,247.8 114.5,231.4 190.4,251.4 271.1,204.4 
				190.3,157.1 112.9,177.3 108.6,160.8 169.5,144.9 109.1,109.6 117.7,94.9 180.8,131.8 165.2,72.4 181.7,68.1 201.5,144 
				279.2,189.4 279.2,102.1 223.6,46.7 235.7,34.7 279.2,78.1 279.2,0 296.2,0 296.2,75 340.7,30.6 352.7,42.6 296.2,99.1 
				296.2,189.7 372.4,145.3 392.4,69.4 408.8,73.8 393.2,133.2 460.7,93.8 469.3,108.5 404.4,146.3 465.2,162.3 460.9,178.8 
				383.6,158.4 304.8,204.4 383.3,250.4 459.3,230.5 463.5,247 404.1,262.5 471.5,302 462.9,316.6 398.1,278.7 414,339.5 
				397.5,343.8 377.4,266.6 296.2,219.1 296.2,315.6 352.7,372.1 340.7,384.1 296.2,339.7 			"/>
		</g>
	</g>
	<g id="dish">
		<g class="st2">
			<g>
				<path class="st3" d="M118.8,495.5v-6c-1.3,1.9-3,3.5-5,4.8s-4.4,2-7.4,2c-2.2,0-4.2-0.4-6.2-1.2c-2-0.8-3.8-2-5.3-3.7
					c-1.6-1.6-2.8-3.6-3.8-5.9c-1-2.3-1.4-5-1.4-8c0-3,0.5-5.7,1.4-8c0.9-2.3,2.2-4.3,3.7-5.9s3.3-2.9,5.4-3.7s4.1-1.2,6.3-1.2
					c3,0,5.4,0.6,7.4,1.9s3.6,2.8,4.9,4.5v-19.5h8.4v50.1L118.8,495.5L118.8,495.5z M118.1,472.5c-0.6-1.4-1.3-2.6-2.3-3.7
					s-2.1-1.8-3.3-2.4c-1.3-0.5-2.6-0.8-4-0.8c-1.4,0-2.8,0.3-4,0.8c-1.3,0.5-2.4,1.3-3.3,2.3c-1,1-1.7,2.2-2.3,3.7
					s-0.8,3.1-0.8,4.9c0,1.8,0.3,3.4,0.8,4.8s1.3,2.7,2.3,3.7c1,1,2.1,1.8,3.3,2.3c1.2,0.5,2.6,0.8,4,0.8c1.4,0,2.7-0.3,4-0.8
					c1.3-0.5,2.4-1.3,3.3-2.4c1-1,1.7-2.2,2.3-3.7c0.6-1.4,0.9-3,0.9-4.8C119,475.5,118.7,473.9,118.1,472.5z"/>
				<path class="st3" d="M139.5,453.6v-7.9h9v7.9H139.5z M139.9,495.5v-36.3h8.4v36.3H139.9z"/>
				<path class="st3" d="M185.5,489.8c-0.7,1.4-1.6,2.6-2.9,3.5s-2.6,1.6-4.3,2.1s-3.4,0.7-5.3,0.7c-2.6,0-5.2-0.5-7.9-1.4
					c-2.7-0.9-5.2-2.3-7.4-4l3.7-5.6c2,1.5,4,2.6,6,3.3c2,0.8,4,1.1,5.9,1.1c1.8,0,3.2-0.4,4.2-1.1c1-0.7,1.5-1.7,1.5-2.9v-0.1
					c0-0.7-0.2-1.3-0.6-1.8c-0.4-0.5-1-1-1.8-1.3c-0.8-0.4-1.6-0.7-2.6-1c-1-0.3-2-0.6-3.1-0.9c-1.3-0.4-2.7-0.9-4-1.4
					s-2.6-1.1-3.6-2c-1.1-0.8-2-1.8-2.6-3c-0.7-1.2-1-2.6-1-4.4v-0.1c0-1.7,0.3-3.2,1-4.6c0.7-1.4,1.6-2.5,2.8-3.5s2.5-1.7,4.1-2.2
					c1.6-0.5,3.3-0.8,5.1-0.8c2.3,0,4.6,0.4,6.9,1.1c2.3,0.7,4.5,1.7,6.4,3l-3.3,5.9c-1.7-1-3.5-1.9-5.3-2.5s-3.4-0.9-4.9-0.9
					c-1.6,0-2.9,0.3-3.7,1s-1.3,1.6-1.3,2.6v0.1c0,0.6,0.2,1.2,0.7,1.7c0.5,0.5,1.1,0.9,1.8,1.3c0.8,0.4,1.6,0.8,2.6,1.1
					c1,0.3,2,0.7,3.1,1c1.3,0.4,2.6,0.9,4,1.4s2.5,1.2,3.6,2s2,1.8,2.6,2.9c0.7,1.1,1,2.5,1,4.2v0.1
					C186.6,486.6,186.2,488.3,185.5,489.8z"/>
				<path class="st3" d="M205.3,495.5h-8.4v-50.1h8.4v19.6c0.6-0.9,1.2-1.7,1.9-2.5c0.7-0.8,1.5-1.4,2.5-2s2-1.1,3.1-1.4
					s2.4-0.5,3.8-0.5c4.1,0,7.3,1.3,9.5,3.8s3.4,5.9,3.4,10.2v23.1h-8.4v-20.6c0-2.8-0.7-5-2-6.5s-3.2-2.3-5.7-2.3
					c-2.4,0-4.4,0.8-5.9,2.4c-1.5,1.6-2.2,3.8-2.2,6.6L205.3,495.5L205.3,495.5z"/>
				<path class="st3" d="M276.4,484l7.4-24.9h8.3l-11.9,36.5h-7.4l-8.1-24.8l-8.2,24.8h-7.4l-11.7-36.5h8.5l7.3,24.9l8-25h7.1
					L276.4,484z"/>
				<path class="st3" d="M322.6,495.5V491c-1.2,1.5-2.8,2.7-4.7,3.7c-1.9,1-4.3,1.5-7,1.5c-1.7,0-3.4-0.2-5-0.7s-2.9-1.2-4.1-2.1
					c-1.2-0.9-2.1-2.1-2.8-3.5c-0.7-1.4-1.1-3-1.1-4.8v-0.1c0-2,0.4-3.7,1.1-5.1c0.7-1.5,1.8-2.7,3.1-3.6c1.3-1,2.9-1.7,4.7-2.2
					c1.8-0.5,3.8-0.7,5.9-0.7c2.2,0,4.1,0.1,5.6,0.4c1.5,0.3,3,0.6,4.4,1.1v-0.9c0-2.5-0.8-4.4-2.3-5.8s-3.7-2-6.6-2
					c-2.1,0-3.9,0.2-5.5,0.6c-1.6,0.4-3.2,1-4.9,1.6l-2.3-6.7c2-0.9,4.1-1.6,6.2-2.2c2.1-0.5,4.6-0.8,7.6-0.8c5.4,0,9.4,1.3,12,4
					s3.9,6.4,3.9,11.3v21.5L322.6,495.5L322.6,495.5z M322.8,480.1c-1-0.4-2.3-0.8-3.7-1s-3-0.4-4.6-0.4c-2.6,0-4.6,0.5-6.1,1.5
					c-1.5,1-2.2,2.5-2.2,4.3v0.1c0,1.7,0.7,3.1,2,4c1.4,0.9,3,1.4,5,1.4c1.4,0,2.6-0.2,3.8-0.5c1.2-0.4,2.2-0.9,3.1-1.5
					s1.5-1.5,2-2.4c0.5-0.9,0.7-2,0.7-3.1L322.8,480.1L322.8,480.1z"/>
				<path class="st3" d="M367.6,489.8c-0.7,1.4-1.6,2.6-2.9,3.5s-2.6,1.6-4.3,2.1s-3.4,0.7-5.3,0.7c-2.6,0-5.2-0.5-7.9-1.4
					c-2.7-0.9-5.2-2.3-7.5-4l3.7-5.6c2,1.5,4,2.6,6,3.3c2,0.8,4,1.1,5.9,1.1c1.8,0,3.2-0.4,4.2-1.1c1-0.7,1.5-1.7,1.5-2.9v-0.1
					c0-0.7-0.2-1.3-0.6-1.8c-0.4-0.5-1-1-1.8-1.3c-0.8-0.4-1.6-0.7-2.6-1c-1-0.3-2-0.6-3.1-0.9c-1.3-0.4-2.7-0.9-4-1.4
					c-1.4-0.5-2.6-1.1-3.6-2c-1.1-0.8-2-1.8-2.6-3c-0.7-1.2-1-2.6-1-4.4v-0.1c0-1.7,0.3-3.2,1-4.6c0.7-1.4,1.6-2.5,2.8-3.5
					s2.5-1.7,4.1-2.2c1.6-0.5,3.3-0.8,5-0.8c2.3,0,4.6,0.4,6.9,1.1s4.5,1.7,6.4,3l-3.3,5.9c-1.7-1-3.5-1.9-5.3-2.5s-3.4-0.9-4.9-0.9
					c-1.6,0-2.9,0.3-3.7,1c-0.9,0.7-1.3,1.6-1.3,2.6v0.1c0,0.6,0.2,1.2,0.7,1.7c0.5,0.5,1.1,0.9,1.8,1.3c0.8,0.4,1.6,0.8,2.6,1.1
					c1,0.3,2,0.7,3.1,1c1.3,0.4,2.6,0.9,4,1.4c1.3,0.5,2.5,1.2,3.6,2c1.1,0.8,2,1.8,2.6,2.9c0.7,1.1,1,2.5,1,4.2v0.1
					C368.6,486.6,368.3,488.3,367.6,489.8z"/>
				<path class="st3" d="M387.4,495.5H379v-50.1h8.4v19.6c0.6-0.9,1.2-1.7,2-2.5c0.7-0.8,1.5-1.4,2.5-2c0.9-0.6,2-1.1,3.1-1.4
					s2.4-0.5,3.8-0.5c4.1,0,7.3,1.3,9.5,3.8s3.4,5.9,3.4,10.2v23.1h-8.4v-20.6c0-2.8-0.7-5-2-6.5s-3.2-2.3-5.7-2.3
					c-2.4,0-4.4,0.8-5.9,2.4c-1.5,1.6-2.2,3.8-2.2,6.6L387.4,495.5L387.4,495.5z"/>
				<path class="st3" d="M433.5,487.1c1.9,1.6,4.2,2.4,6.9,2.4c2.1,0,3.9-0.4,5.4-1.1c1.5-0.7,3-1.8,4.5-3.2l4.9,4.3
					c-1.7,2.1-3.8,3.7-6.2,4.9c-2.4,1.2-5.3,1.9-8.6,1.9c-2.6,0-5-0.5-7.3-1.4s-4.2-2.2-5.9-3.9s-3-3.6-4-5.9
					c-1-2.3-1.4-4.9-1.4-7.7c0-2.6,0.4-5.1,1.3-7.4s2.1-4.3,3.7-6c1.6-1.7,3.4-3.1,5.6-4.1c2.1-1,4.5-1.5,7.1-1.5
					c2.9,0,5.4,0.5,7.6,1.6c2.2,1,4,2.5,5.4,4.3c1.4,1.8,2.5,3.9,3.3,6.2s1.1,4.9,1.1,7.5c0,0.4,0,0.7,0,1.1s-0.1,0.8-0.1,1.2h-26.6
					C430.4,483.2,431.6,485.5,433.5,487.1z M448.4,474.8c-0.1-1.3-0.4-2.6-0.9-3.7c-0.5-1.2-1.1-2.2-1.9-3c-0.8-0.9-1.7-1.5-2.8-2
					c-1.1-0.5-2.3-0.8-3.7-0.8c-2.6,0-4.7,0.9-6.4,2.6s-2.7,4.1-3.1,6.9L448.4,474.8L448.4,474.8z"/>
				<path class="st3" d="M475.4,495.5H467v-36.3h8.4v8.2c1.1-2.8,2.8-5,4.9-6.6c2.1-1.6,4.8-2.4,8-2.3v8.8h-0.5
					c-1.8,0-3.5,0.3-5,0.9c-1.5,0.6-2.8,1.5-3.9,2.7c-1.1,1.2-2,2.7-2.5,4.5c-0.6,1.8-0.9,3.9-0.9,6.3L475.4,495.5L475.4,495.5z"/>
			</g>
		</g>
		<g class="st2">
			<g>
				<path class="st3" d="M245.9,571.5c-0.7,1.4-1.6,2.6-2.9,3.5s-2.6,1.7-4.3,2.1s-3.4,0.7-5.3,0.7c-2.6,0-5.2-0.5-7.9-1.4
					s-5.2-2.3-7.4-4l3.7-5.6c2,1.5,4,2.6,6,3.3c2,0.8,4,1.1,5.9,1.1c1.8,0,3.2-0.3,4.2-1.1c1-0.7,1.5-1.7,1.5-2.8v-0.1
					c0-0.7-0.2-1.3-0.6-1.8c-0.4-0.5-1-1-1.8-1.3s-1.6-0.7-2.6-1c-1-0.3-2-0.6-3.1-0.9c-1.3-0.4-2.7-0.9-4-1.4s-2.6-1.2-3.6-2
					c-1.1-0.8-2-1.8-2.6-3c-0.7-1.2-1-2.6-1-4.4v-0.1c0-1.7,0.3-3.2,1-4.6c0.7-1.4,1.6-2.5,2.8-3.5s2.5-1.7,4.1-2.2
					c1.6-0.5,3.3-0.8,5.1-0.8c2.3,0,4.6,0.4,6.9,1.1c2.3,0.7,4.5,1.7,6.4,3l-3.3,5.9c-1.7-1-3.5-1.9-5.3-2.5s-3.4-0.9-4.9-0.9
					c-1.6,0-2.9,0.3-3.7,1s-1.3,1.6-1.3,2.6v0.1c0,0.6,0.2,1.2,0.7,1.7s1.1,0.9,1.8,1.3c0.8,0.4,1.6,0.8,2.6,1.1c1,0.3,2,0.7,3.1,1
					c1.3,0.4,2.6,0.9,4,1.4s2.5,1.2,3.6,2c1.1,0.8,2,1.8,2.6,2.9c0.7,1.2,1,2.5,1,4.2v0.1C247,568.4,246.6,570.1,245.9,571.5z"/>
				<path class="st3" d="M279.6,577.2v-4.5c-1.2,1.5-2.8,2.7-4.7,3.7c-1.9,1-4.3,1.5-7,1.5c-1.7,0-3.4-0.2-5-0.7s-2.9-1.2-4.1-2.1
					c-1.2-0.9-2.1-2.1-2.8-3.5c-0.7-1.4-1.1-3-1.1-4.8v-0.1c0-2,0.4-3.7,1.1-5.2c0.7-1.5,1.8-2.7,3.1-3.6s2.9-1.7,4.7-2.2
					c1.8-0.5,3.8-0.7,5.9-0.7c2.2,0,4.1,0.1,5.6,0.4c1.5,0.3,3,0.6,4.4,1.1v-0.9c0-2.5-0.8-4.4-2.3-5.8s-3.7-2-6.6-2
					c-2.1,0-3.9,0.2-5.5,0.6c-1.6,0.4-3.2,1-4.9,1.7l-2.3-6.7c2-0.9,4.1-1.7,6.2-2.2s4.6-0.8,7.6-0.8c5.4,0,9.4,1.3,12,4
					s3.9,6.4,3.9,11.3v21.5L279.6,577.2L279.6,577.2z M279.8,561.8c-1-0.4-2.3-0.8-3.7-1s-3-0.4-4.6-0.4c-2.6,0-4.6,0.5-6.1,1.5
					c-1.5,1-2.2,2.5-2.2,4.3v0.1c0,1.7,0.7,3.1,2,4c1.4,0.9,3,1.4,5,1.4c1.4,0,2.6-0.2,3.8-0.5c1.2-0.4,2.2-0.9,3.1-1.5
					s1.5-1.5,2-2.4s0.7-2,0.7-3.1L279.8,561.8L279.8,561.8z"/>
				<path class="st3" d="M318.9,541.2v6.9h-9.5v29.1h-8.4v-29.1h-4.6v-6.9h4.6v-2.6c0-4,1-7,2.9-9s4.7-2.9,8.3-2.9
					c1.5,0,2.7,0.1,3.8,0.3c1,0.2,2,0.4,3,0.7v7c-0.8-0.3-1.6-0.5-2.4-0.7c-0.8-0.2-1.6-0.2-2.5-0.2c-3.2,0-4.8,1.8-4.8,5.5v2H318.9
					z"/>
				<path class="st3" d="M336.7,568.8c1.9,1.6,4.2,2.4,6.9,2.4c2.1,0,3.9-0.4,5.4-1.1c1.5-0.7,3-1.8,4.5-3.2l4.9,4.3
					c-1.7,2.1-3.8,3.7-6.2,4.9c-2.4,1.2-5.3,1.8-8.6,1.8c-2.6,0-5-0.5-7.3-1.4s-4.2-2.2-5.9-3.8c-1.7-1.7-3-3.6-4-5.9
					c-1-2.3-1.4-4.9-1.4-7.7c0-2.6,0.4-5.1,1.3-7.3s2.1-4.3,3.7-6c1.6-1.7,3.4-3.1,5.6-4.1c2.1-1,4.5-1.5,7.1-1.5
					c2.9,0,5.4,0.5,7.6,1.6c2.2,1,4,2.5,5.4,4.3c1.4,1.8,2.5,3.9,3.3,6.2s1.1,4.9,1.1,7.5c0,0.4,0,0.7,0,1.1s-0.1,0.8-0.1,1.2h-26.6
					C333.6,565,334.8,567.2,336.7,568.8z M351.6,556.5c-0.1-1.3-0.4-2.6-0.9-3.7c-0.5-1.2-1.1-2.2-1.9-3c-0.8-0.8-1.7-1.5-2.8-2
					c-1.1-0.5-2.3-0.8-3.7-0.8c-2.6,0-4.7,0.9-6.4,2.6s-2.7,4.1-3.1,6.9L351.6,556.5L351.6,556.5z"/>
			</g>
		</g>
		<path class="st1" d="M109.2,376.8h359.6V17.2H109.2V376.8z M486,394H92V0h394L486,394L486,394z"/>
		<rect x="100.6" y="118.8" class="st1" width="376.8" height="17.2"/>
		<rect x="100.6" y="30.2" class="st1" width="376.8" height="17.2"/>
		<path class="st1" d="M289,71.5c-6.4,0-11.6,5.2-11.6,11.6c0,6.4,5.2,11.6,11.6,11.6c6.4,0,11.6-5.2,11.6-11.6
			C300.6,76.7,295.4,71.5,289,71.5 M289,111.9c-15.9,0-28.8-12.9-28.8-28.8c0-15.9,12.9-28.8,28.8-28.8c15.9,0,28.8,12.9,28.8,28.8
			C317.8,99,304.9,111.9,289,111.9"/>
	</g>
	<g id="micro-blue" class="st2">
		<path class="st4" d="M341.2,144.7c-35.5,0-58.2-15.4-80.2-30.4c-19.4-13.2-37.8-25.7-64.3-25.7c-33.7,0-53,20.8-53.2,21l-12.1-11
			c1-1.1,24.5-26.4,65.4-26.4c31.5,0,52.9,14.5,73.5,28.6c20.8,14.2,40.5,27.5,70.9,27.5c59.8,0,92.6-37.7,93-38.1l12.5,10.6
			C445.1,102.6,408.9,144.7,341.2,144.7"/>
		<g>
			<path class="st4" d="M134.2,459.7c2-1.2,4.4-1.8,7.1-1.8c4,0,7.1,1.2,9.4,3.6s3.4,5.9,3.4,10.3v23.2h-8.4v-20.6
				c0-2.9-0.6-5.1-1.9-6.6c-1.3-1.5-3.1-2.3-5.4-2.3c-2.3,0-4.1,0.8-5.6,2.3c-1.4,1.5-2.2,3.8-2.2,6.7v20.5h-8.4v-20.7
				c0-2.8-0.6-5-1.9-6.5c-1.3-1.5-3.1-2.3-5.4-2.3s-4.2,0.8-5.6,2.4c-1.4,1.6-2.1,3.8-2.1,6.7v20.4h-8.4v-36.4h8.4v5.6
				c0.6-0.8,1.2-1.6,1.9-2.4c0.7-0.7,1.5-1.4,2.4-2c0.9-0.6,1.9-1.1,3-1.4c1.1-0.4,2.4-0.5,3.8-0.5c2.6,0,4.8,0.6,6.7,1.8
				s3.2,2.8,4.2,4.7C130.5,462.5,132.2,460.9,134.2,459.7z"/>
			<path class="st4" d="M166.1,453.1v-7.9h9v7.9H166.1z M166.5,495.1v-36.4h8.4v36.4H166.5z"/>
			<path class="st4" d="M213,494c-2.3,1.3-5.2,1.9-8.8,1.9c-2.7,0-5.2-0.5-7.5-1.5c-2.3-1-4.3-2.3-6-4.1c-1.7-1.7-3-3.7-4-6
				c-0.9-2.3-1.4-4.7-1.4-7.3s0.5-5.1,1.4-7.4c0.9-2.3,2.3-4.3,4-6.1s3.7-3.1,6-4.1s4.8-1.5,7.6-1.5c3.4,0,6.3,0.6,8.6,1.7
				c2.3,1.1,4.3,2.7,6,4.5l-5.2,5.6c-1.3-1.3-2.7-2.4-4.1-3.3c-1.4-0.9-3.2-1.3-5.3-1.3c-1.5,0-2.9,0.3-4.2,0.9
				c-1.3,0.6-2.4,1.5-3.3,2.5s-1.6,2.3-2.2,3.7s-0.8,2.9-0.8,4.5c0,1.7,0.3,3.2,0.8,4.6c0.5,1.4,1.3,2.7,2.2,3.7
				c1,1.1,2.1,1.9,3.4,2.5c1.3,0.6,2.8,0.9,4.4,0.9c2,0,3.7-0.4,5.2-1.3c1.5-0.9,2.9-1.9,4.2-3.3l5,5
				C217.3,491.1,215.3,492.8,213,494z"/>
			<path class="st4" d="M236.7,495.1h-8.4v-36.4h8.4v8.2c1.1-2.8,2.8-5,4.9-6.6c2.1-1.7,4.8-2.4,8-2.3v8.8h-0.5
				c-1.8,0-3.5,0.3-5,0.9c-1.5,0.6-2.8,1.5-3.9,2.7c-1.1,1.2-1.9,2.7-2.6,4.5c-0.6,1.8-0.9,3.9-0.9,6.3L236.7,495.1L236.7,495.1z"/>
			<path class="st4" d="M293.4,484.3c-1,2.3-2.3,4.3-4.1,6s-3.8,3.1-6.2,4.1s-5,1.5-7.8,1.5c-2.8,0-5.3-0.5-7.7-1.5
				c-2.4-1-4.4-2.3-6.1-4.1s-3.1-3.7-4-6c-1-2.3-1.5-4.7-1.5-7.3s0.5-5.1,1.5-7.4c1-2.3,2.3-4.3,4.1-6.1s3.8-3.1,6.1-4.1
				c2.4-1,5-1.5,7.8-1.5c2.8,0,5.4,0.5,7.8,1.5c2.4,1,4.4,2.3,6.1,4.1s3.1,3.7,4,6c1,2.3,1.5,4.8,1.5,7.4
				C294.8,479.5,294.3,482,293.4,484.3z M285.6,472.5c-0.5-1.4-1.3-2.7-2.3-3.8c-1-1.1-2.1-1.9-3.5-2.5s-2.8-0.9-4.5-0.9
				s-3.1,0.3-4.5,0.9c-1.4,0.6-2.5,1.5-3.5,2.5s-1.7,2.3-2.2,3.7s-0.8,2.9-0.8,4.5s0.3,3.1,0.8,4.6c0.5,1.5,1.3,2.7,2.3,3.8
				c1,1.1,2.1,1.9,3.5,2.5s2.8,0.9,4.4,0.9c1.7,0,3.2-0.3,4.6-0.9s2.5-1.5,3.5-2.5s1.7-2.3,2.2-3.7s0.8-2.9,0.8-4.5
				S286.1,473.9,285.6,472.5z"/>
			<path class="st4" d="M339.9,483.6l7.5-25h8.3l-11.9,36.7h-7.5l-8.1-24.9l-8.2,24.9h-7.5l-11.8-36.7h8.5l7.3,25l8.1-25.1h7.1
				L339.9,483.6z"/>
			<path class="st4" d="M386.3,495.1v-4.5c-1.2,1.5-2.8,2.7-4.8,3.7c-1.9,1-4.3,1.5-7,1.5c-1.8,0-3.4-0.2-5-0.7s-2.9-1.2-4.1-2.1
				c-1.2-0.9-2.1-2.1-2.8-3.5c-0.7-1.4-1.1-3-1.1-4.9v-0.1c0-2,0.4-3.7,1.1-5.2c0.7-1.5,1.8-2.7,3.1-3.7c1.3-1,2.9-1.7,4.7-2.2
				s3.8-0.7,5.9-0.7c2.2,0,4.1,0.1,5.6,0.4c1.5,0.3,3,0.6,4.5,1.1v-0.9c0-2.5-0.8-4.5-2.3-5.8c-1.5-1.3-3.8-2-6.6-2
				c-2.1,0-3.9,0.2-5.5,0.6s-3.2,1-4.9,1.6l-2.3-6.7c2-0.9,4.1-1.6,6.2-2.2c2.1-0.5,4.7-0.8,7.6-0.8c5.4,0,9.5,1.4,12.1,4
				s3.9,6.5,3.9,11.3v21.6L386.3,495.1L386.3,495.1z M386.5,479.6c-1.1-0.4-2.3-0.8-3.8-1s-3-0.4-4.6-0.4c-2.6,0-4.7,0.5-6.1,1.5
				c-1.5,1-2.2,2.5-2.2,4.4v0.1c0,1.8,0.7,3.1,2,4c1.4,0.9,3,1.4,5,1.4c1.4,0,2.7-0.2,3.8-0.5c1.2-0.4,2.2-0.9,3.1-1.5
				c0.9-0.7,1.5-1.5,2-2.4s0.7-2,0.7-3.1L386.5,479.6L386.5,479.6z"/>
			<path class="st4" d="M430,458.7h8.8l-14.9,36.7h-7.5l-15-36.7h9l9.8,26.8L430,458.7z"/>
			<path class="st4" d="M456,486.7c1.9,1.6,4.2,2.4,6.9,2.4c2.1,0,3.9-0.4,5.4-1.1c1.5-0.7,3-1.8,4.5-3.2l4.9,4.3
				c-1.8,2.1-3.8,3.7-6.2,5s-5.3,1.9-8.6,1.9c-2.6,0-5.1-0.5-7.3-1.4c-2.3-0.9-4.2-2.2-5.9-3.9s-3-3.6-4-6c-1-2.3-1.5-4.9-1.5-7.8
				c0-2.6,0.4-5.1,1.3-7.4c0.9-2.3,2.1-4.3,3.7-6s3.5-3.1,5.6-4.1s4.5-1.5,7.2-1.5c2.9,0,5.4,0.5,7.6,1.6s4,2.5,5.5,4.3
				c1.5,1.8,2.5,3.9,3.3,6.3c0.7,2.4,1.1,4.9,1.1,7.5c0,0.4,0,0.7,0,1.1c0,0.4-0.1,0.8-0.1,1.2h-26.8
				C452.9,482.9,454.1,485.1,456,486.7z M471,474.3c-0.1-1.3-0.4-2.6-0.9-3.8s-1.1-2.2-1.9-3s-1.7-1.5-2.8-2
				c-1.1-0.5-2.3-0.8-3.7-0.8c-2.6,0-4.7,0.9-6.4,2.7s-2.7,4.1-3.1,6.9L471,474.3L471,474.3z"/>
		</g>
		<g>
			<path class="st4" d="M245.8,571.5c-0.7,1.4-1.6,2.6-2.9,3.5s-2.7,1.7-4.3,2.1c-1.6,0.5-3.4,0.7-5.3,0.7c-2.6,0-5.3-0.5-8-1.4
				s-5.2-2.3-7.5-4.1l3.7-5.7c2,1.5,4,2.6,6,3.3c2.1,0.8,4,1.1,5.9,1.1c1.8,0,3.2-0.4,4.2-1.1s1.5-1.7,1.5-2.9v-0.1
				c0-0.7-0.2-1.3-0.6-1.8c-0.4-0.5-1-1-1.8-1.3s-1.6-0.7-2.6-1c-1-0.3-2-0.6-3.1-0.9c-1.3-0.4-2.7-0.9-4-1.4
				c-1.4-0.5-2.6-1.2-3.6-2c-1.1-0.8-2-1.8-2.7-3c-0.7-1.2-1-2.6-1-4.4v-0.1c0-1.7,0.3-3.2,1-4.6s1.6-2.5,2.8-3.5
				c1.2-1,2.6-1.7,4.1-2.2s3.3-0.8,5.1-0.8c2.3,0,4.6,0.4,7,1.1c2.3,0.7,4.5,1.8,6.4,3l-3.3,5.9c-1.8-1.1-3.5-1.9-5.3-2.5
				s-3.4-0.9-5-0.9c-1.6,0-2.9,0.3-3.8,1s-1.3,1.6-1.3,2.6v0.1c0,0.7,0.2,1.2,0.7,1.7s1.1,0.9,1.8,1.3s1.6,0.8,2.6,1.1
				c1,0.3,2,0.7,3.1,1c1.3,0.4,2.7,0.9,4,1.5s2.5,1.2,3.6,2c1.1,0.8,2,1.8,2.7,2.9c0.7,1.2,1,2.5,1,4.2v0.1
				C246.8,568.3,246.4,570,245.8,571.5z"/>
			<path class="st4" d="M279.5,577.2v-4.5c-1.2,1.5-2.8,2.7-4.8,3.7c-1.9,1-4.3,1.5-7,1.5c-1.8,0-3.4-0.2-5-0.7
				c-1.6-0.5-2.9-1.2-4.1-2.1c-1.2-0.9-2.1-2.1-2.8-3.5c-0.7-1.4-1.1-3-1.1-4.9v-0.1c0-2,0.4-3.7,1.1-5.2c0.7-1.5,1.8-2.7,3.1-3.7
				c1.3-1,2.9-1.7,4.7-2.2s3.8-0.7,5.9-0.7c2.2,0,4.1,0.1,5.6,0.4c1.5,0.3,3,0.7,4.5,1.1v-0.9c0-2.5-0.8-4.5-2.3-5.8
				c-1.5-1.3-3.8-2-6.6-2c-2.1,0-3.9,0.2-5.5,0.6s-3.2,1-4.9,1.7l-2.3-6.7c2-0.9,4.1-1.7,6.2-2.2c2.1-0.5,4.7-0.8,7.6-0.8
				c5.4,0,9.5,1.3,12.1,4s3.9,6.5,3.9,11.3v21.6L279.5,577.2L279.5,577.2z M279.8,561.7c-1.1-0.4-2.3-0.8-3.8-1
				c-1.5-0.3-3-0.4-4.6-0.4c-2.6,0-4.7,0.5-6.1,1.5s-2.2,2.5-2.2,4.3v0.1c0,1.8,0.7,3.1,2,4c1.4,0.9,3,1.4,5,1.4
				c1.4,0,2.7-0.2,3.8-0.5c1.2-0.4,2.2-0.9,3.1-1.5c0.9-0.7,1.5-1.5,2-2.4s0.7-2,0.7-3.1L279.8,561.7L279.8,561.7z"/>
			<path class="st4" d="M319.1,541v6.9h-9.5v29.2h-8.4v-29.2h-4.6v-7h4.6v-2.6c0-4,1-7,2.9-9c2-2,4.7-2.9,8.3-2.9
				c1.5,0,2.7,0.1,3.8,0.3s2,0.4,3,0.7v7c-0.8-0.3-1.6-0.5-2.4-0.7c-0.8-0.2-1.6-0.2-2.5-0.2c-3.2,0-4.8,1.8-4.8,5.5v2L319.1,541
				L319.1,541z"/>
			<path class="st4" d="M336.9,568.8c1.9,1.6,4.2,2.4,6.9,2.4c2.1,0,3.9-0.4,5.4-1.1c1.5-0.7,3-1.8,4.5-3.2l4.9,4.3
				c-1.8,2.1-3.8,3.7-6.2,5s-5.3,1.9-8.6,1.9c-2.6,0-5.1-0.5-7.3-1.4c-2.3-0.9-4.2-2.2-5.9-3.9c-1.7-1.7-3-3.6-4-6
				c-1-2.3-1.5-4.9-1.5-7.8c0-2.6,0.4-5.1,1.3-7.4s2.1-4.3,3.7-6c1.6-1.7,3.5-3.1,5.6-4.1c2.2-1,4.5-1.5,7.2-1.5
				c2.9,0,5.4,0.5,7.6,1.6s4,2.5,5.5,4.3c1.5,1.8,2.5,3.9,3.3,6.3s1.1,4.9,1.1,7.5c0,0.4,0,0.7,0,1.1c0,0.4-0.1,0.8-0.1,1.2h-26.8
				C333.8,564.9,335,567.2,336.9,568.8z M351.9,556.4c-0.1-1.3-0.4-2.6-0.9-3.8s-1.1-2.2-1.9-3c-0.8-0.8-1.7-1.5-2.8-2
				c-1.1-0.5-2.3-0.8-3.7-0.8c-2.6,0-4.7,0.9-6.4,2.7c-1.7,1.8-2.7,4.1-3.1,6.9L351.9,556.4L351.9,556.4z"/>
		</g>
		<path class="st4" d="M341.2,323.6c-35.5,0-58.2-15.5-80.2-30.4c-19.4-13.2-37.8-25.7-64.3-25.7c-33.7,0-53,20.8-53.2,21l-12.1-11
			c1-1.1,24.5-26.4,65.4-26.4c31.5,0,52.9,14.5,73.5,28.6c20.8,14.1,40.5,27.5,70.9,27.5c60.2,0,92.6-37.7,92.9-38l12.6,10.6
			C445.1,281.5,408.9,323.6,341.2,323.6"/>
		<path class="st4" d="M341.2,235.3c-35.5,0-58.2-15.4-80.2-30.4c-19.4-13.2-37.8-25.7-64.3-25.7c-33.4,0-53.1,20.9-53.2,21.1
			l-12.1-11.1c1-1.1,24.5-26.4,65.4-26.4c31.5,0,52.9,14.5,73.5,28.6c20.8,14.1,40.5,27.5,70.9,27.5c60.2,0,92.6-37.7,92.9-38.1
			l12.6,10.6C445.2,193.1,408.9,235.3,341.2,235.3"/>
		<path class="st4" d="M110.1,379.5h357.7v-363H110.1V379.5z M484.3,395.9H93.7V0h390.6L484.3,395.9L484.3,395.9z"/>
	</g>
	<g id="Layer_6">
		<g class="st2">
			<g>
				<path class="st4" d="M118.8,495.5v-6c-1.3,1.9-3,3.5-5,4.8s-4.4,2-7.4,2c-2.2,0-4.2-0.4-6.2-1.2s-3.8-2-5.3-3.7
					c-1.6-1.6-2.8-3.6-3.8-5.9c-1-2.3-1.4-5-1.4-8c0-3,0.5-5.7,1.4-8c0.9-2.3,2.2-4.3,3.7-5.9c1.6-1.6,3.3-2.9,5.4-3.7
					s4.1-1.2,6.3-1.2c3,0,5.4,0.6,7.4,1.9s3.6,2.8,4.9,4.5v-19.5h8.4v50.1L118.8,495.5L118.8,495.5z M118.1,472.5
					c-0.6-1.4-1.3-2.6-2.3-3.7s-2.1-1.8-3.3-2.4c-1.3-0.5-2.6-0.8-4-0.8c-1.4,0-2.8,0.3-4,0.8s-2.4,1.3-3.3,2.3
					c-1,1-1.7,2.2-2.3,3.7s-0.8,3.1-0.8,4.9c0,1.8,0.3,3.4,0.8,4.8s1.3,2.7,2.3,3.7c1,1,2.1,1.8,3.3,2.3s2.6,0.8,4,0.8
					c1.4,0,2.7-0.3,4-0.8c1.3-0.5,2.4-1.3,3.3-2.4c1-1,1.7-2.3,2.3-3.7c0.6-1.4,0.9-3,0.9-4.8C118.9,475.5,118.7,473.9,118.1,472.5z
					"/>
				<path class="st4" d="M139.5,453.6v-7.9h9v7.9H139.5z M139.8,495.5v-36.3h8.4v36.3H139.8z"/>
				<path class="st4" d="M185.5,489.8c-0.7,1.4-1.6,2.6-2.9,3.5s-2.6,1.6-4.3,2.1s-3.4,0.7-5.3,0.7c-2.6,0-5.2-0.5-7.9-1.4
					c-2.7-0.9-5.2-2.3-7.4-4l3.7-5.6c2,1.5,4,2.6,6,3.3c2,0.8,4,1.1,5.9,1.1c1.8,0,3.2-0.4,4.2-1.1c1-0.7,1.5-1.7,1.5-2.9v-0.1
					c0-0.7-0.2-1.3-0.6-1.8c-0.4-0.5-1-1-1.8-1.3c-0.8-0.4-1.6-0.7-2.6-1c-1-0.3-2-0.6-3.1-0.9c-1.3-0.4-2.7-0.9-4-1.4
					s-2.6-1.2-3.6-2s-2-1.8-2.6-3c-0.7-1.2-1-2.6-1-4.4v-0.1c0-1.7,0.3-3.2,1-4.6c0.7-1.4,1.6-2.5,2.8-3.5s2.5-1.7,4.1-2.2
					c1.6-0.5,3.3-0.8,5.1-0.8c2.3,0,4.6,0.4,6.9,1.1s4.5,1.7,6.4,3l-3.3,5.9c-1.7-1-3.5-1.9-5.3-2.5s-3.4-0.9-4.9-0.9
					c-1.6,0-2.9,0.3-3.7,1s-1.3,1.6-1.3,2.6v0.1c0,0.6,0.2,1.2,0.7,1.7c0.5,0.5,1.1,0.9,1.8,1.3c0.8,0.4,1.6,0.8,2.6,1.1
					c1,0.3,2,0.7,3.1,1c1.3,0.4,2.6,0.9,4,1.4s2.5,1.2,3.6,2s2,1.8,2.6,2.9c0.7,1.1,1,2.5,1,4.2v0.1
					C186.5,486.6,186.2,488.3,185.5,489.8z"/>
				<path class="st4" d="M205.4,495.5H197v-50.1h8.4v19.6c0.6-0.9,1.2-1.7,1.9-2.5c0.7-0.8,1.5-1.4,2.5-2c0.9-0.6,2-1.1,3.1-1.4
					s2.4-0.5,3.8-0.5c4.1,0,7.3,1.3,9.5,3.8s3.4,5.9,3.4,10.2v23.1h-8.4v-20.6c0-2.8-0.7-5-2-6.5s-3.2-2.3-5.7-2.3
					c-2.4,0-4.4,0.8-5.9,2.4c-1.5,1.6-2.2,3.8-2.2,6.6L205.4,495.5L205.4,495.5z"/>
				<path class="st4" d="M276.4,484l7.4-24.9h8.3l-11.9,36.5h-7.4l-8.1-24.8l-8.2,24.8h-7.4l-11.7-36.5h8.5l7.3,24.9l8-25h7.1
					L276.4,484z"/>
				<path class="st4" d="M322.6,495.5V491c-1.2,1.5-2.8,2.7-4.7,3.7c-1.9,1-4.3,1.5-7,1.5c-1.7,0-3.4-0.2-4.9-0.7
					c-1.6-0.5-2.9-1.2-4.1-2.1c-1.2-0.9-2.1-2.1-2.8-3.5c-0.7-1.4-1.1-3-1.1-4.8v-0.1c0-2,0.4-3.7,1.1-5.1c0.7-1.5,1.8-2.7,3.1-3.6
					c1.3-1,2.9-1.7,4.7-2.2c1.8-0.5,3.8-0.7,5.9-0.7c2.2,0,4.1,0.1,5.6,0.4c1.5,0.3,3,0.6,4.4,1.1v-0.9c0-2.5-0.8-4.4-2.3-5.8
					s-3.7-2-6.6-2c-2.1,0-3.9,0.2-5.5,0.6c-1.6,0.4-3.2,1-4.9,1.6l-2.3-6.7c2-0.9,4.1-1.6,6.2-2.2c2.1-0.5,4.6-0.8,7.6-0.8
					c5.4,0,9.4,1.3,12,4s3.9,6.4,3.9,11.3v21.5L322.6,495.5L322.6,495.5z M322.9,480.1c-1-0.4-2.3-0.8-3.7-1s-3-0.4-4.6-0.4
					c-2.6,0-4.6,0.5-6.1,1.5c-1.5,1-2.2,2.5-2.2,4.3v0.1c0,1.7,0.7,3.1,2,4c1.4,0.9,3,1.4,5,1.4c1.4,0,2.6-0.2,3.8-0.5
					c1.2-0.4,2.2-0.9,3.1-1.5c0.9-0.7,1.5-1.5,2-2.4s0.7-2,0.7-3.1L322.9,480.1L322.9,480.1z"/>
				<path class="st4" d="M367.6,489.8c-0.7,1.4-1.6,2.6-2.9,3.5s-2.6,1.6-4.3,2.1s-3.4,0.7-5.3,0.7c-2.6,0-5.2-0.5-7.9-1.4
					c-2.7-0.9-5.2-2.3-7.5-4l3.7-5.6c2,1.5,4,2.6,6,3.3c2,0.8,4,1.1,5.9,1.1c1.8,0,3.2-0.4,4.1-1.1c1-0.7,1.5-1.7,1.5-2.9v-0.1
					c0-0.7-0.2-1.3-0.6-1.8c-0.4-0.5-1-1-1.8-1.3s-1.6-0.7-2.6-1c-1-0.3-2-0.6-3.1-0.9c-1.3-0.4-2.7-0.9-4-1.4
					c-1.4-0.5-2.6-1.2-3.6-2s-2-1.8-2.6-3c-0.7-1.2-1-2.6-1-4.4v-0.1c0-1.7,0.3-3.2,1-4.6c0.7-1.4,1.6-2.5,2.8-3.5s2.5-1.7,4.1-2.2
					c1.6-0.5,3.3-0.8,5-0.8c2.3,0,4.6,0.4,6.9,1.1c2.3,0.7,4.5,1.7,6.4,3l-3.3,5.9c-1.7-1-3.5-1.9-5.3-2.5s-3.4-0.9-4.9-0.9
					c-1.6,0-2.9,0.3-3.7,1c-0.9,0.7-1.3,1.6-1.3,2.6v0.1c0,0.6,0.2,1.2,0.7,1.7c0.5,0.5,1.1,0.9,1.8,1.3c0.8,0.4,1.6,0.8,2.6,1.1
					c1,0.3,2,0.7,3.1,1c1.3,0.4,2.6,0.9,4,1.4c1.3,0.5,2.5,1.2,3.6,2s2,1.8,2.6,2.9c0.7,1.1,1,2.5,1,4.2v0.1
					C368.7,486.6,368.3,488.3,367.6,489.8z"/>
				<path class="st4" d="M387.4,495.5H379v-50.1h8.4v19.6c0.6-0.9,1.2-1.7,2-2.5c0.7-0.8,1.5-1.4,2.5-2s2-1.1,3.1-1.4
					s2.4-0.5,3.8-0.5c4.1,0,7.3,1.3,9.5,3.8s3.4,5.9,3.4,10.2v23.1h-8.4v-20.6c0-2.8-0.7-5-2-6.5s-3.2-2.3-5.7-2.3
					c-2.4,0-4.4,0.8-5.9,2.4c-1.5,1.6-2.2,3.8-2.2,6.6L387.4,495.5L387.4,495.5z"/>
				<path class="st4" d="M433.5,487.1c1.9,1.6,4.2,2.4,6.9,2.4c2.1,0,3.9-0.4,5.4-1.1c1.5-0.7,3-1.8,4.5-3.2l4.9,4.3
					c-1.7,2.1-3.8,3.7-6.2,4.9c-2.4,1.2-5.3,1.9-8.6,1.9c-2.6,0-5-0.5-7.3-1.4c-2.3-0.9-4.2-2.2-5.9-3.9s-3-3.6-4-5.9
					c-1-2.3-1.4-4.9-1.4-7.7c0-2.6,0.4-5.1,1.3-7.4s2.1-4.3,3.7-6c1.6-1.7,3.5-3.1,5.6-4.1s4.5-1.5,7.1-1.5c2.9,0,5.4,0.5,7.6,1.6
					s4,2.5,5.4,4.3c1.4,1.8,2.5,3.9,3.3,6.2s1.1,4.9,1.1,7.5c0,0.4,0,0.7,0,1.1c0,0.4-0.1,0.8-0.1,1.2h-26.6
					C430.4,483.2,431.6,485.5,433.5,487.1z M448.5,474.8c-0.1-1.3-0.4-2.6-0.9-3.7c-0.5-1.2-1.1-2.2-1.9-3c-0.8-0.9-1.7-1.5-2.8-2
					c-1.1-0.5-2.3-0.8-3.7-0.8c-2.6,0-4.7,0.9-6.4,2.6s-2.7,4.1-3.1,6.9L448.5,474.8L448.5,474.8z"/>
				<path class="st4" d="M475.5,495.5h-8.4v-36.3h8.4v8.2c1.1-2.8,2.8-4.9,4.9-6.6c2.1-1.6,4.8-2.4,8-2.3v8.8h-0.5
					c-1.8,0-3.5,0.3-5,0.9c-1.5,0.6-2.8,1.5-3.9,2.7s-2,2.7-2.5,4.5c-0.6,1.8-0.9,3.9-0.9,6.3L475.5,495.5L475.5,495.5z"/>
			</g>
		</g>
		<g class="st2">
			<g>
				<path class="st4" d="M245.9,571.5c-0.7,1.4-1.6,2.6-2.9,3.5s-2.6,1.7-4.3,2.1s-3.4,0.7-5.3,0.7c-2.6,0-5.2-0.5-7.9-1.4
					c-2.7-0.9-5.2-2.3-7.4-4l3.7-5.6c2,1.5,4,2.6,6,3.3c2,0.8,4,1.1,5.9,1.1c1.8,0,3.2-0.3,4.2-1.1c1-0.7,1.5-1.7,1.5-2.8v-0.1
					c0-0.7-0.2-1.3-0.6-1.8c-0.4-0.5-1-1-1.8-1.3s-1.6-0.7-2.6-1c-1-0.3-2-0.6-3.1-0.9c-1.3-0.4-2.7-0.9-4-1.4s-2.6-1.2-3.6-2
					c-1.1-0.8-2-1.8-2.6-3s-1-2.6-1-4.4v-0.1c0-1.7,0.3-3.2,1-4.6c0.7-1.4,1.6-2.5,2.8-3.5s2.5-1.7,4.1-2.2s3.3-0.8,5.1-0.8
					c2.3,0,4.6,0.4,6.9,1.1s4.5,1.7,6.4,3l-3.3,5.9c-1.7-1-3.5-1.9-5.3-2.5s-3.4-0.9-4.9-0.9c-1.6,0-2.9,0.3-3.7,1s-1.3,1.6-1.3,2.6
					v0.1c0,0.6,0.2,1.2,0.7,1.7s1.1,0.9,1.8,1.3c0.8,0.4,1.6,0.8,2.6,1.1c1,0.3,2,0.7,3.1,1c1.3,0.4,2.6,0.9,4,1.4s2.5,1.2,3.6,2
					c1.1,0.8,2,1.8,2.6,2.9c0.7,1.1,1,2.5,1,4.2v0.1C247,568.4,246.6,570.1,245.9,571.5z"/>
				<path class="st4" d="M279.6,577.2v-4.5c-1.2,1.5-2.8,2.7-4.7,3.7s-4.3,1.5-7,1.5c-1.7,0-3.4-0.2-4.9-0.7
					c-1.6-0.5-2.9-1.2-4.1-2.1c-1.2-0.9-2.1-2.1-2.8-3.5c-0.7-1.4-1.1-3-1.1-4.8v-0.1c0-2,0.4-3.7,1.1-5.2c0.7-1.5,1.8-2.7,3.1-3.6
					c1.3-1,2.9-1.7,4.7-2.2c1.8-0.5,3.8-0.7,5.9-0.7c2.2,0,4.1,0.1,5.6,0.4c1.5,0.3,3,0.6,4.4,1.1v-0.9c0-2.5-0.8-4.4-2.3-5.8
					s-3.7-2-6.6-2c-2.1,0-3.9,0.2-5.5,0.6c-1.6,0.4-3.2,1-4.9,1.7l-2.3-6.7c2-0.9,4.1-1.7,6.2-2.2c2.1-0.5,4.6-0.8,7.6-0.8
					c5.4,0,9.4,1.3,12,4s3.9,6.4,3.9,11.3v21.5L279.6,577.2L279.6,577.2z M279.8,561.8c-1-0.4-2.3-0.8-3.7-1s-3-0.4-4.6-0.4
					c-2.6,0-4.6,0.5-6.1,1.5s-2.2,2.5-2.2,4.3v0.1c0,1.7,0.7,3.1,2,4c1.4,0.9,3,1.4,5,1.4c1.4,0,2.6-0.2,3.8-0.5
					c1.2-0.4,2.2-0.9,3.1-1.5c0.9-0.7,1.5-1.5,2-2.4s0.7-2,0.7-3.1L279.8,561.8L279.8,561.8z"/>
				<path class="st4" d="M318.9,541.2v6.9h-9.5v29.1h-8.4v-29.1h-4.6v-6.9h4.6v-2.6c0-4,1-7,2.9-9c1.9-2,4.7-2.9,8.3-2.9
					c1.5,0,2.7,0.1,3.8,0.3c1,0.2,2,0.4,3,0.7v7c-0.8-0.3-1.6-0.5-2.4-0.7c-0.8-0.2-1.6-0.2-2.5-0.2c-3.2,0-4.8,1.8-4.8,5.5v2
					L318.9,541.2L318.9,541.2z"/>
				<path class="st4" d="M336.7,568.8c1.9,1.6,4.2,2.4,6.9,2.4c2.1,0,3.9-0.4,5.4-1.1c1.5-0.7,3-1.8,4.5-3.2l4.9,4.3
					c-1.7,2.1-3.8,3.7-6.2,4.9c-2.4,1.2-5.3,1.8-8.6,1.8c-2.6,0-5-0.5-7.3-1.4c-2.3-0.9-4.2-2.2-5.9-3.8c-1.7-1.7-3-3.6-4-5.9
					c-1-2.3-1.4-4.9-1.4-7.7c0-2.6,0.4-5.1,1.3-7.3s2.1-4.3,3.7-6c1.6-1.7,3.5-3.1,5.6-4.1s4.5-1.5,7.1-1.5c2.9,0,5.4,0.5,7.6,1.6
					c2.2,1,4,2.5,5.4,4.3c1.4,1.8,2.5,3.9,3.3,6.2s1.1,4.9,1.1,7.5c0,0.4,0,0.7,0,1.1c0,0.4-0.1,0.8-0.1,1.2h-26.6
					C333.6,565,334.8,567.2,336.7,568.8z M351.6,556.5c-0.1-1.3-0.4-2.6-0.9-3.7c-0.5-1.2-1.1-2.2-1.9-3c-0.8-0.8-1.7-1.5-2.8-2
					c-1.1-0.5-2.3-0.8-3.7-0.8c-2.6,0-4.7,0.9-6.4,2.6s-2.7,4.1-3.1,6.9L351.6,556.5L351.6,556.5z"/>
			</g>
		</g>
		<path class="st5" d="M109.2,376.8h359.6V17.2H109.2V376.8z M486,394H92V0h394L486,394L486,394z"/>
		<rect x="100.6" y="118.8" class="st5" width="376.8" height="17.2"/>
		<rect x="100.6" y="30.2" class="st5" width="376.8" height="17.2"/>
		<path class="st5" d="M289,71.5c-6.4,0-11.6,5.2-11.6,11.6c0,6.4,5.2,11.6,11.6,11.6c6.4,0,11.6-5.2,11.6-11.6
			C300.6,76.7,295.4,71.5,289,71.5 M289,111.9c-15.9,0-28.8-12.9-28.8-28.8c0-15.9,12.9-28.8,28.8-28.8c15.9,0,28.8,12.9,28.8,28.8
			C317.8,99,304.9,111.9,289,111.9"/>
	</g>
</g>
<g id="Layer_3" class="st0">
	<g class="st2">
		<path class="st6" d="M60.5,436.1h-6.7v-29.3h6.7v4.5c1.9-2.8,4.6-5.2,9.1-5.2c6.6,0,10.4,4.4,10.4,11.3v18.6h-6.7v-16.6
			c0-4.5-2.3-7.2-6.3-7.2c-3.9,0-6.6,2.7-6.6,7.3V436.1z"/>
		<path class="st6" d="M107.4,406.8h6.7v29.3h-6.7v-4.5c-1.9,2.8-4.6,5.2-9.1,5.2c-6.6,0-10.4-4.4-10.4-11.3v-18.6h6.7v16.6
			c0,4.5,2.3,7.2,6.3,7.2c3.9,0,6.6-2.7,6.6-7.3V406.8z"/>
		<path class="st6" d="M156.7,406.2c6.4,0,10.3,4,10.3,11.2v18.7h-6.7v-16.6c0-4.7-2.2-7.2-5.9-7.2c-3.7,0-6.3,2.6-6.3,7.3v16.5
			h-6.7v-16.7c0-4.5-2.2-7.1-5.9-7.1c-3.7,0-6.3,2.8-6.3,7.3v16.5h-6.7v-29.3h6.7v4.4c1.9-2.6,4.4-5,8.9-5c4.2,0,7.2,2,8.7,5.2
			C149.2,408.2,152.3,406.2,156.7,406.2z"/>
		<path class="st6" d="M191.7,436.7c-4.8,0-7.9-2.4-9.9-5.2v4.5h-6.7v-40.5h6.7v16.1c2.2-3.1,5.2-5.5,9.9-5.5
			c6.9,0,13.6,5.5,13.6,15.2S198.7,436.7,191.7,436.7z M190.2,412c-4.5,0-8.5,3.7-8.5,9.4s4,9.4,8.5,9.4c4.6,0,8.4-3.6,8.4-9.4
			C198.5,415.7,194.7,412,190.2,412z"/>
		<path class="st6" d="M225.7,431.2c3.3,0,5.6-1.2,7.9-3.5l3.9,3.5c-2.8,3.3-6.6,5.5-12,5.5c-8.5,0-15-6.2-15-15.3
			c0-8.4,5.9-15.3,14.3-15.3c9.3,0,14,7.3,14,15.8c0,0.6-0.1,1.2-0.1,1.8h-21.5C218.1,428.6,221.4,431.2,225.7,431.2z M232.3,419.4
			c-0.4-4.3-3-7.7-7.4-7.7c-4.1,0-7,3.2-7.6,7.7H232.3z"/>
		<path class="st6" d="M252.4,436.1h-6.7v-29.3h6.7v6.6c1.8-4.4,5.2-7.4,10.4-7.2v7.1h-0.4c-5.9,0-10,3.8-10,11.6V436.1z"/>
		<path class="st6" d="M299.1,436.7c-8.9,0-15.5-6.8-15.5-15.2c0-8.4,6.7-15.4,15.6-15.4c9,0,15.6,6.8,15.6,15.2
			C314.8,429.8,308.1,436.7,299.1,436.7z M299.1,412.1c-5.4,0-8.8,4.2-8.8,9.4c0,5.2,3.7,9.5,8.9,9.5c5.4,0,8.9-4.2,8.9-9.4
			C308.1,416.3,304.3,412.1,299.1,412.1z"/>
		<path class="st6" d="M337.4,407v5.6h-7.6v23.5h-6.7v-23.5h-3.7V407h3.7v-2.1c0-6.4,3.2-9.6,9-9.6c2.3,0,3.9,0.3,5.4,0.8v5.6
			c-1.3-0.4-2.5-0.7-3.9-0.7c-2.6,0-3.9,1.4-3.9,4.4v1.6H337.4z"/>
		<path class="st6" d="M365.7,436.1H359v-29.3h6.7v6.6c1.8-4.4,5.2-7.4,10.4-7.2v7.1h-0.4c-5.9,0-10,3.8-10,11.6V436.1z"/>
		<path class="st6" d="M394.4,431.2c3.3,0,5.6-1.2,7.9-3.5l3.9,3.5c-2.8,3.3-6.6,5.5-12,5.5c-8.5,0-15-6.2-15-15.3
			c0-8.4,5.9-15.3,14.3-15.3c9.3,0,14,7.3,14,15.8c0,0.6-0.1,1.2-0.1,1.8H386C386.8,428.6,390.1,431.2,394.4,431.2z M401,419.4
			c-0.4-4.3-3-7.7-7.4-7.7c-4.1,0-7,3.2-7.6,7.7H401z"/>
		<path class="st6" d="M427.9,436.7c-8.7,0-15.1-6.8-15.1-15.2s6.4-15.4,15.2-15.4c5.6,0,9,2,11.7,5l-4.2,4.5
			c-2-2.2-4.2-3.7-7.6-3.7c-4.9,0-8.4,4.2-8.4,9.4c0,5.3,3.6,9.5,8.8,9.5c3.2,0,5.5-1.5,7.6-3.7l4,4
			C437,434.5,433.6,436.7,427.9,436.7z"/>
		<path class="st6" d="M461.3,436.9c-2.3,6-4.9,8.2-9.7,8.2c-2.8,0-4.9-0.7-6.9-1.8l2.3-5c1.2,0.7,2.5,1.1,3.9,1.1
			c1.9,0,3.1-0.8,4.2-3.4l-12.2-29.3h7.2l8.3,21.7l7.6-21.7h7L461.3,436.9z"/>
		<path class="st6" d="M490.6,436.7c-8.7,0-15.1-6.8-15.1-15.2s6.4-15.4,15.2-15.4c5.6,0,9,2,11.7,5l-4.2,4.5
			c-2.1-2.2-4.2-3.7-7.6-3.7c-4.9,0-8.4,4.2-8.4,9.4c0,5.3,3.6,9.5,8.8,9.5c3.2,0,5.5-1.5,7.6-3.7l4,4
			C499.7,434.5,496.4,436.7,490.6,436.7z"/>
		<path class="st6" d="M509.1,436.1v-40.5h6.7v40.5H509.1z"/>
		<path class="st6" d="M538.1,431.2c3.3,0,5.6-1.2,7.9-3.5l3.9,3.5c-2.8,3.3-6.6,5.5-12,5.5c-8.5,0-15-6.2-15-15.3
			c0-8.4,5.9-15.3,14.3-15.3c9.3,0,14,7.3,14,15.8c0,0.6-0.1,1.2-0.1,1.8h-21.5C530.5,428.6,533.8,431.2,538.1,431.2z M544.7,419.4
			c-0.4-4.3-3-7.7-7.4-7.7c-4.1,0-7,3.2-7.6,7.7H544.7z"/>
		<path class="st6" d="M580.1,436.1v-4.9c-2.2,3.1-5.2,5.5-10,5.5c-6.9,0-13.6-5.5-13.6-15.2s6.6-15.2,13.6-15.2
			c4.8,0,7.9,2.4,10,5.2v-15.7h6.7v40.5H580.1z M571.7,412c-4.6,0-8.4,3.5-8.4,9.4c0,5.8,3.9,9.4,8.4,9.4c4.5,0,8.5-3.7,8.5-9.4
			S576.2,412,571.7,412z"/>
		<path class="st6" d="M20.6,490.1h-7.7v12.5H6.1v-38.8h15.3c9,0,14.7,5.1,14.7,13C36.1,485.5,29.1,490.1,20.6,490.1z M20.8,469.9
			h-7.9v14h7.9c5.2,0,8.4-2.8,8.4-7C29.2,472.3,25.9,469.9,20.8,469.9z"/>
		<path class="st6" d="M71.9,469.8h-22v10.1h19.5v6.1H49.9v10.4h22.2v6.1H43.1v-38.8h28.8V469.8z"/>
		<path class="st6" d="M96.6,502.5h-6.9v-32.5H77.4v-6.3h31.5v6.3H96.6V502.5z"/>
		<path class="st6" d="M148.6,503.1c-4.8,0-7.9-2.4-9.9-5.2v4.5h-6.7v-40.5h6.7v16.1c2.2-3.1,5.2-5.5,9.9-5.5
			c6.9,0,13.6,5.5,13.6,15.2S155.6,503.1,148.6,503.1z M147,478.5c-4.5,0-8.5,3.7-8.5,9.4s4,9.4,8.5,9.4c4.6,0,8.4-3.6,8.4-9.4
			C155.4,482.1,151.6,478.5,147,478.5z"/>
		<path class="st6" d="M183,503.2c-8.9,0-15.5-6.8-15.5-15.2c0-8.4,6.7-15.4,15.6-15.4c9,0,15.6,6.8,15.6,15.2
			C198.7,496.3,192,503.2,183,503.2z M183,478.5c-5.4,0-8.8,4.2-8.8,9.4c0,5.2,3.7,9.5,8.9,9.5c5.4,0,8.9-4.2,8.9-9.4
			C191.9,482.8,188.2,478.5,183,478.5z"/>
		<path class="st6" d="M213.5,493.4c0,2.6,1.3,3.7,3.6,3.7c1.5,0,2.8-0.3,4.2-1v5.5c-1.7,0.9-3.5,1.5-6,1.5c-4.9,0-8.4-2.2-8.4-8.6
			V479h-3.7v-5.8h3.7v-8h6.7v8h7.9v5.8h-7.9V493.4z"/>
		<path class="st6" d="M236.2,493.4c0,2.6,1.3,3.7,3.6,3.7c1.5,0,2.8-0.3,4.2-1v5.5c-1.7,0.9-3.5,1.5-6,1.5c-4.9,0-8.4-2.2-8.4-8.6
			V479h-3.7v-5.8h3.7v-8h6.7v8h7.9v5.8h-7.9V493.4z"/>
		<path class="st6" d="M251.3,502.5v-40.5h6.7v40.5H251.3z"/>
		<path class="st6" d="M280.2,497.7c3.3,0,5.6-1.2,7.9-3.5l3.9,3.5c-2.8,3.3-6.6,5.5-12,5.5c-8.5,0-15-6.2-15-15.3
			c0-8.4,5.9-15.3,14.3-15.3c9.3,0,14,7.3,14,15.8c0,0.6-0.1,1.2-0.1,1.8h-21.5C272.6,495.1,275.9,497.7,280.2,497.7z M286.8,485.8
			c-0.4-4.3-3-7.7-7.4-7.7c-4.1,0-7,3.2-7.6,7.7H286.8z"/>
		<path class="st6" d="M310.2,503.1c-4.2,0-8.8-1.5-12.4-4.4l3-4.5c3.2,2.4,6.6,3.6,9.6,3.6c2.9,0,4.5-1.2,4.5-3.2v-0.1
			c0-2.3-3.1-3.1-6.5-4.1c-4.3-1.2-9.1-3-9.1-8.6v-0.1c0-5.6,4.6-8.9,10.4-8.9c3.7,0,7.7,1.3,10.8,3.3l-2.7,4.8
			c-2.8-1.7-5.8-2.8-8.3-2.8c-2.6,0-4.1,1.2-4.1,2.9v0.1c0,2.1,3.2,3,6.6,4.1c4.3,1.3,9.1,3.3,9.1,8.5v0.1
			C321.1,500,316.3,503.1,310.2,503.1z"/>
		<path class="st6" d="M363.7,473.3h6.7v29.3h-6.7V498c-1.9,2.8-4.6,5.2-9.2,5.2c-6.6,0-10.4-4.4-10.4-11.3v-18.6h6.7v16.6
			c0,4.5,2.3,7.2,6.3,7.2c3.9,0,6.6-2.7,6.6-7.3V473.3z"/>
		<path class="st6" d="M388.9,503.1c-4.2,0-8.8-1.5-12.4-4.4l3-4.5c3.2,2.4,6.6,3.6,9.6,3.6c2.9,0,4.5-1.2,4.5-3.2v-0.1
			c0-2.3-3.1-3.1-6.5-4.1c-4.3-1.2-9.2-3-9.2-8.6v-0.1c0-5.6,4.6-8.9,10.4-8.9c3.7,0,7.6,1.3,10.8,3.3l-2.7,4.8
			c-2.8-1.7-5.8-2.8-8.3-2.8c-2.6,0-4.1,1.2-4.1,2.9v0.1c0,2.1,3.2,3,6.6,4.1c4.3,1.3,9.1,3.3,9.1,8.5v0.1
			C399.7,500,395,503.1,388.9,503.1z"/>
		<path class="st6" d="M420.1,497.7c3.3,0,5.6-1.2,7.9-3.5l3.9,3.5c-2.8,3.3-6.6,5.5-12,5.5c-8.5,0-15-6.2-15-15.3
			c0-8.4,5.9-15.3,14.3-15.3c9.3,0,14,7.3,14,15.8c0,0.6-0.1,1.2-0.1,1.8h-21.5C412.4,495.1,415.7,497.7,420.1,497.7z M426.6,485.8
			c-0.4-4.3-3-7.7-7.4-7.7c-4.1,0-7,3.2-7.6,7.7H426.6z"/>
		<path class="st6" d="M462.1,502.5v-4.9c-2.2,3.1-5.2,5.5-10,5.5c-6.9,0-13.6-5.5-13.6-15.2s6.6-15.2,13.6-15.2
			c4.8,0,7.9,2.4,10,5.2v-15.7h6.7v40.5H462.1z M453.7,478.5c-4.6,0-8.4,3.5-8.4,9.4c0,5.8,3.9,9.4,8.4,9.4c4.5,0,8.5-3.7,8.5-9.4
			S458.2,478.5,453.7,478.5z"/>
		<path class="st6" d="M522.8,493.3l6-20.1h6.7l-9.6,29.5h-6l-6.5-20l-6.6,20h-6l-9.5-29.5h6.9l5.9,20.1l6.5-20.2h5.7L522.8,493.3z"
			/>
		<path class="st6" d="M548.1,502.5h-6.7v-40.5h6.7v15.7c1.9-2.8,4.6-5.2,9.1-5.2c6.6,0,10.4,4.4,10.4,11.3v18.6H561v-16.6
			c0-4.5-2.3-7.2-6.3-7.2c-3.9,0-6.6,2.7-6.6,7.3V502.5z"/>
		<path class="st6" d="M589.3,497.7c3.3,0,5.6-1.2,7.9-3.5l3.9,3.5c-2.8,3.3-6.6,5.5-12,5.5c-8.5,0-15-6.2-15-15.3
			c0-8.4,5.9-15.3,14.3-15.3c9.3,0,14,7.3,14,15.8c0,0.6-0.1,1.2-0.1,1.8h-21.5C581.6,495.1,585,497.7,589.3,497.7z M595.8,485.8
			c-0.4-4.3-3-7.7-7.4-7.7c-4.1,0-7,3.2-7.6,7.7H595.8z"/>
		<path class="st6" d="M615.9,502.5h-6.7v-29.3h6.7v4.5c1.9-2.8,4.6-5.2,9.1-5.2c6.6,0,10.4,4.4,10.4,11.3v18.6h-6.7v-16.6
			c0-4.5-2.3-7.2-6.3-7.2c-3.9,0-6.6,2.7-6.6,7.3V502.5z"/>
		<path class="st6" d="M37.9,539.1c6.4,0,10.3,4,10.3,11.2V569h-6.7v-16.6c0-4.7-2.2-7.2-5.9-7.2c-3.7,0-6.3,2.6-6.3,7.3V569h-6.7
			v-16.7c0-4.5-2.2-7.1-5.9-7.1c-3.7,0-6.3,2.8-6.3,7.3V569H3.6v-29.3h6.7v4.4c1.9-2.6,4.4-5,8.9-5c4.2,0,7.2,2,8.7,5.2
			C30.3,541.2,33.4,539.1,37.9,539.1z"/>
		<path class="st6" d="M74.1,569v-3.6c-2,2.4-5,4.2-9.5,4.2c-5.5,0-10.4-3.2-10.4-9v-0.1c0-6.3,5-9.4,11.9-9.4
			c3.5,0,5.8,0.5,8.1,1.2v-0.7c0-4-2.6-6.3-7.2-6.3c-3.3,0-5.7,0.7-8.4,1.8l-1.8-5.4c3.2-1.4,6.4-2.4,11.1-2.4
			c8.7,0,12.9,4.5,12.9,12.4V569H74.1z M74.3,556.6c-1.7-0.7-4.1-1.2-6.7-1.2c-4.2,0-6.7,1.7-6.7,4.7v0.1c0,2.8,2.5,4.3,5.7,4.3
			c4.4,0,7.8-2.5,7.8-6.2V556.6z"/>
		<path class="st6" d="M95.4,569h-6.7v-29.3h6.7v4.5c1.9-2.8,4.6-5.2,9.2-5.2c6.6,0,10.4,4.4,10.4,11.3V569h-6.7v-16.6
			c0-4.5-2.3-7.2-6.3-7.2c-3.9,0-6.6,2.7-6.6,7.3V569z"/>
		<path class="st6" d="M142.3,539.7h6.7V569h-6.7v-4.5c-1.9,2.8-4.6,5.2-9.2,5.2c-6.6,0-10.4-4.4-10.4-11.3v-18.6h6.7v16.6
			c0,4.5,2.3,7.2,6.3,7.2c3.9,0,6.6-2.7,6.6-7.3V539.7z"/>
		<path class="st6" d="M173.3,540v5.6h-7.6V569h-6.7v-23.5h-3.7v-5.6h3.7v-2.1c0-6.4,3.2-9.6,9-9.6c2.3,0,3.9,0.3,5.4,0.8v5.6
			c-1.3-0.4-2.5-0.7-3.9-0.7c-2.5,0-3.9,1.4-3.9,4.4v1.6H173.3z"/>
		<path class="st6" d="M195.4,569v-3.6c-2,2.4-5,4.2-9.5,4.2c-5.5,0-10.4-3.2-10.4-9v-0.1c0-6.3,5-9.4,11.9-9.4
			c3.5,0,5.8,0.5,8.1,1.2v-0.7c0-4-2.5-6.3-7.2-6.3c-3.3,0-5.7,0.7-8.4,1.8l-1.8-5.4c3.2-1.4,6.4-2.4,11.1-2.4
			c8.7,0,12.9,4.5,12.9,12.4V569H195.4z M195.6,556.6c-1.7-0.7-4.1-1.2-6.7-1.2c-4.2,0-6.7,1.7-6.7,4.7v0.1c0,2.8,2.5,4.3,5.7,4.3
			c4.4,0,7.8-2.5,7.8-6.2V556.6z"/>
		<path class="st6" d="M223.5,569.7c-8.7,0-15.1-6.8-15.1-15.2s6.4-15.4,15.2-15.4c5.5,0,9,2,11.7,5l-4.2,4.5
			c-2.1-2.2-4.2-3.7-7.6-3.7c-4.9,0-8.4,4.2-8.4,9.4c0,5.3,3.6,9.5,8.8,9.5c3.2,0,5.5-1.5,7.6-3.7l4,4
			C232.6,567.4,229.2,569.7,223.5,569.7z"/>
		<path class="st6" d="M249.7,559.9c0,2.6,1.3,3.7,3.6,3.7c1.5,0,2.8-0.3,4.2-1v5.5c-1.7,0.9-3.5,1.5-6,1.5c-4.9,0-8.4-2.2-8.4-8.6
			v-15.4h-3.7v-5.8h3.7v-8h6.7v8h7.9v5.8h-7.9V559.9z"/>
		<path class="st6" d="M283.6,539.7h6.7V569h-6.7v-4.5c-1.9,2.8-4.6,5.2-9.1,5.2c-6.6,0-10.4-4.4-10.4-11.3v-18.6h6.7v16.6
			c0,4.5,2.3,7.2,6.3,7.2c3.9,0,6.6-2.7,6.6-7.3V539.7z"/>
		<path class="st6" d="M305.4,569h-6.7v-29.3h6.7v6.6c1.8-4.4,5.2-7.4,10.4-7.2v7.1h-0.4c-5.9,0-10,3.8-10,11.6V569z"/>
		<path class="st6" d="M321.7,535.3v-6.4h7.2v6.4H321.7z M322,569v-29.3h6.7V569H322z"/>
		<path class="st6" d="M344.1,569h-6.7v-29.3h6.7v4.5c1.9-2.8,4.6-5.2,9.1-5.2c6.6,0,10.4,4.4,10.4,11.3V569H357v-16.6
			c0-4.5-2.3-7.2-6.3-7.2c-3.9,0-6.6,2.7-6.6,7.3V569z"/>
		<path class="st6" d="M384.8,578c-4.8,0-9.3-1.2-13.1-3.5l2.5-5c3.1,1.9,6.4,3.1,10.4,3.1c6,0,9.3-3.1,9.3-9v-2.3
			c-2.4,3.2-5.5,5.4-10.3,5.4c-6.9,0-13.3-5.1-13.3-13.8c0-8.7,6.5-13.8,13.3-13.8c4.9,0,8,2.3,10.3,5v-4.4h6.7V563
			C400.5,573.4,394.9,578,384.8,578z M385.3,544.8c-4.7,0-8.3,3.2-8.3,8.1c0,4.9,3.7,8.1,8.3,8.1c4.7,0,8.6-3.3,8.6-8.1
			C393.9,548,390,544.8,385.3,544.8z"/>
		<path class="st6" d="M433.6,559.9c0,2.6,1.3,3.7,3.6,3.7c1.5,0,2.8-0.3,4.2-1v5.5c-1.7,0.9-3.5,1.5-6,1.5c-4.9,0-8.4-2.2-8.4-8.6
			v-15.4h-3.7v-5.8h3.7v-8h6.7v8h7.9v5.8h-7.9V559.9z"/>
		<path class="st6" d="M454.9,569h-6.7v-40.5h6.7v15.7c1.9-2.8,4.6-5.2,9.1-5.2c6.6,0,10.4,4.4,10.4,11.3V569h-6.7v-16.6
			c0-4.5-2.3-7.2-6.3-7.2c-3.9,0-6.6,2.7-6.6,7.3V569z"/>
		<path class="st6" d="M496.1,564.2c3.3,0,5.6-1.2,7.9-3.5l3.9,3.5c-2.8,3.3-6.6,5.5-12,5.5c-8.5,0-15-6.2-15-15.3
			c0-8.4,5.9-15.3,14.3-15.3c9.3,0,14,7.3,14,15.8c0,0.6-0.1,1.2-0.1,1.8h-21.5C488.4,561.5,491.8,564.2,496.1,564.2z M502.6,552.3
			c-0.4-4.3-3-7.7-7.4-7.7c-4.1,0-7,3.2-7.6,7.7H502.6z"/>
		<path class="st6" d="M549.3,569.6c-4.8,0-7.9-2.4-9.9-5.2v4.5h-6.7v-40.5h6.7v16.1c2.2-3.1,5.2-5.5,9.9-5.5
			c6.9,0,13.6,5.5,13.6,15.2C562.9,564.1,556.2,569.6,549.3,569.6z M547.7,545c-4.5,0-8.5,3.7-8.5,9.4c0,5.7,4,9.4,8.5,9.4
			c4.6,0,8.4-3.6,8.4-9.4C556.1,548.6,552.3,545,547.7,545z"/>
		<path class="st6" d="M587.7,569v-3.6c-2,2.4-5.1,4.2-9.5,4.2c-5.5,0-10.4-3.2-10.4-9v-0.1c0-6.3,5-9.4,11.9-9.4
			c3.5,0,5.8,0.5,8.1,1.2v-0.7c0-4-2.6-6.3-7.2-6.3c-3.3,0-5.7,0.7-8.4,1.8l-1.8-5.4c3.2-1.4,6.4-2.4,11.1-2.4
			c8.6,0,12.9,4.5,12.9,12.4V569H587.7z M587.8,556.6c-1.7-0.7-4.1-1.2-6.7-1.2c-4.2,0-6.7,1.7-6.7,4.7v0.1c0,2.8,2.5,4.3,5.7,4.3
			c4.4,0,7.8-2.5,7.8-6.2V556.6z"/>
		<path class="st6" d="M615.3,578c-4.8,0-9.3-1.2-13.1-3.5l2.5-5c3.1,1.9,6.4,3.1,10.4,3.1c6,0,9.3-3.1,9.3-9v-2.3
			c-2.4,3.2-5.5,5.4-10.3,5.4c-6.9,0-13.3-5.1-13.3-13.8c0-8.7,6.5-13.8,13.3-13.8c4.9,0,8,2.3,10.3,5v-4.4h6.7V563
			C631,573.4,625.4,578,615.3,578z M615.8,544.8c-4.7,0-8.3,3.2-8.3,8.1c0,4.9,3.7,8.1,8.3,8.1c4.7,0,8.6-3.3,8.6-8.1
			C624.4,548,620.5,544.8,615.8,544.8z"/>
	</g>
	<g class="st2">
		<g>
			<path class="st6" d="M365.9,107.7c-15.6-18.6-21.8-40-24.2-55.2h-5.1h-6.1c2.4,16.8,9.2,41.2,27.4,62.9
				c0.3,0.3,30.5,29.1,33,69.9l-2.2,122.6l-0.2,2.2c-0.1,0.2-0.1,0.5-0.2,0.7c-0.4,2.5-1,4.4-1.9,6.1c-5.5,10.9-19,15.3-30,9.8
				c-4-2-7.2-5-9.4-8.8c-1-1.7-2.7-2.7-4.6-2.8c-0.1,0-0.1,0-0.2,0c-1.8,0-3.6,0.9-4.6,2.5c-6.2,9.3-18.5,12.6-28.6,7.6
				c-4-2-7.2-5-9.4-8.9c-0.9-1.6-2.6-2.7-4.5-2.8c-1.8-0.2-3.7,0.8-4.8,2.3c-6.3,8.8-18.5,11.9-28.2,7c-6.3-3.1-10.6-8.9-11.9-15.9
				c0-0.1,0-0.1,0-0.2c-0.3-2.8-0.6-6.6-0.8-9.2l-1.2-112.8c1.5-38.8,28.4-71.6,29-72.4c11.6-17.4,18.3-42.6,21.9-60h-5.7h-4.6
				c-0.4,0-0.7-0.1-1-0.2c-3.4,16.3-9.5,38.7-19.4,53.5c-1.2,1.4-29.5,36-31.2,78.9l1.2,113.2c0.1,3,0.5,7.4,0.8,10.1
				c0,0.6,0.1,1.2,0.3,1.8c2,10.1,8.5,18.5,17.7,23.1c12.3,6.1,27.2,3.8,37.2-5c2.8,3,6.1,5.5,9.8,7.3c12.7,6.3,27.8,3.7,37.8-5.6
				c2.7,2.9,5.9,5.3,9.6,7.1c4.8,2.4,9.9,3.5,14.9,3.5c12.2,0,24.1-6.7,29.9-18.2c1.2-2.4,2.1-5,2.7-8c0.2-0.5,0.4-1.1,0.4-1.7
				l0.2-1.9c0.1-0.7,0.1-1.4,0.2-2.7l2.1-122.5C399.2,139.4,366.8,108.5,365.9,107.7z"/>
		</g>
		<g>
			<path class="st6" d="M293.4,52.4h5.7h31.3h6.1h5.1h2.1c3.1,0,5.5-2.5,5.5-5.5V5.5c0-3.1-2.5-5.5-5.5-5.5h-55
				c-3.1,0-5.5,2.5-5.5,5.5v41.4c0,2.7,2,4.8,4.5,5.3c0.3,0.1,0.7,0.2,1,0.2H293.4z M301.1,41.4h-5.6h-1.1v-14V11.1h43.9v17v13.3
				h-2.4h-6.5H301.1z"/>
		</g>
		<g>
			<polygon class="st6" points="313.1,230.1 295,256.3 310.3,256.3 320.7,240.2 331.1,256.3 346.8,256.3 328.6,229.8 346.1,204.6 
				330.7,204.6 321,219.6 311.3,204.6 295.6,204.6 			"/>
		</g>
	</g>
</g>
<g id="Layer_4">
	<g>
		<g>
			<path class="st6" d="M532.1,239.9c-3.6-6.5-8.1-18.9-8.6-20.3c-1.9-6.6-9.7-29.6-30.9-56.2c-28.3-35.5-67.9-62.7-117.7-80.9
				c2.1-26.3-4.9-41.8-9.4-48.8c-15.3-23.9-36.9-27-54.1-27c-7.9,0-14.9,0.8-21.1,2.1C276.3,3,261.4,0,245.9,0
				C212.4,0,181,16,155,46.4c-22,25.7-38.6,60.4-45.6,95.2c-3.8,18.9-6.2,55-2.6,89.6c3.2,30.2,12.2,69.4,37.1,85.2
				c15.6,9.9,29.7,11.7,36.7,11.8c4.6,0.1,8.7-2.8,10.1-7.2l6.1-19.4c0.9-2.7,0.6-5.7-0.9-8.2c-1.4-2.5-3.8-4.2-6.5-4.9
				c-25.3-6-24.7-39.1-24.6-40.5v-0.1c0-12.6,5-37.6,18.4-50.8c6.1-6,13.3-9,21.6-9c0.1,0,0.2,0,0.4,0c41.3,0.5,42.2,12.4,45.9,62.5
				l6.2,71c0.7,8.5,7.8,15,16.4,15h60.3c9.1,0,16.4-7.4,16.4-16.4v-56.1c0-2.7,2.2-4.9,4.9-4.9h40.4c2.7,0,4.9,2.2,4.9,4.9v56.1
				c0,9.1,7.4,16.4,16.4,16.4h55.4c7.4,0,14-5,15.9-12.2c11.7-43.4,7.2-100.3,5-120.2c9,10.9,10.3,14.2,12.4,25.4
				c0.4,1.9,0.5,14.6,0.3,20.1c-0.1,3.1,1.2,5.1,2.4,6.2c3.2,3.1,8.7,3.1,14.2,2.7c0.8-0.1,7.5-0.8,10.4-6.2
				C535.1,248.9,534.7,244.7,532.1,239.9 M525.7,248.4c-0.5,0.9-2.5,1.6-3.6,1.7c-5,0.4-6.8,0-7.4-0.2c0.1-4.3,0.1-18.6-0.5-21.8
				c-2.7-14.3-4.8-18.1-18.3-34.2l-0.4-0.4c-1.8-1.7-5.2-4.2-8.6-2.4c-1.6,0.8-3.4,2.7-2.7,7c0.1,0.7,9.7,73.3-4,124.1
				c-0.9,3.5-4.1,5.9-7.7,5.9h-55.4c-4.4,0-7.9-3.6-7.9-7.9v-56.1c0-7.4-6-13.4-13.4-13.4h-40.4c-7.4,0-13.4,6-13.4,13.4v56.1
				c0,4.4-3.6,7.9-7.9,7.9h-60.3c-4.2,0-7.6-3.1-7.9-7.3l-6.2-70.9c-3.8-50.8-5.2-69.8-54.3-70.3c-10.8-0.1-20.2,3.8-28,11.5
				c-15.3,15.1-20.9,42.2-20.9,56.7c-0.4,14.3,5.6,42.9,31.2,48.9c0.6,0.1,0.9,0.5,1,0.8c0.3,0.5,0.3,1,0.2,1.5l-6.1,19.4
				c-0.2,0.8-1,1.4-1.8,1.3c-6.1-0.1-18.5-1.7-32.4-10.5c-40-25.4-38.2-129-30.8-166c6.7-33.4,22.6-66.7,43.7-91.3
				c16.9-19.8,45.4-43.4,84.4-43.4c10.5,0,20.7,1.5,30.4,4.4c-10.6,4.1-17.1,9.1-19.7,11.3c-1.8,1.5-1.9,4.2-0.4,6
				c1.5,1.8,4.2,1.9,6,0.4c8.5-7.4,25.8-15.3,49.1-15.3c22.5,0,36.6,6.9,46.9,23c6.6,10.4,19,41.3-9,104.5
				c-13.1,29.6-37.5,41.6-63.7,31.4c-2.2-0.8-4.6,0.2-5.5,2.4c-0.9,2.2,0.2,4.6,2.4,5.5c7.1,2.8,14.2,4.2,21.2,4.2
				c7.3,0,14.4-1.5,21-4.6c13.6-6.2,24.7-18.5,32.3-35.5c9.6-21.7,14.6-39.9,16.8-55c47.5,17.6,85.2,43.7,112.1,77.5
				c20.4,25.6,27.7,47.4,29.4,53.4l0.1,0.3c0.2,0.6,5.1,14.2,9.2,21.6C525.9,246.4,526,247.8,525.7,248.4"/>
			<path class="st6" d="M248.7,71.8c-6.7-10.4-18-16.5-30.4-16.5c-6.9,0-13.7,2-19.5,5.7c-8.1,5.2-13.7,13.3-15.7,22.7
				c-2,9.4-0.3,19.1,4.9,27.2c6.7,10.4,18,16.6,30.4,16.6c6.9,0,13.7-2,19.5-5.7C254.6,110.9,259.5,88.5,248.7,71.8 M218.4,119.6
				c-5,0-9.6-1.4-13.7-3.7c2.5,0.9,5.2,1.5,8.1,1.5c12.8,0,23.2-10.4,23.2-23.2c0-12.8-10.4-23.2-23.2-23.2
				c-11,0-20.2,7.7-22.6,17.9c1.2-14.6,13.2-26,28.1-26c15.6,0,28.3,12.7,28.3,28.3S234,119.6,218.4,119.6"/>
		</g>
		<g>
			<path class="st6" d="M88.3,435.5v-3.6c-2,2.4-5.1,4.2-9.5,4.2c-5.6,0-10.5-3.2-10.5-9.1V427c0-6.4,5.1-9.5,11.9-9.5
				c3.6,0,5.9,0.5,8.1,1.2V418c0-4.1-2.6-6.3-7.2-6.3c-3.3,0-5.7,0.7-8.4,1.8l-1.8-5.4c3.2-1.4,6.4-2.4,11.2-2.4
				c8.7,0,12.9,4.6,12.9,12.4v17.4H88.3z M88.5,423.1c-1.7-0.7-4.1-1.2-6.7-1.2c-4.2,0-6.7,1.7-6.7,4.7v0.1c0,2.8,2.5,4.3,5.7,4.3
				c4.5,0,7.8-2.5,7.8-6.2V423.1z"/>
			<path class="st6" d="M103.4,435.5v-40.7h6.7v40.7H103.4z"/>
			<path class="st6" d="M119.3,435.5v-40.7h6.7v40.7H119.3z"/>
			<path class="st6" d="M179,435.5h-7.8l-8.9-12.7l-4.1,4.3v8.4h-6.7v-40.7h6.7v24.3l12.2-13h8.2l-11.7,12L179,435.5z"/>
			<path class="st6" d="M184,401.6v-6.4h7.2v6.4H184z M184.3,435.5v-29.4h6.7v29.4H184.3z"/>
			<path class="st6" d="M222,435.5v-4.9c-2.2,3.1-5.2,5.5-10,5.5c-6.9,0-13.6-5.5-13.6-15.3c0-9.8,6.6-15.3,13.6-15.3
				c4.8,0,7.9,2.4,10,5.2v-15.8h6.7v40.7H222z M213.6,411.4c-4.6,0-8.5,3.6-8.5,9.5c0,5.8,3.9,9.5,8.5,9.5c4.5,0,8.5-3.7,8.5-9.5
				S218.1,411.4,213.6,411.4z"/>
			<path class="st6" d="M247.2,436.1c-4.2,0-8.8-1.5-12.5-4.4l3-4.6c3.2,2.4,6.6,3.6,9.6,3.6c2.9,0,4.6-1.2,4.6-3.2v-0.1
				c0-2.3-3.1-3.1-6.6-4.1c-4.3-1.2-9.2-3-9.2-8.6v-0.1c0-5.6,4.6-9,10.5-9c3.7,0,7.7,1.3,10.8,3.3l-2.7,4.8
				c-2.8-1.7-5.8-2.8-8.3-2.8c-2.6,0-4.1,1.2-4.1,3v0.1c0,2.1,3.2,3,6.6,4.1c4.3,1.3,9.1,3.3,9.1,8.6v0.1
				C258.1,433,253.3,436.1,247.2,436.1z"/>
			<path class="st6" d="M298.3,436.1c-4.8,0-7.9-2.4-10-5.2v4.6h-6.7v-40.7h6.7V411c2.2-3.1,5.2-5.5,10-5.5c7,0,13.7,5.5,13.7,15.3
				C312,430.6,305.3,436.1,298.3,436.1z M296.7,411.4c-4.6,0-8.6,3.7-8.6,9.5s4,9.5,8.6,9.5c4.6,0,8.4-3.6,8.4-9.5
				C305.2,415,301.3,411.4,296.7,411.4z"/>
			<path class="st6" d="M336.9,435.5v-3.6c-2,2.4-5.1,4.2-9.5,4.2c-5.6,0-10.5-3.2-10.5-9.1V427c0-6.4,5.1-9.5,11.9-9.5
				c3.6,0,5.8,0.5,8.1,1.2V418c0-4.1-2.6-6.3-7.2-6.3c-3.3,0-5.7,0.7-8.4,1.8l-1.8-5.4c3.2-1.4,6.4-2.4,11.2-2.4
				c8.7,0,12.9,4.6,12.9,12.4v17.4H336.9z M337,423.1c-1.7-0.7-4.1-1.2-6.7-1.2c-4.2,0-6.7,1.7-6.7,4.7v0.1c0,2.8,2.5,4.3,5.7,4.3
				c4.5,0,7.8-2.5,7.8-6.2V423.1z"/>
			<path class="st6" d="M365.1,436.2c-8.7,0-15.2-6.9-15.2-15.3c0-8.4,6.5-15.4,15.3-15.4c5.6,0,9,2.1,11.8,5.1l-4.2,4.5
				c-2.1-2.2-4.2-3.7-7.6-3.7c-4.9,0-8.5,4.2-8.5,9.4c0,5.3,3.6,9.5,8.8,9.5c3.2,0,5.5-1.5,7.6-3.7l4.1,4
				C374.3,433.9,370.9,436.2,365.1,436.2z"/>
			<path class="st6" d="M410.8,435.5H403l-8.9-12.7l-4.1,4.3v8.4h-6.7v-40.7h6.7v24.3l12.2-13h8.2l-11.7,12L410.8,435.5z"/>
			<path class="st6" d="M432.4,436.1c-4.8,0-7.9-2.4-10-5.2v13.5h-6.7v-38.3h6.7v4.9c2.2-3.1,5.2-5.5,10-5.5c7,0,13.7,5.5,13.7,15.3
				C446.1,430.6,439.4,436.1,432.4,436.1z M430.9,411.4c-4.6,0-8.6,3.7-8.6,9.5s4,9.5,8.6,9.5c4.6,0,8.4-3.6,8.4-9.5
				C439.3,415,435.4,411.4,430.9,411.4z"/>
			<path class="st6" d="M471,435.5v-3.6c-2,2.4-5.1,4.2-9.5,4.2c-5.6,0-10.5-3.2-10.5-9.1V427c0-6.4,5.1-9.5,11.9-9.5
				c3.6,0,5.9,0.5,8.1,1.2V418c0-4.1-2.6-6.3-7.2-6.3c-3.3,0-5.7,0.7-8.4,1.8l-1.8-5.4c3.2-1.4,6.4-2.4,11.2-2.4
				c8.7,0,12.9,4.6,12.9,12.4v17.4H471z M471.1,423.1c-1.7-0.7-4.1-1.2-6.7-1.2c-4.2,0-6.7,1.7-6.7,4.7v0.1c0,2.8,2.5,4.3,5.7,4.3
				c4.5,0,7.8-2.5,7.8-6.2V423.1z"/>
			<path class="st6" d="M499.2,436.2c-8.7,0-15.2-6.9-15.2-15.3c0-8.4,6.5-15.4,15.3-15.4c5.6,0,9,2.1,11.8,5.1l-4.2,4.5
				c-2.1-2.2-4.2-3.7-7.6-3.7c-4.9,0-8.5,4.2-8.5,9.4c0,5.3,3.6,9.5,8.8,9.5c3.2,0,5.5-1.5,7.6-3.7l4.1,4
				C508.4,433.9,505,436.2,499.2,436.2z"/>
			<path class="st6" d="M544.9,435.5h-7.8l-8.9-12.7l-4.1,4.3v8.4h-6.7v-40.7h6.7v24.3l12.2-13h8.2l-11.7,12L544.9,435.5z"/>
			<path class="st6" d="M559.9,436.1c-4.2,0-8.8-1.5-12.5-4.4l3-4.6c3.2,2.4,6.6,3.6,9.6,3.6c2.9,0,4.6-1.2,4.6-3.2v-0.1
				c0-2.3-3.1-3.1-6.6-4.1c-4.3-1.2-9.2-3-9.2-8.6v-0.1c0-5.6,4.6-9,10.5-9c3.7,0,7.7,1.3,10.8,3.3l-2.7,4.8
				c-2.8-1.7-5.8-2.8-8.3-2.8c-2.6,0-4.1,1.2-4.1,3v0.1c0,2.1,3.2,3,6.6,4.1c4.3,1.3,9.1,3.3,9.1,8.6v0.1
				C570.8,433,566,436.1,559.9,436.1z"/>
		</g>
		<g>
			<path class="st6" d="M101.3,502.3h-6.7v-40.7h6.7v15.8c1.9-2.8,4.6-5.2,9.2-5.2c6.6,0,10.5,4.5,10.5,11.3v18.7h-6.7v-16.7
				c0-4.6-2.3-7.2-6.3-7.2c-3.9,0-6.6,2.7-6.6,7.3V502.3z"/>
			<path class="st6" d="M147.1,502.3v-3.6c-2,2.4-5.1,4.2-9.5,4.2c-5.6,0-10.5-3.2-10.5-9.1v-0.1c0-6.4,5.1-9.5,11.9-9.5
				c3.6,0,5.8,0.5,8.1,1.2v-0.7c0-4.1-2.6-6.3-7.2-6.3c-3.3,0-5.7,0.7-8.4,1.8l-1.8-5.4c3.2-1.4,6.4-2.4,11.2-2.4
				c8.7,0,12.9,4.6,12.9,12.4v17.4H147.1z M147.3,489.8c-1.7-0.7-4.1-1.2-6.7-1.2c-4.2,0-6.7,1.7-6.7,4.7v0.1c0,2.8,2.5,4.3,5.7,4.3
				c4.5,0,7.8-2.5,7.8-6.2V489.8z"/>
			<path class="st6" d="M181,472.9h7.1l-12,29.6H170l-12.1-29.6h7.2l7.9,21.6L181,472.9z"/>
			<path class="st6" d="M205.8,497.5c3.3,0,5.6-1.2,8-3.5l4,3.5c-2.8,3.3-6.6,5.5-12,5.5c-8.5,0-15.1-6.2-15.1-15.3
				c0-8.5,6-15.4,14.4-15.4c9.4,0,14.1,7.3,14.1,15.9c0,0.6-0.1,1.2-0.1,1.8h-21.6C198.1,494.8,201.5,497.5,205.8,497.5z
				 M212.4,485.5c-0.4-4.3-3-7.7-7.5-7.7c-4.1,0-7,3.2-7.6,7.7H212.4z"/>
			<path class="st6" d="M260.5,502.3v-3.6c-2,2.4-5.1,4.2-9.5,4.2c-5.6,0-10.5-3.2-10.5-9.1v-0.1c0-6.4,5.1-9.5,11.9-9.5
				c3.6,0,5.8,0.5,8.1,1.2v-0.7c0-4.1-2.6-6.3-7.2-6.3c-3.3,0-5.7,0.7-8.4,1.8l-1.8-5.4c3.2-1.4,6.4-2.4,11.2-2.4
				c8.7,0,12.9,4.6,12.9,12.4v17.4H260.5z M260.7,489.8c-1.7-0.7-4.1-1.2-6.7-1.2c-4.2,0-6.7,1.7-6.7,4.7v0.1c0,2.8,2.5,4.3,5.7,4.3
				c4.5,0,7.8-2.5,7.8-6.2V489.8z"/>
			<path class="st6" d="M298.6,502.3h-6.7v-29.4h6.7v6.6c1.8-4.4,5.2-7.4,10.4-7.2v7.1h-0.4c-5.9,0-10,3.8-10,11.6V502.3z"/>
			<path class="st6" d="M327.4,497.5c3.3,0,5.6-1.2,8-3.5l4,3.5c-2.8,3.3-6.6,5.5-12,5.5c-8.5,0-15.1-6.2-15.1-15.3
				c0-8.5,6-15.4,14.4-15.4c9.4,0,14.1,7.3,14.1,15.9c0,0.6-0.1,1.2-0.1,1.8H319C319.8,494.8,323.1,497.5,327.4,497.5z M334,485.5
				c-0.4-4.3-3-7.7-7.5-7.7c-4.1,0-7,3.2-7.6,7.7H334z"/>
			<path class="st6" d="M363.4,473.1v5.6h-7.7v23.6H349v-23.6h-3.7v-5.6h3.7V471c0-6.5,3.2-9.6,9-9.6c2.3,0,4,0.3,5.5,0.8v5.7
				c-1.3-0.4-2.5-0.7-4-0.7c-2.6,0-3.9,1.4-3.9,4.5v1.6H363.4z"/>
			<path class="st6" d="M368.8,502.3v-40.7h6.7v40.7H368.8z"/>
			<path class="st6" d="M397.9,497.5c3.3,0,5.6-1.2,8-3.5l4,3.5c-2.8,3.3-6.6,5.5-12,5.5c-8.5,0-15.1-6.2-15.1-15.3
				c0-8.5,6-15.4,14.4-15.4c9.4,0,14.1,7.3,14.1,15.9c0,0.6-0.1,1.2-0.1,1.8h-21.6C390.2,494.8,393.5,497.5,397.9,497.5z
				 M404.4,485.5c-0.4-4.3-3-7.7-7.5-7.7c-4.1,0-7,3.2-7.6,7.7H404.4z"/>
			<path class="st6" d="M431.5,503c-8.7,0-15.2-6.9-15.2-15.3s6.5-15.4,15.3-15.4c5.6,0,9,2.1,11.8,5.1l-4.2,4.5
				c-2.1-2.2-4.2-3.7-7.6-3.7c-4.9,0-8.5,4.2-8.5,9.4c0,5.3,3.6,9.5,8.8,9.5c3.2,0,5.5-1.5,7.6-3.7l4.1,4
				C440.6,500.7,437.2,503,431.5,503z"/>
			<path class="st6" d="M457.8,493.1c0,2.6,1.3,3.7,3.6,3.7c1.5,0,2.8-0.3,4.2-1v5.5c-1.7,0.9-3.6,1.5-6.1,1.5c-5,0-8.5-2.2-8.5-8.6
				v-15.5h-3.7v-5.8h3.7v-8.1h6.7v8.1h7.9v5.8h-7.9V493.1z"/>
			<path class="st6" d="M472.6,468.4V462h7.2v6.4H472.6z M472.9,502.3v-29.4h6.7v29.4H472.9z"/>
			<path class="st6" d="M508.7,472.9h7.1l-12,29.6h-6.1l-12.1-29.6h7.2l7.9,21.6L508.7,472.9z"/>
			<path class="st6" d="M533.5,497.5c3.3,0,5.6-1.2,8-3.5l4,3.5c-2.8,3.3-6.6,5.5-12,5.5c-8.5,0-15.1-6.2-15.1-15.3
				c0-8.5,6-15.4,14.4-15.4c9.4,0,14.1,7.3,14.1,15.9c0,0.6-0.1,1.2-0.1,1.8H525C525.8,494.8,529.1,497.5,533.5,497.5z M540.1,485.5
				c-0.4-4.3-3-7.7-7.5-7.7c-4.1,0-7,3.2-7.6,7.7H540.1z"/>
		</g>
		<g>
			<path class="st6" d="M181,536.2H159v10.1h19.6v6.1H159V563h22.3v6.1h-29.2v-39H181V536.2z"/>
			<path class="st6" d="M189,569.1v-40.7h6.7v40.7H189z"/>
			<path class="st6" d="M221.3,569.7c-4.8,0-7.9-2.4-10-5.2V578h-6.7v-38.3h6.7v4.9c2.2-3.1,5.2-5.5,10-5.5c7,0,13.7,5.5,13.7,15.3
				S228.3,569.7,221.3,569.7z M219.7,544.9c-4.6,0-8.6,3.7-8.6,9.5s4,9.5,8.6,9.5c4.6,0,8.4-3.6,8.4-9.5
				C228.1,548.6,224.3,544.9,219.7,544.9z"/>
			<path class="st6" d="M248.6,569.1h-6.7v-40.7h6.7v15.8c1.9-2.8,4.6-5.2,9.2-5.2c6.6,0,10.5,4.5,10.5,11.3v18.7h-6.7v-16.7
				c0-4.6-2.3-7.2-6.3-7.2c-3.9,0-6.6,2.7-6.6,7.3V569.1z"/>
			<path class="st6" d="M289.9,564.2c3.3,0,5.6-1.2,8-3.5l4,3.5c-2.8,3.3-6.6,5.5-12,5.5c-8.5,0-15.1-6.2-15.1-15.3
				c0-8.5,6-15.4,14.4-15.4c9.4,0,14.1,7.3,14.1,15.9c0,0.6-0.1,1.2-0.1,1.8h-21.6C282.2,561.6,285.6,564.2,289.9,564.2z
				 M296.5,552.3c-0.4-4.3-3-7.7-7.5-7.7c-4.1,0-7,3.2-7.6,7.7H296.5z"/>
			<path class="st6" d="M323.5,564.2c3.3,0,5.6-1.2,8-3.5l4,3.5c-2.8,3.3-6.6,5.5-12,5.5c-8.5,0-15.1-6.2-15.1-15.3
				c0-8.5,6-15.4,14.4-15.4c9.4,0,14.1,7.3,14.1,15.9c0,0.6-0.1,1.2-0.1,1.8h-21.6C315.8,561.6,319.2,564.2,323.5,564.2z
				 M330.1,552.3c-0.4-4.3-3-7.7-7.5-7.7c-4.1,0-7,3.2-7.6,7.7H330.1z"/>
			<path class="st6" d="M377,569.7c-4.8,0-7.9-2.4-10-5.2V578h-6.7v-38.3h6.7v4.9c2.2-3.1,5.2-5.5,10-5.5c7,0,13.7,5.5,13.7,15.3
				S384,569.7,377,569.7z M375.4,544.9c-4.6,0-8.6,3.7-8.6,9.5s4,9.5,8.6,9.5c4.6,0,8.4-3.6,8.4-9.5
				C383.8,548.6,380,544.9,375.4,544.9z"/>
			<path class="st6" d="M404.3,569.1h-6.7v-29.4h6.7v6.6c1.8-4.4,5.2-7.4,10.4-7.2v7.1h-0.4c-5.9,0-10,3.8-10,11.6V569.1z"/>
			<path class="st6" d="M420.6,535.2v-6.4h7.2v6.4H420.6z M420.9,569.1v-29.4h6.7v29.4H420.9z"/>
			<path class="st6" d="M443.2,569.1h-6.7v-29.4h6.7v4.6c1.9-2.8,4.6-5.2,9.2-5.2c6.6,0,10.5,4.5,10.5,11.3v18.7h-6.7v-16.7
				c0-4.6-2.3-7.2-6.3-7.2c-3.9,0-6.6,2.7-6.6,7.3V569.1z"/>
			<path class="st6" d="M479.1,559.9c0,2.6,1.3,3.7,3.6,3.7c1.5,0,2.8-0.3,4.2-1v5.5c-1.7,0.9-3.6,1.5-6.1,1.5c-5,0-8.5-2.2-8.5-8.6
				v-15.5h-3.7v-5.8h3.7v-8.1h6.7v8.1h7.9v5.8h-7.9V559.9z"/>
		</g>
	</g>
</g>
<g id="Layer_5" class="st0">
	<g class="st2">
		<g>
			<path class="st6" d="M369.7,194.9c-2.8,0-8.3,1.2-11.1,6.6c-9,17.8-42.7,58.4-42.7,82.8c0,29.7,24.1,53.7,53.7,53.7
				c29.7,0,53.7-24.1,53.7-53.7c0-27-26.1-67.2-43-82.8C376.1,197.3,372.2,194.9,369.7,194.9 M407.2,307.2
				c-3.2,4.6-5.4,7.5-11.2,10.7c-1.7,1-3,0.1-5-1.1c-3.8-2.4-1.1-8.3-1.1-8.3c10-8.9,10.7-11.5,12.4-21.3c0.3-1.8,4.9-5.4,7.3-4.3
				c1,0.4,3.3,1.5,3.6,5.4C413.7,296,410.4,302.6,407.2,307.2"/>
			<path class="st6" d="M241.5,117.1c-2.2,0-6.5,0.9-8.7,5.2c-7.1,14-33.4,45.8-33.4,64.9c0,23.3,18.9,42.1,42.1,42.1
				c23.3,0,42.1-18.9,42.1-42.1c0-21.1-20.5-52.7-33.7-64.9C246.5,119,243.5,117.1,241.5,117.1 M270.9,205.1
				c-2.5,3.6-4.3,5.9-8.8,8.4c-1.3,0.8-2.4,0.1-3.9-0.9c-3-1.9-0.8-6.5-0.8-6.5c7.9-7,8.4-9,9.7-16.7c0.3-1.4,3.8-4.2,5.7-3.4
				c0.8,0.3,2.6,1.2,2.8,4.2C276,196.3,273.4,201.5,270.9,205.1"/>
			<path class="st6" d="M361.6,1c-2,0-6.1,0.9-8.1,4.8c-6.6,13-31.1,42.6-31.1,60.3c0,21.6,17.5,39.2,39.2,39.2
				c21.6,0,39.2-17.5,39.2-39.2c0-19.6-19-49-31.3-60.4C366.2,2.8,363.5,1,361.6,1 M389,82.8c-2.3,3.3-4,5.4-8.2,7.8
				c-1.2,0.7-2.2,0.1-3.7-0.8c-2.8-1.7-0.8-6.1-0.8-6.1c7.3-6.5,7.8-8.4,9.1-15.5c0.2-1.3,3.5-3.9,5.3-3.1c0.7,0.3,2.4,1.1,2.6,3.9
				C393.7,74.7,391.3,79.5,389,82.8"/>
		</g>
		<g>
			<path class="st6" d="M149.4,434.6V431c-2,2.4-5.1,4.3-9.6,4.3c-5.6,0-10.6-3.2-10.6-9.2v-0.1c0-6.4,5.1-9.6,12.1-9.6
				c3.6,0,5.9,0.5,8.2,1.2v-0.7c0-4.1-2.6-6.4-7.3-6.4c-3.3,0-5.8,0.7-8.5,1.9l-1.9-5.5c3.3-1.5,6.5-2.5,11.3-2.5
				c8.8,0,13.1,4.6,13.1,12.6v17.6H149.4z M149.5,422c-1.7-0.7-4.2-1.2-6.8-1.2c-4.3,0-6.8,1.7-6.8,4.8v0.1c0,2.8,2.5,4.4,5.8,4.4
				c4.5,0,7.9-2.5,7.9-6.3V422z"/>
			<path class="st6" d="M164.6,434.6v-41.1h6.8v41.1H164.6z"/>
			<path class="st6" d="M180.7,434.6v-41.1h6.8v41.1H180.7z"/>
			<path class="st6" d="M230.2,435.2c-4.9,0-8-2.5-10.1-5.2v4.6h-6.8v-41.1h6.8v16.3c2.2-3.1,5.3-5.6,10.1-5.6
				c7,0,13.9,5.6,13.9,15.5C244.1,429.7,237.3,435.2,230.2,435.2z M228.6,410.2c-4.6,0-8.7,3.8-8.7,9.6c0,5.8,4.1,9.6,8.7,9.6
				c4.7,0,8.5-3.7,8.5-9.6C237.1,413.9,233.3,410.2,228.6,410.2z"/>
			<path class="st6" d="M269.2,434.6V431c-2,2.4-5.1,4.3-9.6,4.3c-5.6,0-10.6-3.2-10.6-9.2v-0.1c0-6.4,5.1-9.6,12.1-9.6
				c3.6,0,5.9,0.5,8.2,1.2v-0.7c0-4.1-2.6-6.4-7.3-6.4c-3.3,0-5.8,0.7-8.5,1.9l-1.9-5.5c3.3-1.5,6.5-2.5,11.3-2.5
				c8.8,0,13.1,4.6,13.1,12.6v17.6H269.2z M269.4,422c-1.7-0.7-4.2-1.2-6.8-1.2c-4.3,0-6.8,1.7-6.8,4.8v0.1c0,2.8,2.5,4.4,5.8,4.4
				c4.5,0,7.9-2.5,7.9-6.3V422z"/>
			<path class="st6" d="M297.8,435.3c-8.9,0-15.4-6.9-15.4-15.4c0-8.5,6.5-15.6,15.4-15.6c5.6,0,9.1,2.1,11.9,5.1l-4.2,4.6
				c-2.1-2.2-4.3-3.7-7.7-3.7c-5,0-8.6,4.3-8.6,9.5c0,5.4,3.7,9.6,8.9,9.6c3.2,0,5.6-1.5,7.7-3.7l4.1,4.1
				C307.1,433,303.6,435.3,297.8,435.3z"/>
			<path class="st6" d="M344,434.6h-7.9l-9-12.8l-4.2,4.3v8.5h-6.8v-41.1h6.8v24.6l12.3-13.2h8.3L331.8,417L344,434.6z"/>
			<path class="st6" d="M365.9,435.2c-4.9,0-8-2.5-10.1-5.2v13.6H349v-38.8h6.8v5c2.2-3.1,5.3-5.6,10.1-5.6c7,0,13.9,5.6,13.9,15.5
				C379.7,429.7,373,435.2,365.9,435.2z M364.3,410.2c-4.6,0-8.7,3.8-8.7,9.6c0,5.8,4.1,9.6,8.7,9.6c4.7,0,8.5-3.7,8.5-9.6
				C372.8,413.9,368.9,410.2,364.3,410.2z"/>
			<path class="st6" d="M404.9,434.6V431c-2,2.4-5.1,4.3-9.6,4.3c-5.6,0-10.6-3.2-10.6-9.2v-0.1c0-6.4,5.1-9.6,12.1-9.6
				c3.6,0,5.9,0.5,8.2,1.2v-0.7c0-4.1-2.6-6.4-7.3-6.4c-3.3,0-5.8,0.7-8.5,1.9l-1.9-5.5c3.3-1.5,6.5-2.5,11.3-2.5
				c8.8,0,13.1,4.6,13.1,12.6v17.6H404.9z M405.1,422c-1.7-0.7-4.2-1.2-6.8-1.2c-4.3,0-6.8,1.7-6.8,4.8v0.1c0,2.8,2.5,4.4,5.8,4.4
				c4.5,0,7.9-2.5,7.9-6.3V422z"/>
			<path class="st6" d="M433.5,435.3c-8.9,0-15.4-6.9-15.4-15.4c0-8.5,6.5-15.6,15.4-15.6c5.6,0,9.1,2.1,11.9,5.1l-4.2,4.6
				c-2.1-2.2-4.3-3.7-7.7-3.7c-5,0-8.6,4.3-8.6,9.5c0,5.4,3.7,9.6,8.9,9.6c3.2,0,5.6-1.5,7.7-3.7l4.1,4.1
				C442.7,433,439.3,435.3,433.5,435.3z"/>
			<path class="st6" d="M479.7,434.6h-7.9l-9-12.8l-4.2,4.3v8.5h-6.8v-41.1h6.8v24.6l12.3-13.2h8.3L467.5,417L479.7,434.6z"/>
			<path class="st6" d="M494.8,435.2c-4.2,0-8.9-1.5-12.6-4.5l3-4.6c3.2,2.4,6.7,3.7,9.7,3.7c2.9,0,4.6-1.2,4.6-3.2v-0.1
				c0-2.3-3.2-3.1-6.7-4.2c-4.4-1.2-9.3-3-9.3-8.7v-0.1c0-5.6,4.7-9.1,10.6-9.1c3.7,0,7.8,1.3,10.9,3.4l-2.7,4.8
				c-2.9-1.7-5.9-2.8-8.4-2.8c-2.6,0-4.2,1.2-4.2,3v0.1c0,2.1,3.2,3,6.7,4.2c4.3,1.4,9.2,3.3,9.2,8.7v0.1
				C505.9,432.1,501,435.2,494.8,435.2z"/>
		</g>
		<g>
			<path class="st6" d="M62,502.2h-6.8V461H62v16c1.9-2.8,4.7-5.2,9.3-5.2c6.7,0,10.6,4.5,10.6,11.4v18.9H75v-16.9
				c0-4.6-2.3-7.3-6.4-7.3c-3.9,0-6.7,2.8-6.7,7.4V502.2z"/>
			<path class="st6" d="M108.2,502.2v-3.7c-2,2.4-5.1,4.3-9.6,4.3c-5.6,0-10.6-3.2-10.6-9.2v-0.1c0-6.4,5.1-9.6,12.1-9.6
				c3.6,0,5.9,0.5,8.2,1.2v-0.7c0-4.1-2.6-6.4-7.3-6.4c-3.3,0-5.8,0.7-8.5,1.9l-1.9-5.5c3.3-1.5,6.5-2.5,11.3-2.5
				c8.8,0,13.1,4.6,13.1,12.6v17.6H108.2z M108.4,489.6c-1.7-0.7-4.2-1.2-6.8-1.2c-4.3,0-6.8,1.7-6.8,4.8v0.1c0,2.8,2.5,4.4,5.8,4.4
				c4.5,0,7.9-2.5,7.9-6.3V489.6z"/>
			<path class="st6" d="M142.6,472.4h7.2l-12.2,30h-6.1l-12.2-30h7.3l8,21.9L142.6,472.4z"/>
			<path class="st6" d="M167.6,497.3c3.3,0,5.7-1.2,8.1-3.6l4,3.6c-2.8,3.4-6.7,5.6-12.2,5.6c-8.6,0-15.3-6.3-15.3-15.5
				c0-8.6,6-15.5,14.5-15.5c9.5,0,14.3,7.4,14.3,16.1c0,0.6-0.1,1.2-0.1,1.9h-21.9C159.9,494.6,163.2,497.3,167.6,497.3z
				 M174.3,485.2c-0.5-4.4-3-7.8-7.6-7.8c-4.2,0-7.1,3.2-7.7,7.8H174.3z"/>
			<path class="st6" d="M234.3,492.8l6.1-20.4h6.8l-9.8,30h-6.1l-6.6-20.3l-6.7,20.3h-6.1l-9.6-30h7l6,20.4l6.6-20.5h5.8
				L234.3,492.8z"/>
			<path class="st6" d="M265.6,497.3c3.3,0,5.7-1.2,8.1-3.6l4,3.6c-2.8,3.4-6.7,5.6-12.2,5.6c-8.6,0-15.3-6.3-15.3-15.5
				c0-8.6,6-15.5,14.5-15.5c9.5,0,14.3,7.4,14.3,16.1c0,0.6-0.1,1.2-0.1,1.9H257C257.8,494.6,261.2,497.3,265.6,497.3z M272.2,485.2
				c-0.5-4.4-3-7.8-7.6-7.8c-4.2,0-7.1,3.2-7.7,7.8H272.2z"/>
			<path class="st6" d="M304,502.2v-3.7c-2,2.4-5.1,4.3-9.6,4.3c-5.6,0-10.6-3.2-10.6-9.2v-0.1c0-6.4,5.1-9.6,12.1-9.6
				c3.6,0,5.9,0.5,8.2,1.2v-0.7c0-4.1-2.6-6.4-7.3-6.4c-3.3,0-5.8,0.7-8.5,1.9l-1.9-5.5c3.3-1.5,6.5-2.5,11.3-2.5
				c8.8,0,13.1,4.6,13.1,12.6v17.6H304z M304.2,489.6c-1.7-0.7-4.2-1.2-6.8-1.2c-4.3,0-6.8,1.7-6.8,4.8v0.1c0,2.8,2.5,4.4,5.8,4.4
				c4.5,0,7.9-2.5,7.9-6.3V489.6z"/>
			<path class="st6" d="M326.9,492.9c0,2.6,1.4,3.7,3.7,3.7c1.5,0,2.9-0.3,4.2-1v5.6c-1.7,1-3.6,1.5-6.1,1.5c-5,0-8.6-2.2-8.6-8.7
				v-15.7h-3.8v-5.9h3.8v-8.2h6.8v8.2h8v5.9h-8V492.9z"/>
			<path class="st6" d="M348.5,502.2h-6.8V461h6.8v16c1.9-2.8,4.7-5.2,9.3-5.2c6.7,0,10.6,4.5,10.6,11.4v18.9h-6.8v-16.9
				c0-4.6-2.3-7.3-6.4-7.3c-3.9,0-6.7,2.8-6.7,7.4V502.2z"/>
			<path class="st6" d="M390.4,497.3c3.3,0,5.7-1.2,8.1-3.6l4,3.6c-2.8,3.4-6.7,5.6-12.2,5.6c-8.6,0-15.3-6.3-15.3-15.5
				c0-8.6,6-15.5,14.5-15.5c9.5,0,14.3,7.4,14.3,16.1c0,0.6-0.1,1.2-0.1,1.9h-21.9C382.6,494.6,386,497.3,390.4,497.3z M397,485.2
				c-0.5-4.4-3-7.8-7.6-7.8c-4.2,0-7.1,3.2-7.7,7.8H397z"/>
			<path class="st6" d="M417.5,502.2h-6.8v-29.8h6.8v6.7c1.9-4.5,5.3-7.5,10.5-7.3v7.2h-0.4c-6,0-10.1,3.9-10.1,11.8V502.2z"/>
			<path class="st6" d="M450.8,502.8c-4.9,0-8-2.5-10.1-5.2v13.6h-6.8v-38.8h6.8v5c2.2-3.1,5.3-5.6,10.1-5.6c7,0,13.9,5.6,13.9,15.5
				S457.9,502.8,450.8,502.8z M449.2,477.7c-4.6,0-8.7,3.8-8.7,9.6c0,5.8,4.1,9.6,8.7,9.6c4.7,0,8.5-3.7,8.5-9.6
				C457.7,481.4,453.8,477.7,449.2,477.7z"/>
			<path class="st6" d="M478.4,502.2h-6.8v-29.8h6.8v6.7c1.9-4.5,5.3-7.5,10.5-7.3v7.2h-0.4c-6,0-10.1,3.9-10.1,11.8V502.2z"/>
			<path class="st6" d="M508,502.9c-9.1,0-15.8-6.9-15.8-15.4c0-8.6,6.8-15.6,15.9-15.6s15.8,6.9,15.8,15.5
				C523.9,495.8,517.2,502.9,508,502.9z M508,477.8c-5.5,0-9,4.3-9,9.5c0,5.3,3.8,9.6,9.1,9.6c5.5,0,9-4.3,9-9.5
				C517.1,482.1,513.3,477.8,508,477.8z"/>
			<path class="st6" d="M545,502.9c-9.1,0-15.8-6.9-15.8-15.4c0-8.6,6.8-15.6,15.9-15.6c9.1,0,15.8,6.9,15.8,15.5
				C560.9,495.8,554.1,502.9,545,502.9z M545,477.8c-5.5,0-9,4.3-9,9.5c0,5.3,3.8,9.6,9.1,9.6c5.5,0,9-4.3,9-9.5
				C554.1,482.1,550.3,477.8,545,477.8z"/>
			<path class="st6" d="M583.9,472.6v5.6h-7.8v23.9h-6.8v-23.9h-3.8v-5.7h3.8v-2.1c0-6.5,3.3-9.8,9.1-9.8c2.4,0,4,0.3,5.5,0.8v5.7
				c-1.4-0.4-2.5-0.7-4-0.7c-2.6,0-3.9,1.4-3.9,4.5v1.6H583.9z"/>
		</g>
		<g>
			<path class="st6" d="M91.2,570.3c-4.2,0-8.9-1.5-12.6-4.5l3-4.6c3.2,2.4,6.7,3.7,9.8,3.7c2.9,0,4.6-1.2,4.6-3.2v-0.1
				c0-2.3-3.2-3.1-6.7-4.2c-4.4-1.2-9.3-3-9.3-8.7v-0.1c0-5.6,4.7-9.1,10.6-9.1c3.7,0,7.8,1.3,10.9,3.4l-2.7,4.8
				c-2.9-1.7-5.9-2.8-8.4-2.8c-2.6,0-4.2,1.2-4.2,3v0.1c0,2.1,3.2,3,6.7,4.2c4.3,1.4,9.2,3.3,9.2,8.7v0.1
				C102.2,567.2,97.4,570.3,91.2,570.3z"/>
			<path class="st6" d="M128.7,540h6.8v29.8h-6.8v-4.6c-1.9,2.8-4.7,5.2-9.3,5.2c-6.7,0-10.6-4.5-10.6-11.4V540h6.8v16.9
				c0,4.6,2.3,7.3,6.4,7.3c3.9,0,6.7-2.8,6.7-7.4V540z"/>
			<path class="st6" d="M150.8,569.7H144V540h6.8v6.7c1.9-4.5,5.3-7.5,10.5-7.3v7.2H161c-6,0-10.1,3.9-10.1,11.8V569.7z"/>
			<path class="st6" d="M183.4,540.2v5.6h-7.8v23.9h-6.8v-23.9H165v-5.7h3.8V538c0-6.5,3.3-9.8,9.1-9.8c2.4,0,4,0.3,5.5,0.8v5.7
				c-1.4-0.4-2.5-0.7-4-0.7c-2.6,0-3.9,1.4-3.9,4.5v1.6H183.4z"/>
			<path class="st6" d="M205.8,569.7v-3.7c-2,2.4-5.1,4.3-9.6,4.3c-5.6,0-10.6-3.2-10.6-9.2v-0.1c0-6.4,5.1-9.6,12.1-9.6
				c3.6,0,5.9,0.5,8.2,1.2V552c0-4.1-2.6-6.4-7.3-6.4c-3.3,0-5.8,0.7-8.5,1.9l-1.9-5.5c3.3-1.5,6.5-2.5,11.3-2.5
				c8.8,0,13.1,4.6,13.1,12.6v17.6H205.8z M206,557.1c-1.7-0.7-4.2-1.2-6.8-1.2c-4.3,0-6.8,1.7-6.8,4.8v0.1c0,2.8,2.5,4.4,5.8,4.4
				c4.5,0,7.9-2.5,7.9-6.3V557.1z"/>
			<path class="st6" d="M234.4,570.4c-8.9,0-15.4-6.9-15.4-15.4s6.5-15.6,15.4-15.6c5.6,0,9.1,2.1,11.9,5.1l-4.2,4.6
				c-2.1-2.2-4.3-3.7-7.7-3.7c-5,0-8.6,4.3-8.6,9.5c0,5.4,3.7,9.6,8.9,9.6c3.2,0,5.6-1.5,7.7-3.7l4.1,4.1
				C243.7,568.1,240.2,570.4,234.4,570.4z"/>
			<path class="st6" d="M265.8,564.8c3.3,0,5.7-1.2,8.1-3.6l4,3.6c-2.8,3.4-6.7,5.6-12.2,5.6c-8.6,0-15.3-6.3-15.3-15.5
				c0-8.6,6-15.5,14.5-15.5c9.5,0,14.3,7.4,14.3,16.1c0,0.6-0.1,1.2-0.1,1.9h-21.9C258,562.1,261.4,564.8,265.8,564.8z M272.5,552.8
				c-0.5-4.4-3-7.8-7.6-7.8c-4.2,0-7.1,3.2-7.7,7.8H272.5z"/>
			<path class="st6" d="M331.1,570.5l-5.2-5.4c-3.4,3.2-7.3,5.1-12.1,5.1c-7.3,0-12.8-4.4-12.8-11.3c0-5.1,3-8.8,8.4-11.1
				c-2.2-2.9-3.3-5.4-3.3-8.3c0-5.4,4.3-10,11.3-10c6.3,0,10.5,4.2,10.5,9.6c0,5.2-3.4,8.3-8.7,10.3l6.8,6.9
				c1.5-2.3,2.9-4.8,4.2-7.6l5.2,2.8c-1.6,3.2-3.3,6.3-5.4,9l6.2,6.3L331.1,570.5z M313.1,552.1c-3.7,1.6-5.2,4-5.2,6.6
				c0,3.4,2.8,5.8,6.6,5.8c2.7,0,5.2-1.3,7.4-3.4L313.1,552.1z M317.1,535.1c-2.8,0-4.7,2-4.7,4.8c0,2,0.8,3.5,3,5.9
				c4.1-1.5,6.2-3.3,6.2-6.2C321.6,536.8,319.8,535.1,317.1,535.1z"/>
			<path class="st6" d="M358.3,545.5V540h25.2v4.7l-17.2,19.5h17.2v5.6h-25.9v-4.7l17.2-19.5H358.3z"/>
			<path class="st6" d="M390.6,535.4v-6.5h7.3v6.5H390.6z M390.9,569.7V540h6.8v29.8H390.9z"/>
			<path class="st6" d="M423.5,570.3c-4.9,0-8-2.5-10.1-5.2v13.6h-6.8V540h6.8v5c2.2-3.1,5.3-5.6,10.1-5.6c7,0,13.9,5.6,13.9,15.5
				C437.4,564.8,430.6,570.3,423.5,570.3z M422,545.3c-4.6,0-8.7,3.8-8.7,9.6c0,5.8,4.1,9.6,8.7,9.6c4.7,0,8.5-3.7,8.5-9.6
				C430.5,549,426.6,545.3,422,545.3z"/>
			<path class="st6" d="M461.2,570.3c-4.9,0-8-2.5-10.1-5.2v13.6h-6.8V540h6.8v5c2.2-3.1,5.3-5.6,10.1-5.6c7,0,13.9,5.6,13.9,15.5
				C475.1,564.8,468.4,570.3,461.2,570.3z M459.7,545.3c-4.6,0-8.7,3.8-8.7,9.6c0,5.8,4.1,9.6,8.7,9.6c4.7,0,8.5-3.7,8.5-9.6
				C468.2,549,464.3,545.3,459.7,545.3z"/>
			<path class="st6" d="M495.8,564.8c3.3,0,5.7-1.2,8.1-3.6l4,3.6c-2.8,3.4-6.7,5.6-12.2,5.6c-8.6,0-15.3-6.3-15.3-15.5
				c0-8.6,6-15.5,14.5-15.5c9.5,0,14.3,7.4,14.3,16.1c0,0.6-0.1,1.2-0.1,1.9h-21.9C488,562.1,491.4,564.8,495.8,564.8z M502.5,552.8
				c-0.5-4.4-3-7.8-7.6-7.8c-4.2,0-7.1,3.2-7.7,7.8H502.5z"/>
			<path class="st6" d="M522.9,569.7h-6.8V540h6.8v6.7c1.9-4.5,5.3-7.5,10.5-7.3v7.2H533c-6,0-10.1,3.9-10.1,11.8V569.7z"/>
			<path class="st6" d="M549.5,570.3c-4.2,0-8.9-1.5-12.6-4.5l3-4.6c3.2,2.4,6.7,3.7,9.7,3.7c2.9,0,4.6-1.2,4.6-3.2v-0.1
				c0-2.3-3.2-3.1-6.7-4.2c-4.4-1.2-9.3-3-9.3-8.7v-0.1c0-5.6,4.7-9.1,10.6-9.1c3.7,0,7.8,1.3,10.9,3.4l-2.7,4.8
				c-2.9-1.7-5.9-2.8-8.4-2.8c-2.6,0-4.2,1.2-4.2,3v0.1c0,2.1,3.2,3,6.7,4.2c4.3,1.4,9.2,3.3,9.2,8.7v0.1
				C560.6,567.2,555.7,570.3,549.5,570.3z"/>
		</g>
	</g>
</g>
</svg>
