<?xml version="1.0" encoding="utf-8"?>
<!-- Generator: Adobe Illustrator 26.3.1, SVG Export Plug-In . SVG Version: 6.00 Build 0)  -->
<svg version="1.1" id="Layer_1" xmlns="http://www.w3.org/2000/svg" xmlns:xlink="http://www.w3.org/1999/xlink" x="0px" y="0px"
	 viewBox="0 0 128 128" style="enable-background:new 0 0 128 128;" xml:space="preserve">
<style type="text/css">
	.st0{fill:#5A6B60;}
</style>
<g>
	<path class="st0" d="M55.8,54.3c0-2.6-2.1-4.7-4.7-4.7c-2.6,0-4.7,2.1-4.7,4.7c0,2.6,2.1,4.7,4.7,4.7C53.7,59,55.8,56.9,55.8,54.3
		 M107,87.2l-14.8,0.1c0.1-9.1-0.1-8.9-0.1-11.6c0-2.4-2.3-5-5.5-5c-5.6,0-5.5,5.8-5.5,5.8v10.7H66.6l0-11.8c0-0.1-0.3-3.6-4.5-4.6
		C60,70.2,57.6,71,55,75.1c-3.4,5.5-17.3,17.1-30.4,9.7c0,0-12.2-7.3-4.8-22.1c2.6-5.2,14-15.3,28.7-19.7c-0.5-1.1-0.8-2.3-0.8-3.5
		c0-2.8,1.4-5.2,3.5-6.7v0c0.1-0.1,0.3-0.2,0.5-0.3c0.3-0.2,0.8-0.3,1.2-0.3c0.4,0,0.8,0.1,1.1,0.2c0.2,0.1,0.3,0.2,0.5,0.3
		c2.1,1.5,3.5,3.9,3.5,6.6c0,0.6,0,1.1-0.2,1.7c8.7-0.8,16.2,0.4,16.2,0.4s29.6,4,34.2,27.9l0,0.1C108.3,69.5,110.2,78.7,107,87.2
		 M127.8,64c0-35.3-28.6-63.9-63.9-63.9S0.2,28.7,0.2,64s28.6,63.9,63.8,63.9S127.8,99.3,127.8,64"/>
</g>
</svg>
